<svg width="5" height="26" viewBox="0 0 5 26" fill="none" xmlns="http://www.w3.org/2000/svg">
<mask id="mask0_53_44" style="mask-type:luminance" maskUnits="userSpaceOnUse" x="0" y="0" width="5" height="26">
<path d="M0.21167 0.5H4.65611V17.3889H4.83389V25.2778L4.65611 25.5H0.21167V0.5Z" fill="white"/>
</mask>
<g mask="url(#mask0_53_44)">
<path d="M1.01171 0.5V0.888889H0.811713V1.27778H0.567269V1.72222H0.389491V2.08333H0.0339355V1.16667H0.389491V0.666667H0.0339355V0.5H1.01171ZM1.58949 2.63889V3.05556H1.41171V3.38889H1.23394V3.05556H1.05616V2.63889H0.87838V2.08333H1.05616V1.66667H1.23394V1.33333H1.41171V1.66667H1.58949V2.08333H1.76727V2.63889H1.58949ZM1.21171 2.61111H1.43394V2.11111H1.21171V2.61111ZM0.633936 5.58333H0.811713V5.08333H0.633936V5.58333ZM1.83394 5.58333H2.01171V5.08333H1.83394V5.58333ZM0.0339355 8.97222H0.345047V9.33333H0.47838V9.77778H0.67838V10.1944H0.945047V9.77778H1.14505V9.33333H1.32282V8.97222H1.05616V8.55556H1.52282V8.83333H1.81171V9.30556H2.05616V9.83333H1.87838V10.2222H1.72282V10.5833H1.58949V10.9722H1.38949V11.3056H1.23394V11.6111H1.03394V12H0.745047V11.5833H0.545047V11.1944H0.389491V10.9444H0.0339355V10.3056H0.389491V9.75H0.0339355V8.97222Z" fill="white"/>
<path d="M3.85621 0.5V0.888889H4.05621V1.27778H4.30065V1.72222H4.47843V2.08333H4.83398V1.16667H4.47843V0.666667H4.83398V0.5H3.85621ZM3.27843 2.63889V3.05556H3.45621V3.38889H3.63398V3.05556H3.81176V2.63889H3.98954V2.08333H3.81176V1.66667H3.63398V1.33333H3.45621V1.66667H3.27843V2.08333H3.10065V2.63889H3.27843ZM3.65621 2.61111H3.43398V2.11111H3.65621V2.61111ZM4.23398 5.58333H4.05621V5.08333H4.23398V5.58333ZM3.03398 5.58333H2.85621V5.08333H3.03398V5.58333ZM4.83398 8.97222H4.52287V9.33333H4.38954V9.77778H4.18954V10.1944H3.92287V9.77778H3.72287V9.33333H3.5451V8.97222H3.81176V8.55556H3.3451V8.83333H3.05621V9.30556H2.81176V9.83333H2.98954V10.2222H3.1451V10.5833H3.27843V10.9722H3.47843V11.3056H3.63398V11.6111H3.83398V12H4.12287V11.5833H4.32287V11.1944H4.47843V10.9444H4.83398V10.3056H4.47843V9.75H4.83398V8.97222Z" fill="white"/>
<path d="M2.34505 0.5V1.38889H2.52282V0.5H3.23394V0.888889H3.05616V1.27778H2.78949V1.72222H2.61171V2.08333H2.25616V1.72222H2.07838V1.27778H1.81171V0.888889H1.63394V0.5H2.34505ZM2.3006 8.11111V7.80556H2.16727V7.44445H2.01171V7.05556H1.83394V6.66667H1.65616V6.38889H1.45616V6H1.18949V6.38889H0.989491V6.66667H0.833935V7.05556H0.656158V7.44445H0.522824V7.80556H0.389491V8.27778H0.0339355V7.05556H0.389491V6.5H0.0339355V5.58333H0.389491V5.97222H0.611713V6.36111H0.833935V5.97222H1.05616V5.58333H1.23394V5.08333H1.05616V4.69444H0.833935V4.30556H0.611713V4.69444H0.389491V5.08333H0.0339355V3.94444H0.389491V3.41667H0.0339355V2.63889H0.389491V3H0.567269V3.44444H0.811713V3.80556H1.01171V4.22222H1.16727V4.55556H1.47838V4.22222H1.63394V3.80556H1.83394V3.44444H2.07838V3H2.25616V2.63889H2.61171V3H2.78949V3.44444H3.03394V3.80556H3.23394V4.22222H3.38949V4.55556H3.7006V4.22222H3.85616V3.80556H4.05616V3.44444H4.3006V3H4.47838V2.63889H4.83394V3.41667H4.47838V3.94444H4.83394V5.08333H4.47838V4.69444H4.25616V4.30556H4.03394V4.69444H3.81171V5.08333H3.63394V5.58333H3.81171V5.97222H4.03394V6.36111H4.25616V5.97222H4.47838V5.58333H4.83394V6.5H4.47838V7.05556H4.83394V8.27778H4.47838V7.80556H4.34505V7.44445H4.21171V7.05556H4.03394V6.66667H3.87838V6.38889H3.67838V6H3.41171V6.38889H3.21171V6.66667H3.03394V7.05556H2.85616V7.44445H2.7006V7.80556H2.56727V8.11111H2.3006ZM2.34505 3.47222V4.22222H2.52282V3.47222H2.34505ZM2.25616 5.08333V4.69444H2.03394V4.30556H1.81171V4.69444H1.58949V5.08333H1.41171V5.58333H1.58949V5.97222H1.81171V6.36111H2.03394V5.97222H2.25616V5.58333H2.61171V5.97222H2.83394V6.36111H3.05616V5.97222H3.27838V5.58333H3.45616V5.08333H3.27838V4.69444H3.05616V4.30556H2.83394V4.69444H2.61171V5.08333H2.25616ZM2.34505 6.36111V7.11111H2.52282V6.36111H2.34505Z" fill="white"/>
<path d="M1.01171 25.5V25.1111H0.811713V24.7222H0.567269V24.2778H0.389491V23.9167H0.0339355V24.8333H0.389491V25.3333H0.0339355V25.5H1.01171ZM1.58949 23.3611V22.9444H1.41171V22.6111H1.23394V22.9444H1.05616V23.3611H0.87838V23.9167H1.05616V24.3333H1.23394V24.6667H1.41171V24.3333H1.58949V23.9167H1.76727V23.3611H1.58949ZM1.21171 23.3889H1.43394V23.8889H1.21171V23.3889ZM0.633936 20.4167H0.811713V20.9167H0.633936V20.4167ZM1.83394 20.4167H2.01171V20.9167H1.83394V20.4167ZM0.0339355 17.0278H0.345047V16.6667H0.47838V16.2222H0.67838V15.8056H0.945047V16.2222H1.14505V16.6667H1.32282V17.0278H1.05616V17.4444H1.52282V17.1667H1.81171V16.6944H2.05616V16.1667H1.87838V15.7778H1.72282V15.4167H1.58949V15.0278H1.38949V14.6944H1.23394V14.3889H1.03394V14H0.745047V14.4167H0.545047V14.8056H0.389491V15.0556H0.0339355V15.6944H0.389491V16.25H0.0339355V17.0278Z" fill="white"/>
<path d="M3.85621 25.5V25.1111H4.05621V24.7222H4.30065V24.2778H4.47843V23.9167H4.83398V24.8333H4.47843V25.3333H4.83398V25.5H3.85621ZM3.27843 23.3611V22.9444H3.45621V22.6111H3.63398V22.9444H3.81176V23.3611H3.98954V23.9167H3.81176V24.3333H3.63398V24.6667H3.45621V24.3333H3.27843V23.9167H3.10065V23.3611H3.27843ZM3.65621 23.3889H3.43398V23.8889H3.65621V23.3889ZM4.23398 20.4167H4.05621V20.9167H4.23398V20.4167ZM3.03398 20.4167H2.85621V20.9167H3.03398V20.4167ZM4.83398 17.0278H4.52287V16.6667H4.38954V16.2222H4.18954V15.8056H3.92287V16.2222H3.72287V16.6667H3.5451V17.0278H3.81176V17.4444H3.3451V17.1667H3.05621V16.6944H2.81176V16.1667H2.98954V15.7778H3.1451V15.4167H3.27843V15.0278H3.47843V14.6944H3.63398V14.3889H3.83398V14H4.12287V14.4167H4.32287V14.8056H4.47843V15.0556H4.83398V15.6944H4.47843V16.25H4.83398V17.0278Z" fill="white"/>
<path d="M2.34505 25.5V24.6111H2.52282V25.5H3.23394V25.1111H3.05616V24.7222H2.78949V24.2778H2.61171V23.9167H2.25616V24.2778H2.07838V24.7222H1.81171V25.1111H1.63394V25.5H2.34505ZM2.3006 17.8889V18.1944H2.16727V18.5556H2.01171V18.9444H1.83394V19.3333H1.65616V19.6111H1.45616V20H1.18949V19.6111H0.989491V19.3333H0.833935V18.9444H0.656158V18.5556H0.522824V18.1944H0.389491V17.7222H0.0339355V18.9444H0.389491V19.5H0.0339355V20.4167H0.389491V20.0278H0.611713V19.6389H0.833935V20.0278H1.05616V20.4167H1.23394V20.9167H1.05616V21.3056H0.833935V21.6944H0.611713V21.3056H0.389491V20.9167H0.0339355V22.0556H0.389491V22.5833H0.0339355V23.3611H0.389491V23H0.567269V22.5556H0.811713V22.1944H1.01171V21.7778H1.16727V21.4444H1.47838V21.7778H1.63394V22.1944H1.83394V22.5556H2.07838V23H2.25616V23.3611H2.61171V23H2.78949V22.5556H3.03394V22.1944H3.23394V21.7778H3.38949V21.4444H3.7006V21.7778H3.85616V22.1944H4.05616V22.5556H4.3006V23H4.47838V23.3611H4.83394V22.5833H4.47838V22.0556H4.83394V20.9167H4.47838V21.3056H4.25616V21.6944H4.03394V21.3056H3.81171V20.9167H3.63394V20.4167H3.81171V20.0278H4.03394V19.6389H4.25616V20.0278H4.47838V20.4167H4.83394V19.5H4.47838V18.9444H4.83394V17.7222H4.47838V18.1944H4.34505V18.5556H4.21171V18.9444H4.03394V19.3333H3.87838V19.6111H3.67838V20H3.41171V19.6111H3.21171V19.3333H3.03394V18.9444H2.85616V18.5556H2.7006V18.1944H2.56727V17.8889H2.3006ZM2.34505 22.5278V21.7778H2.52282V22.5278H2.34505ZM2.25616 20.9167V21.3056H2.03394V21.6944H1.81171V21.3056H1.58949V20.9167H1.41171V20.4167H1.58949V20.0278H1.81171V19.6389H2.03394V20.0278H2.25616V20.4167H2.61171V20.0278H2.83394V19.6389H3.05616V20.0278H3.27838V20.4167H3.45616V20.9167H3.27838V21.3056H3.05616V21.6944H2.83394V21.3056H2.61171V20.9167H2.25616ZM2.34505 19.6389V18.8889H2.52282V19.6389H2.34505Z" fill="white"/>
<path d="M0.0339355 11.8333H0.389491V12.2222H0.545047V12.4444H0.722824V12.8333H0.87838V13.1667H0.722824V13.5555H0.545047V13.7778H0.389491V14.1667H0.0339355V11.8333ZM4.83394 11.8333V14.1667H4.47838V13.7778H4.32282V13.5555H4.14505V13.1667H3.98949V12.8333H4.14505V12.4444H4.32282V12.2222H4.47838V11.8333H4.83394ZM1.58949 13.25H1.76727V12.75H1.58949V13.25ZM3.27838 13.25V12.75H3.1006V13.25H3.27838ZM2.34505 11.6111H2.52282V11.1111H2.34505V11.6111ZM2.34505 14.3889V14.8889H2.52282V14.3889H2.34505ZM1.23394 12.3055H1.54505V12H1.76727V11.7222H1.87838V11.4444H2.01171V11.0555H2.18949V10.6667H2.27838V10.3055H2.58949V10.6667H2.67838V11.0555H2.85616V11.4444H2.98949V11.7222H3.1006V12H3.32282V12.3055H3.63394V13.6944H3.32282V14H3.1006V14.2778H2.98949V14.5555H2.85616V14.9444H2.67838V15.3333H2.58949V15.6944H2.27838V15.3333H2.18949V14.9444H2.01171V14.5555H1.87838V14.2778H1.76727V14H1.54505V13.6944H1.23394V12.3055ZM2.34505 12.5555V12.1389H2.16727V11.8611H1.98949V12.5555H2.16727V12.8055H2.27838V13.1944H2.16727V13.4444H1.98949V14.1389H2.16727V13.8611H2.34505V13.4444H2.52282V13.8611H2.7006V14.1389H2.87838V13.4444H2.7006V13.1944H2.58949V12.8055H2.7006V12.5555H2.87838V11.8611H2.7006V12.1389H2.52282V12.5555H2.34505Z" fill="white"/>
</g>
</svg>
