<svg width="18" height="19" viewBox="0 0 18 19" fill="none" xmlns="http://www.w3.org/2000/svg">
<g clip-path="url(#clip0_70_35)">
<path d="M15 7.01154H8.25C7.42157 7.01154 6.75 7.68311 6.75 8.51154V15.2615C6.75 16.09 7.42157 16.7615 8.25 16.7615H15C15.8284 16.7615 16.5 16.09 16.5 15.2615V8.51154C16.5 7.68311 15.8284 7.01154 15 7.01154Z" stroke="black" stroke-width="2" stroke-linecap="round" stroke-linejoin="round"/>
<path d="M3.75 11.5115H3C2.60218 11.5115 2.22064 11.3535 1.93934 11.0722C1.65804 10.7909 1.5 10.4094 1.5 10.0115V3.26154C1.5 2.86371 1.65804 2.48218 1.93934 2.20088C2.22064 1.91957 2.60218 1.76154 3 1.76154H9.75C10.1478 1.76154 10.5294 1.91957 10.8107 2.20088C11.092 2.48218 11.25 2.86371 11.25 3.26154V4.01154" stroke="black" stroke-width="2" stroke-linecap="round" stroke-linejoin="round"/>
</g>
<defs>
<clipPath id="clip0_70_35">
<rect width="18" height="18" fill="white" transform="translate(0 0.261536)"/>
</clipPath>
</defs>
</svg>
