<svg width="50" height="50" viewBox="0 0 50 50" fill="none" xmlns="http://www.w3.org/2000/svg">
<path d="M49.2308 9H0V40.2615H49.2308V9Z" fill="#284999"/>
<path d="M26.2 13.9486L25.05 13.7857L24.5346 12.7587L24.023 13.7857L22.873 13.9486L23.7038 14.7482L23.5077 15.8774L24.5346 15.3431L25.5654 15.8774L25.3692 14.7482L26.2 13.9486Z" fill="#FFC943"/>
<path d="M26.2 33.5092L25.05 33.3463L24.5346 32.3194L24.023 33.3463L22.873 33.5092L23.7038 34.3088L23.5077 35.438L24.5346 34.9037L25.5654 35.438L25.3692 34.3088L26.2 33.5092Z" fill="#FFC943"/>
<path d="M35.3076 25.5554L35.1307 24.4261L35.973 23.6417L34.8307 23.4599L34.3345 22.4254L33.7999 23.4409L32.6499 23.5849L33.4653 24.3996L33.2499 25.5213L34.2884 25.0097L35.3076 25.5554Z" fill="#FFC943"/>
<path d="M15.4502 25.5592L15.2772 24.4261L16.1233 23.6417L14.9772 23.4599L14.481 22.4254L13.9502 23.4409L12.7964 23.5849L13.6156 24.3996L13.3964 25.5213L14.4348 25.0059L15.4502 25.5592Z" fill="#FFC943"/>
<path d="M31.4808 15.5932L30.3269 15.4643L29.7769 14.4564L29.3 15.4984L28.1577 15.7031L29.0154 16.4723L28.8577 17.6053L29.8654 17.0407L30.9116 17.5371L30.6769 16.4192L31.4808 15.5932Z" fill="#FFC943"/>
<path d="M20.7693 31.7889L19.6193 31.6221L19.1078 30.599L18.5924 31.6221L17.4424 31.7851L18.2732 32.5846L18.077 33.7138L19.1039 33.1795L20.1308 33.7138L19.9347 32.5884L20.7693 31.7889Z" fill="#FFC943"/>
<path d="M33.7076 30.3754L33.4768 29.2538L34.2845 28.4315L33.1307 28.2989L32.5845 27.2909L32.1037 28.333L30.9614 28.53L31.8153 29.303L31.6537 30.4361L32.6653 29.8714L33.7076 30.3754Z" fill="#FFC943"/>
<path d="M16.8078 20.5686L16.6232 19.4394L17.4617 18.6474L16.3117 18.4731L15.8078 17.4424L15.2848 18.4655L14.1348 18.6171L14.9578 19.4242L14.754 20.5496L15.7848 20.0267L16.8078 20.5686Z" fill="#FFC943"/>
<path d="M28.2385 33.6343L29.2539 33.081L30.2924 33.5964L30.0731 32.4709L30.8924 31.6562L29.7385 31.516L29.2039 30.4967L28.7116 31.535L27.5654 31.7206L28.4116 32.5012L28.2385 33.6343Z" fill="#FFC943"/>
<path d="M18.1959 16.9573L19.2459 16.4647L20.2498 17.0369L20.0998 15.9039L20.9652 15.1384L19.8229 14.93L19.3536 13.8842L18.7959 14.8883L17.6421 15.0058L18.4382 15.8395L18.1959 16.9573Z" fill="#FFC943"/>
<path d="M34.2923 20.921L34.1116 19.7918L34.9539 19.0036L33.8077 18.8255L33.3039 17.7948L32.777 18.8141L31.627 18.9619L32.45 19.7728L32.2385 20.8983L33.2731 20.3791L34.2923 20.921Z" fill="#FFC943"/>
<path d="M16.8036 30.114L16.6421 28.9809L17.4998 28.2079L16.3536 28.0109L15.8729 26.9688L15.3267 27.9806L14.1729 28.1094L14.9805 28.9317L14.7498 30.0533L15.7959 29.5531L16.8036 30.114Z" fill="#FFC943"/>
</svg>
