<svg width="220" height="171" viewBox="0 0 220 171" fill="none" xmlns="http://www.w3.org/2000/svg">
<path fill-rule="evenodd" clip-rule="evenodd" d="M29.3834 136.637C-2.21315 117.76 35.6286 92.7457 26.3846 62.8348C17.1408 32.9239 -5.25112 -11.674 83.0871 4.21722C172.592 20.3187 229.359 41.0516 215.944 105.272C202.528 169.493 60.9801 155.514 29.3834 136.637Z" fill="#64FCD9"/>
<path fill-rule="evenodd" clip-rule="evenodd" d="M166.526 162.494C164.544 160.793 163.606 158.415 162.731 156.127C160.436 158.987 155.315 159.079 151.798 157.372C148.281 155.665 145.908 152.685 143.383 149.972C138.861 145.116 119.494 133.122 119.176 129.504C119.007 127.585 125.487 124.092 125.487 124.092L113.842 118.191C113.842 118.191 107.803 122.181 104.331 122.655C94.6704 123.975 87.838 123.189 87.8299 124.687C87.8004 130.104 125.86 157.588 113.723 157.372C95.5086 157.049 62.2408 126.518 51.4644 124.092C46.9515 123.075 15.9983 124.687 15.9983 118.234C15.9983 109.568 43.6457 103.606 43.6457 103.606C43.6457 103.606 36.4401 82.6803 45.1615 65.5684C47.1588 61.6492 49.6318 57.0958 49.8726 53.2454C49.9387 52.1889 84.8064 23.7465 89.2859 22.3256C99.73 19.0127 110.839 17.2617 121.969 17.1747C123.453 17.1632 165.757 22.3256 184.78 49.3668C188.218 54.254 203.835 90.546 187.979 113.312C185.477 116.904 185.784 121.361 187.513 125.315C189.243 129.269 191.37 133.667 189.409 137.541C188.339 131.335 186.46 125.232 183.817 119.386C180.133 121.692 181.998 126.656 184.195 130.093C186.963 134.424 189.732 138.756 192.5 143.087C193.651 144.888 194.841 146.873 194.427 148.898C193.953 151.214 191.558 152.815 189.338 154.185C184.272 157.311 179.205 160.438 174.139 163.565C171.865 164.968 168.507 164.196 166.526 162.494Z" fill="white"/>
<path fill-rule="evenodd" clip-rule="evenodd" d="M98.0844 66.6578C98.4727 65.7535 99.8695 65.3797 100.9 65.7568C101.931 66.1337 102.571 67.0765 102.732 68.0305C102.893 68.9848 102.648 69.9546 102.333 70.8799C102.045 71.7235 101.698 72.5524 101.294 73.36C101.256 73.4349 101.206 73.5188 101.114 73.5367C101.015 73.5558 100.924 73.4897 100.853 73.4279C99.1017 71.9 98.046 69.7955 97.9541 67.65C97.9401 67.3154 97.9499 66.9722 98.0844 66.6578ZM101.112 66.8788C100.825 66.6666 100.453 66.5275 100.075 66.5375C99.1922 66.5605 98.5758 67.3902 98.5955 68.1509C98.6152 68.9118 99.0859 69.6024 99.5425 70.2535C99.8695 70.7201 100.197 71.1867 100.524 71.6532C100.635 71.8121 100.854 71.9937 101.028 71.8833C101.098 71.839 101.125 71.7611 101.148 71.689C101.282 71.2652 101.416 70.8414 101.55 70.4175C101.741 69.8115 101.934 69.1958 101.922 68.568C101.91 67.9402 101.666 67.2875 101.112 66.8788Z" fill="#FFB61D"/>
<path fill-rule="evenodd" clip-rule="evenodd" d="M100.534 69.3132C100.319 69.3654 100.084 69.3557 99.8758 69.2856C99.472 69.1501 99.1929 68.7773 99.2161 68.4044C99.2397 68.0312 99.5639 67.6865 99.9825 67.5892C100.617 67.4419 101.331 67.9451 101.289 68.5099C101.262 68.8764 100.945 69.2138 100.534 69.3132Z" fill="#FFB61D"/>
<path fill-rule="evenodd" clip-rule="evenodd" d="M112.097 157.983C112.821 158.065 112.554 159.033 112.084 159.515C107.595 164.118 101.733 167.72 95.2182 169.879C93.7574 170.363 92.2461 170.779 90.6846 170.871C87.7885 171.043 84.9037 170.069 82.6134 168.533C80.3235 166.997 78.5782 164.932 77.156 162.752C73.2673 156.793 71.6367 149.76 72.5703 142.971C72.6583 142.332 73.1641 141.485 73.8478 141.744C73.6496 144.014 73.6189 146.294 73.7559 148.567C73.8903 150.8 74.1896 153.039 74.9341 155.181C75.6234 157.164 76.684 159.035 77.7897 160.873C78.926 162.762 80.1306 164.645 81.7717 166.236C83.4132 167.826 85.5437 169.118 87.9673 169.531C91.006 170.048 94.1245 169.146 96.9259 168.009C102.736 165.65 107.948 162.205 112.097 157.983Z" fill="#00160A"/>
<path fill-rule="evenodd" clip-rule="evenodd" d="M133.117 132.114C138.393 127.643 143.67 123.173 148.946 118.702C149.241 118.452 149.679 118.185 150.028 118.377C150.494 118.633 150.121 119.249 149.728 119.584C144.049 124.421 138.37 129.257 132.691 134.094C132.282 133.915 132.163 133.433 132.307 133.058C132.451 132.683 132.79 132.391 133.117 132.114Z" fill="#00160A"/>
<path fill-rule="evenodd" clip-rule="evenodd" d="M92.7234 106.403C92.402 106.45 92.0803 106.498 91.7585 106.546C91.134 105.739 90.4951 104.902 90.2994 103.947C90.1033 102.992 90.4701 101.881 91.4544 101.41C92.5678 100.877 92.9036 99.5661 92.5488 98.5123C92.194 97.4585 91.3153 96.6045 90.4543 95.796C89.5802 94.9745 88.1781 94.1023 87.14 94.7677C86.4634 95.2015 85.4507 94.9563 84.8452 94.4506C84.2397 93.9449 83.9194 93.2462 83.5276 92.6029C82.7866 91.3857 81.7062 90.2877 80.2928 89.6495C78.8795 89.0114 77.1106 88.885 75.6881 89.5076C74.2768 90.1255 73.3865 91.3548 72.1837 92.2412C70.9808 93.1273 68.9944 93.5981 67.9105 92.6044C67.6349 92.3519 67.4501 91.9769 67.6067 91.6576C67.7634 91.3384 68.3713 91.2284 68.5656 91.5321C69.0602 92.3061 70.4274 92.2949 71.2822 91.8068C72.1372 91.3184 72.6723 90.5202 73.3735 89.8754C74.7453 88.6146 76.8307 87.9579 78.8235 88.1598C80.8163 88.3614 82.6679 89.4161 83.6631 90.9167C84.1425 91.6397 84.4382 92.4619 85.0641 93.0964C85.6904 93.7309 86.8281 94.1196 87.6311 93.656C88.5382 93.1325 89.7217 93.7831 90.5176 94.427C91.5952 95.2982 92.6449 96.2401 93.2514 97.4006C93.8583 98.5611 93.9544 99.9893 93.1617 101.063C92.5016 101.957 91.2386 102.682 91.3481 103.737C91.4501 104.721 92.7649 105.415 92.7234 106.403Z" fill="#00160A"/>
<path fill-rule="evenodd" clip-rule="evenodd" d="M106.652 62.0913C108.584 62.8704 110.302 64.1161 111.295 65.7416C112.288 67.3671 112.49 69.3861 111.6 71.0553C109.758 74.5082 103.902 75.8524 103.256 79.6113C103.091 80.5686 103.315 81.5642 103.041 82.5025C102.851 83.1509 102.435 83.7299 102.102 84.3344C101.388 85.631 101.052 87.0798 101.13 88.5131C100.386 88.8599 99.5104 88.1211 99.4153 87.3966C99.3203 86.6724 99.6568 85.9533 99.6389 85.2245C99.6051 83.8545 98.3744 82.7641 97.3247 81.7343C95.7504 80.1897 94.3825 78.3713 94.1266 76.3278C94.0442 75.6693 94.0791 74.9978 93.9073 74.3524C93.7221 73.6582 93.3078 73.0288 92.942 72.3901C91.9546 70.6679 91.2865 68.6801 91.8941 66.8317C92.502 64.9837 94.768 63.4549 96.9188 63.9636C97.5296 64.1079 98.1273 64.4032 98.7542 64.3225C99.8547 64.1812 100.299 63.0505 101.066 62.3562C102.441 61.1121 104.845 61.3631 106.652 62.0913ZM97.2983 80.0508C98.518 81.4326 99.7374 82.8147 100.957 84.1965C102.356 82.9281 101.777 80.876 102.203 79.1653C102.782 76.835 105.203 75.2531 107.3 73.6982C109.397 72.1433 111.479 70.0161 111.008 67.6675C110.63 65.7807 108.717 64.4398 106.884 63.356C105.851 62.7452 104.658 62.131 103.425 62.3271C102.178 62.5257 101.324 63.4773 100.426 64.2479C99.5283 65.0183 98.1741 65.6873 97.0501 65.1826C95.4685 64.4723 93.4549 65.6843 93.0086 67.1716C92.5622 68.6588 93.2039 70.2149 93.9083 71.6264C94.6131 73.0376 95.4076 74.5007 95.2738 76.0325C95.1436 77.5231 96.2479 78.8609 97.2983 80.0508Z" fill="#00160A"/>
<path fill-rule="evenodd" clip-rule="evenodd" d="M0.0107811 48.309C-0.0683884 48.1244 0.307745 48.0722 0.509418 48.1653C0.500723 48.3572 0.15775 48.4545 0.0183494 48.3041L0.0107811 48.309Z" fill="#00160A"/>
<path fill-rule="evenodd" clip-rule="evenodd" d="M146.298 123.989C146.712 124.038 146.932 124.477 146.838 124.828C146.744 125.179 146.437 125.454 146.143 125.71C143.766 127.779 141.389 129.848 139.012 131.917C138.837 132.07 138.63 132.234 138.381 132.227C138.045 132.218 137.826 131.884 137.867 131.597C137.908 131.31 138.127 131.069 138.339 130.845C140.525 128.542 142.897 126.37 145.432 124.35C145.676 124.156 145.969 123.949 146.298 123.989Z" fill="#00160A"/>
<path fill-rule="evenodd" clip-rule="evenodd" d="M76.4045 94.0649C77.714 94.1671 78.7211 95.2269 78.946 96.3429C79.1706 97.4588 78.7669 98.5995 78.2191 99.6291C77.9171 100.196 77.5703 100.746 77.1814 101.272C76.9019 101.651 76.5456 102.049 76.0313 102.123C75.1727 102.245 74.5697 101.431 74.2385 100.738C73.772 99.7628 73.3443 98.7736 72.9557 97.7731C72.7649 97.282 72.5815 96.7648 72.679 96.2537C72.8279 95.4725 73.5992 94.888 74.4071 94.51C75.0203 94.2229 75.7096 94.011 76.4045 94.0649ZM75.1741 99.8107C75.2745 99.9456 75.3815 100.084 75.5392 100.17C75.668 100.24 75.8264 100.269 75.9778 100.251C76.3671 100.204 76.6174 99.8813 76.8163 99.5894C77.337 98.8248 77.8717 98.0226 77.9301 97.1377C77.9885 96.2528 77.4049 95.2685 76.3978 95.086C75.2195 94.8726 74.1216 95.8893 74.0216 96.9228C73.9216 97.9563 74.5239 98.9379 75.1741 99.8107Z" fill="#FFB61D"/>
<path fill-rule="evenodd" clip-rule="evenodd" d="M76.3483 96.1618C76.6714 96.2515 76.9502 96.4549 77.1065 96.7147C77.2456 96.9457 77.2875 97.2195 77.2227 97.4738C77.0731 98.061 76.3022 98.4709 75.6252 98.3233C74.9483 98.1756 74.4973 97.4987 74.6906 96.9212C74.8839 96.3434 75.6837 95.9769 76.3483 96.1618ZM76.1983 97.3808C76.4447 97.2692 76.2247 96.8624 75.9667 96.953C75.7667 96.9757 75.6347 97.1922 75.7259 97.3471C75.8171 97.5017 76.0983 97.5375 76.2374 97.412L76.1983 97.3808Z" fill="#FFB61D"/>
<path fill-rule="evenodd" clip-rule="evenodd" d="M145.662 107.279C144.932 106.599 144.275 105.862 143.704 105.078C143.522 104.827 143.9 104.501 144.241 104.54C144.581 104.579 144.832 104.825 145.049 105.054C145.805 105.853 146.562 106.652 147.318 107.451C147.231 107.736 146.813 107.865 146.483 107.79C146.152 107.714 145.894 107.495 145.662 107.279Z" fill="#00160A"/>
<path fill-rule="evenodd" clip-rule="evenodd" d="M170.588 144.303C170.596 144.397 170.556 144.488 170.515 144.574C170.099 145.445 169.481 146.244 168.707 146.909C167.476 147.968 165.808 148.752 165.148 150.139C164.992 150.467 164.41 150.515 164.107 150.274C163.804 150.033 163.763 149.62 163.897 149.285C164.031 148.949 164.308 148.673 164.579 148.405C165.461 147.534 166.344 146.662 167.226 145.791C167.902 145.123 168.608 144.436 169.545 144.069C169.931 143.919 170.555 143.94 170.588 144.303Z" fill="#00160A"/>
<path fill-rule="evenodd" clip-rule="evenodd" d="M146.562 103.65C147.433 104.532 148.303 105.413 149.175 106.295C149.321 106.443 149.476 106.611 149.466 106.805C149.45 107.107 149.02 107.287 148.678 107.217C148.337 107.146 148.079 106.912 147.85 106.683C147.112 105.946 146.451 105.151 145.878 104.312C145.654 103.985 145.567 103.413 146.004 103.365C146.228 103.34 146.415 103.502 146.562 103.65Z" fill="#00160A"/>
<path fill-rule="evenodd" clip-rule="evenodd" d="M136.53 108.563C136.397 108.403 136.26 108.194 136.372 108.023C136.557 107.74 137.059 107.959 137.309 108.202C138.194 109.062 138.947 110.022 139.543 111.049C138.975 111.297 138.372 110.793 138.003 110.347C137.512 109.752 137.021 109.158 136.53 108.563Z" fill="#00160A"/>
<path fill-rule="evenodd" clip-rule="evenodd" d="M137.314 111.094C137.669 111.412 138.027 111.933 137.658 112.238C137.283 112.548 136.682 112.198 136.35 111.853C135.547 111.019 134.85 110.11 134.272 109.147C134.643 108.873 135.192 109.192 135.53 109.495C136.125 110.028 136.719 110.561 137.314 111.094Z" fill="#00160A"/>
<path fill-rule="evenodd" clip-rule="evenodd" d="M138.28 107.969C138.12 107.766 137.969 107.487 138.143 107.292C138.391 107.014 138.896 107.27 139.173 107.526C139.979 108.27 140.785 109.014 141.591 109.758C141.555 110.027 141.189 110.188 140.878 110.148C140.567 110.108 140.308 109.928 140.076 109.746C139.398 109.218 138.794 108.62 138.28 107.969Z" fill="#00160A"/>
<path fill-rule="evenodd" clip-rule="evenodd" d="M143.361 106.319C143.863 106.87 144.364 107.422 144.866 107.973C145.065 108.192 145.275 108.473 145.145 108.727C145.02 108.972 144.625 109.036 144.339 108.931C144.053 108.826 143.853 108.603 143.667 108.389C143.143 107.787 142.624 107.181 142.11 106.573C141.996 106.438 141.878 106.288 141.895 106.122C141.923 105.846 142.333 105.703 142.639 105.787C142.946 105.872 143.162 106.101 143.361 106.319Z" fill="#00160A"/>
<path fill-rule="evenodd" clip-rule="evenodd" d="M142.982 108.862C143.087 108.96 143.198 109.073 143.186 109.206C143.172 109.382 142.931 109.491 142.729 109.465C142.526 109.439 142.358 109.319 142.206 109.201C141.204 108.426 140.36 107.499 139.722 106.477C139.848 106.196 140.341 106.387 140.577 106.609C141.379 107.36 142.181 108.111 142.982 108.862Z" fill="#00160A"/>
<path fill-rule="evenodd" clip-rule="evenodd" d="M152.71 103.89C152.788 103.968 152.87 104.056 152.865 104.159C152.858 104.313 152.644 104.41 152.467 104.384C152.29 104.358 152.147 104.249 152.015 104.144C151.072 103.393 150.17 102.605 149.312 101.782C149.616 101.431 150.256 101.712 150.623 102.013C151.353 102.61 152.049 103.237 152.71 103.89Z" fill="#00160A"/>
<path fill-rule="evenodd" clip-rule="evenodd" d="M149.722 104.639C149.194 104.017 148.667 103.396 148.14 102.774C148.043 102.66 147.941 102.521 147.993 102.387C148.095 102.123 148.56 102.241 148.81 102.416C149.603 102.974 150.276 103.657 150.785 104.422C150.884 104.57 150.979 104.746 150.909 104.906C150.82 105.109 150.496 105.169 150.264 105.084C150.031 104.999 149.871 104.815 149.722 104.639Z" fill="#00160A"/>
<path fill-rule="evenodd" clip-rule="evenodd" d="M153.93 102.354C153.409 101.871 152.888 101.389 152.367 100.907C152.182 100.735 152.406 100.43 152.677 100.404C152.948 100.38 153.196 100.527 153.411 100.672C153.806 100.937 154.187 101.219 154.553 101.514C154.755 101.678 154.96 101.857 155.036 102.086C155.112 102.316 155.008 102.608 154.746 102.686C154.444 102.775 154.147 102.555 153.93 102.354Z" fill="#00160A"/>
<path fill-rule="evenodd" clip-rule="evenodd" d="M152.919 103.309C152.198 102.672 151.508 102.009 150.85 101.324C150.735 101.205 150.614 101.058 150.663 100.908C150.718 100.74 150.974 100.674 151.166 100.731C151.358 100.787 151.499 100.926 151.63 101.06C152.233 101.674 152.835 102.288 153.438 102.902C153.601 103.068 153.762 103.33 153.576 103.478C153.39 103.627 153.097 103.466 152.919 103.309Z" fill="#00160A"/>
<path fill-rule="evenodd" clip-rule="evenodd" d="M187.219 142.673C188.032 142.457 190.093 141.976 190.907 141.759C191.271 141.662 191.813 141.65 191.882 141.973C191.938 142.24 191.583 142.421 191.285 142.507C190.463 142.745 188.366 143.175 187.506 143.265C187.199 143.296 186.754 143.198 186.816 142.938C186.852 142.788 187.049 142.718 187.219 142.673Z" fill="#00160A"/>
<path fill-rule="evenodd" clip-rule="evenodd" d="M96.2859 113.363C97.5743 113.379 99.0975 113.637 99.6115 114.655C100.094 115.61 99.3352 116.76 98.2706 117.256C97.2061 117.752 95.9381 117.764 94.7279 117.763C78.2146 117.744 61.702 117.401 45.2066 116.733C44.1787 116.691 44.0816 115.414 44.3164 114.552C44.4565 114.036 44.6142 113.494 45.0454 113.117C45.666 112.576 46.6503 112.539 47.5338 112.536C59.392 112.503 71.2717 112.471 83.0799 113.411C84.9502 113.56 86.8226 113.733 88.7006 113.717C91.2334 113.696 93.7532 113.331 96.2859 113.363ZM98.1351 115.944C98.4118 115.479 98.0045 114.888 97.4508 114.674C96.8971 114.461 96.2602 114.516 95.6565 114.567C87.9156 115.223 80.1218 114.466 72.357 114.075C66.713 113.791 61.0585 113.701 55.4061 113.61C53.0497 113.573 50.6932 113.535 48.3368 113.497C47.5852 113.485 46.7615 113.494 46.1842 113.908C45.6065 114.323 45.5872 115.3 46.3039 115.496C46.4334 115.531 46.5711 115.537 46.7069 115.543C63.297 116.237 79.9085 116.549 96.5179 116.477C97.1269 116.475 97.8574 116.411 98.1351 115.944Z" fill="#00160A"/>
<path fill-rule="evenodd" clip-rule="evenodd" d="M85.7435 124.858C87.216 127.634 90.3884 129.689 93.8938 130.137C95.543 130.349 96.6691 131.641 97.6083 132.827C98.5845 134.06 99.3005 136.15 97.6868 136.695C103.95 142.642 110.212 148.59 116.475 154.537C117.203 155.228 117.909 156.381 117.066 156.966C116.753 157.184 116.323 157.218 115.921 157.229C110.762 157.378 105.893 155.299 101.427 153.067C94.997 149.854 88.8557 146.212 83.0758 142.185C78.8534 139.243 72.787 138.401 67.7052 140.053C65.0689 140.909 61.7638 139.163 61.4561 136.751C61.1484 134.339 63.9343 132.016 66.7238 132.359C62.5301 127 55.0296 123.689 47.5291 123.884C38.4765 124.12 29.3874 123.302 20.5868 121.459C19.8138 121.297 18.9837 121.095 18.499 120.552C17.532 119.469 18.5462 117.93 19.6089 116.915C27.4382 109.443 39.4847 105.412 51.1183 106.372C51.614 106.413 51.8836 105.894 51.9998 105.477C54.9571 94.8635 57.9144 84.2497 60.8714 73.6359C61.228 72.3563 63.4901 72.1793 64.6109 73.0739C65.7318 73.9688 65.9782 75.3954 66.1074 76.7069C67.0705 86.4831 65.3885 97.008 71.0318 105.531C71.2947 105.928 71.5915 106.335 72.0534 106.56C72.5082 106.782 73.0559 106.796 73.579 106.804C84.0277 106.963 94.4764 107.123 104.925 107.282C106.227 107.302 107.825 107.169 108.351 106.143C109.699 103.514 111.047 100.886 112.394 98.2573C112.823 97.4212 113.414 96.4723 114.464 96.3347C115.967 96.1374 116.918 97.7632 116.869 99.0716C116.82 100.38 116.309 101.771 116.979 102.946C119.433 100.7 121.93 98.4235 124.999 96.8328C128.069 95.2421 131.839 94.3969 135.281 95.2518C132.238 99.4184 129.195 103.585 126.152 107.752C128.694 109.2 128.894 112.863 126.522 114.511C125.509 115.214 126.312 116.603 127.151 117.459C129.78 120.142 132.409 122.826 135.038 125.509C132.794 126.405 130.181 125.483 127.975 124.52C124.032 122.8 120.183 120.92 116.445 118.888C114.631 117.902 112.632 119.75 110.985 120.935C108.372 122.814 104.764 123.189 101.376 123.486C96.1654 123.943 90.9544 124.401 85.7435 124.858ZM94.833 119.025C98.0343 119.176 101.296 119.367 104.403 118.684C107.584 117.984 110.478 116.355 112.499 114.127C112.99 113.586 113.85 113.433 114.635 113.316C117.348 112.914 120.204 112.521 122.795 113.321C123.964 113.681 125.39 113.268 126.069 112.373C126.748 111.478 126.614 110.187 125.761 109.41C124.838 109.389 124.669 110.517 124.18 111.191C123.536 112.077 122.133 112.222 120.921 112.274C116.475 112.467 112.029 112.659 107.582 112.852C106.503 112.899 105.016 112.628 105.048 111.697C105.062 111.288 105.41 110.95 105.75 110.664C106.944 109.66 108.306 108.806 109.782 108.136C91.7285 108.254 73.6727 108.079 55.627 107.611C46.7533 107.382 37.2906 107.208 29.7295 111.214C29.0237 111.588 28.4717 112.691 29.2905 112.8C31.7026 113.12 34.1146 113.441 36.5267 113.761C36.8139 113.8 37.1213 113.846 37.3293 114.021C37.9524 114.545 37.0794 115.388 36.2764 115.679C32.9628 116.88 29.0149 116.697 25.8707 115.196C25.1582 114.856 24.3126 114.443 23.5867 114.761C22.7099 115.146 22.8303 116.36 23.5741 116.915C24.3183 117.47 25.3778 117.548 26.36 117.6C35.1851 118.069 44.0103 118.538 52.8351 119.007C55.3158 119.139 57.8043 119.271 60.2846 119.137C71.7851 118.52 83.3275 118.483 94.833 119.025ZM107.715 148.488C104.627 144.828 101.108 141.437 97.2313 138.384C95.9619 137.384 94.8439 136.253 93.7294 135.124C88.8564 130.191 83.9837 125.257 79.1107 120.324C78.6242 119.831 77.7832 119.767 77.0327 119.746C70.6326 119.572 64.2114 119.981 57.9109 120.966C57.4452 121.039 56.9425 121.133 56.6348 121.443C55.9216 122.161 56.813 123.212 57.649 123.825C66.0144 129.959 74.6875 135.782 83.6356 141.272C85.2823 142.283 86.9537 143.29 88.8134 143.974C92.322 145.264 95.8306 146.554 99.3389 147.844C102.023 148.832 105.223 149.797 107.715 148.488ZM65.8177 94.0186C65.6888 92.5771 65.6881 91.1107 65.228 89.7208C64.3994 87.2164 62.1901 85.2498 59.991 83.4627C59.8203 83.3242 59.5953 83.175 59.375 83.2445C59.1743 83.3075 59.1018 83.5146 59.056 83.694C57.417 90.1218 55.778 96.5497 54.139 102.977C53.8299 104.191 53.5187 105.421 53.5856 106.661C59.3317 106.724 65.0777 106.786 70.8241 106.848C67.9611 103.015 66.2239 98.5632 65.8177 94.0186ZM133.332 96.1531C129.763 95.8903 126.087 97.0202 123.517 99.1695C118.811 103.106 113.784 106.76 108.487 110.095C107.762 110.551 106.985 111.057 106.739 111.801C111.177 111.629 115.615 111.456 120.052 111.284C121.223 111.238 122.6 111.087 123.16 110.201C126.222 105.35 129.621 100.656 133.332 96.1531ZM19.4234 118.911C19.3027 119.134 19.1953 119.382 19.2625 119.621C19.3812 120.043 19.9542 120.219 20.445 120.322C30.3674 122.395 40.6615 122.662 50.8677 122.919C51.8833 122.945 52.9369 122.965 53.8694 122.617C54.8019 122.27 55.577 121.444 55.4253 120.579C48.7911 119.787 42.095 119.381 35.3974 119.365C31.3851 119.356 27.2587 119.47 23.4973 118.268C22.5898 117.978 21.563 117.396 21.6784 116.569C20.7121 117.167 19.9278 117.982 19.4234 118.911ZM114.041 117.368C113.685 116.703 112.682 116.456 111.85 116.61C111.019 116.763 110.312 117.217 109.615 117.637C108.005 118.605 106.265 119.459 104.354 119.848C102.689 120.188 100.956 120.164 99.2445 120.138C92.9968 120.043 86.7492 119.947 80.5015 119.852C81.8927 121.64 83.7996 123.648 86.2838 123.413C91.1435 122.954 96.0661 123.063 100.903 122.449C105.739 121.834 110.64 120.392 114.041 117.368ZM128.496 121.97C128.723 121.944 128.988 121.878 129.06 121.691C129.119 121.533 129.01 121.368 128.903 121.23C127.104 118.898 124.887 116.831 122.681 114.774C122.345 114.461 121.994 114.138 121.537 113.972C121.063 113.801 120.53 113.817 120.018 113.85C117.926 113.985 115.854 114.353 113.869 114.941C113.707 114.989 113.519 115.066 113.5 115.213C113.486 115.327 113.585 115.426 113.678 115.508C115.763 117.333 118.372 118.637 120.946 119.919C123.275 121.079 125.83 122.28 128.496 121.97ZM69.1664 133.696C68.9721 133.566 68.7651 133.432 68.5212 133.405C68.3233 133.382 68.1255 133.434 67.9351 133.485C67.494 133.603 67.0529 133.721 66.6122 133.838C66.1799 133.954 65.6402 134.296 65.8895 134.621C66.6671 135.636 66.9828 136.905 66.7554 138.104C66.6819 138.493 67.3317 138.633 67.7883 138.605C70.1489 138.461 72.5092 138.318 74.8699 138.174C75.1159 138.159 75.4482 138.052 75.3909 137.845C73.3161 136.462 71.2412 135.079 69.1664 133.696ZM109.613 106.204C109.447 106.577 109.889 106.983 110.351 107.024C110.813 107.065 111.252 106.864 111.658 106.67C113.121 105.969 114.698 105.154 115.251 103.794C115.431 103.35 115.486 102.878 115.541 102.41C115.634 101.608 115.727 100.806 115.82 100.004C115.841 99.8262 115.857 99.6334 115.748 99.4812C115.638 99.329 115.348 99.2674 115.227 99.4127C114.736 99.9996 114.016 100.442 113.211 100.649C112.863 100.739 112.489 100.79 112.196 100.975C111.847 101.195 111.675 101.562 111.52 101.91C110.884 103.342 110.249 104.772 109.613 106.204ZM95.0685 131.905C94.4313 130.882 92.6755 130.538 91.5867 131.224C92.9902 132.168 93.7819 133.625 94.9731 134.766C95.3829 135.158 95.9158 135.538 96.5276 135.503C97.1394 135.468 97.6449 134.765 97.2116 134.391C96.3611 133.659 95.6367 132.818 95.0685 131.905ZM63.8639 134.697C62.9163 135.494 63.2391 136.843 63.6302 137.932C63.7619 138.3 64.1822 138.757 64.531 138.516C64.6493 138.435 64.6915 138.298 64.7271 138.171C64.9021 137.545 65.0781 136.905 64.9999 136.265C64.9218 135.624 64.5388 134.974 63.8639 134.697Z" fill="#00160A"/>
<path fill-rule="evenodd" clip-rule="evenodd" d="M168.638 164.01C166.657 162.309 165.718 159.931 164.843 157.643C162.549 160.504 159.573 162.534 156.056 160.827C152.539 159.12 148.02 154.201 145.495 151.488C140.973 146.632 135.602 142.363 129.619 138.871C132.814 141.89 134.725 145.896 134.917 149.978C137.341 149.956 139.765 149.934 142.189 149.913C134.039 152.304 125.309 153.216 116.732 152.57C121.392 149.195 125.037 144.788 127.217 139.892C126.73 138.567 124.419 138.874 123.069 139.635C121.719 140.396 119.972 141.362 118.672 140.539C117.071 139.526 117.181 136.355 115.281 136.85C110.346 138.138 104.495 135.58 102.79 131.389C101.626 132.015 100.463 132.642 99.2984 133.269C98.738 131.716 101.333 130.516 103.082 131.129C104.831 131.741 105.856 133.264 107.069 134.511C108.282 135.757 110.228 136.857 111.959 136.207C115.184 134.998 119.427 137.183 119.715 140.202C122.216 138.474 125.647 137.788 128.777 138.392C126.78 135.902 124.552 133.549 122.121 131.364C123.969 129.243 126.255 127.405 128.839 125.962C127.571 128.027 125.813 129.867 123.705 131.337C134.515 140.464 145.325 149.591 156.135 158.718C156.816 159.292 157.596 159.905 158.549 159.916C159.593 159.928 160.435 159.22 161.146 158.562C166.22 153.874 171.293 149.185 176.367 144.496C177.689 143.275 179.079 141.928 179.278 140.267C179.527 138.181 177.836 136.331 176.221 134.761C169.725 128.445 162.813 122.447 155.53 116.803C152.335 114.328 148.123 111.754 144.105 113.065C139.256 114.646 138.102 120.931 133.121 122.172C134.61 120.409 136.099 118.647 137.588 116.884C134.636 115.044 130.943 110.939 130.75 107.805C133.121 105.945 136.043 104.537 138.467 103.458C136.043 98.5428 136.331 97.5209 139.572 96.8497C142.814 96.1785 145.622 95.5134 148.601 94.6554C156.86 92.2766 160.802 80.998 153.869 76.3133C150.056 73.7362 121.472 48.4381 109.2 39.1109C110.129 42.6809 104.668 46.0468 101.044 44.1376C101.739 46.1954 100.068 48.6858 97.5996 48.9571C95.1309 49.2288 92.7227 46.8714 93.5869 44.8615C94.3307 43.1317 96.7104 42.4159 98.0921 41.0063C99.4737 39.5969 98.2684 36.4989 96.3904 37.3863C95.3988 40.8241 89.5608 42.2886 86.5803 39.8476C85.5309 38.9882 84.1563 38.7769 82.751 38.98C81.0293 39.2286 78.0508 39.8042 76.7772 40.8674C74.7819 42.5333 74.3317 44.9664 71.9559 46.0969C71.5775 46.2772 71.1804 46.4318 70.7612 46.5549C67.7116 47.4498 63.4419 44.8509 65.0253 42.4344C56.348 49.3246 50.3915 58.7112 48.3437 68.7214C52.8725 69.8333 53.7325 74.9555 53.7198 79.0111C48.6106 80.1276 53.4167 88.5262 48.9981 91.0009C43.9607 93.8223 45.3614 100.383 47.356 105.264C42.2499 95.8008 41.6356 84.607 45.6825 74.7711C45.2826 81.0113 44.8827 87.2514 44.4824 93.4916C47.9086 93.0599 49.2924 89.4642 49.5758 86.4924C49.8592 83.5202 50.0746 80.0233 52.976 78.396C51.8928 76.0183 51.4486 73.4267 51.6872 70.8807C50.4263 70.53 49.1654 70.1796 47.9044 69.8291C47.1469 74.4234 41.2213 76.6834 36.3349 78.6397C31.0595 80.7518 26.0967 83.4414 21.6035 86.6233C16.784 90.0365 12.1944 94.7291 12.7281 100.083C13.2413 105.231 18.3924 109.167 23.8001 111.405C18.0094 111.394 13.0388 106.957 12.1054 102.035C11.1719 97.1134 13.6623 92.0501 17.5556 88.3583C21.4486 84.6665 26.6114 82.1569 31.8466 80.0248C38.7022 77.2328 47.0177 73.6116 47.2736 67.0843C47.4866 61.6433 54.4165 56.3108 51.0965 51.6777C46.4337 45.1698 43.8329 37.5782 43.6471 29.9329C43.5552 26.1613 44.3546 21.8917 47.9449 19.7299C49.7325 18.6537 51.9562 18.2781 54.1229 18.0637C62.1581 17.2692 70.4362 18.3778 77.8118 21.2369C82.1649 22.9239 86.9186 25.2628 91.398 23.8419C101.842 20.5287 112.952 18.778 124.081 18.691C125.565 18.6791 126.797 17.7412 127.829 16.8238C131.895 13.2148 135.287 9.03849 139.71 5.75713C144.134 2.47577 150.019 0.113459 155.737 1.12897C161.723 2.19214 166.192 6.78301 168.147 11.7699C170.103 16.7571 169.992 22.1448 169.86 27.407C169.623 36.8315 183.35 41.9639 186.892 50.8831C188.981 56.1416 195.872 58.5787 202.069 60.1302C208.266 61.6815 215.208 63.4004 218.402 68.23C221.377 72.7282 219.906 78.6209 216.394 82.822C212.882 87.0235 207.682 89.9019 202.609 92.6792C194.396 97.1759 196.701 108.676 190.091 114.828C186.759 117.929 187.896 122.877 189.626 126.831C191.355 130.785 193.482 135.183 191.522 139.057C190.451 132.851 188.572 126.749 185.929 120.902C182.245 123.209 184.111 128.173 186.307 131.609C189.075 135.941 191.844 140.272 194.612 144.603C195.763 146.404 196.953 148.389 196.539 150.414C196.066 152.729 193.67 154.331 191.451 155.701C186.384 158.828 181.318 161.954 176.251 165.081C173.977 166.485 170.619 165.712 168.638 164.01ZM179.451 124.091C179.006 123.66 178.193 123.871 177.586 124.112C176.977 124.354 176.369 124.596 175.76 124.838C175.627 124.891 175.479 124.946 175.338 124.912C175.071 124.85 175.026 124.509 175.193 124.32C175.361 124.13 175.645 124.054 175.909 123.98C176.47 123.824 177.017 123.631 177.545 123.405C177.846 123.275 178.17 123.104 178.252 122.823C178.334 122.542 177.959 122.199 177.682 122.364C176.865 122.849 175.946 123.206 174.983 123.412C174.694 123.473 174.244 123.396 174.312 123.146C174.338 123.051 174.441 122.988 174.538 122.936C175.397 122.471 176.334 122.113 177.311 121.878C177.663 121.793 177.576 121.283 177.24 121.158C176.905 121.033 176.522 121.16 176.187 121.286C175.377 121.59 174.567 121.894 173.757 122.198C173.583 122.263 173.388 122.349 173.341 122.507C173.3 122.649 173.395 122.792 173.487 122.915C174.076 123.709 174.664 124.503 175.253 125.297C175.343 125.418 175.445 125.547 175.603 125.591C175.775 125.639 175.959 125.573 176.124 125.507C177.245 125.056 178.354 124.584 179.451 124.091ZM124.108 37.7334C122.201 37.7616 120.769 35.8948 121.124 34.2814C121.479 32.6677 123.163 31.4602 124.988 30.9818C127.466 30.3318 130.426 30.7123 132.402 29.2684C133.29 28.6199 133.831 27.6883 134.64 26.9671C136.402 25.395 139.466 25.0621 141.626 26.2089C142.111 25.113 140.676 24.0535 139.334 23.8583C137.991 23.663 136.543 23.8962 135.306 23.4056C133.133 22.5441 130.574 23.6509 128.835 25.0654C127.096 26.4802 125.67 28.2622 123.527 29.1768C121.383 30.0914 118.14 29.5812 117.551 27.5846C117.367 26.9626 117.344 26.1383 116.64 25.9285C115.529 25.5975 114.95 24.4803 115.017 23.4693C115.082 22.4583 115.645 21.5279 116.196 20.633C114.018 20.5387 111.831 20.5969 109.665 20.807C109.145 20.8573 108.484 21.0465 108.485 21.4967C108.488 22.4277 107.484 23.0955 106.582 23.6088C104.674 24.6953 102.765 25.7818 100.856 26.8683C100.916 27.9533 102.774 28.2131 103.862 27.6635C104.95 27.1138 105.717 26.1313 106.89 25.7321C107.517 25.5186 108.205 25.4926 108.878 25.4689C110.028 25.4286 111.178 25.3883 112.328 25.348C113.801 25.2964 115.789 25.6187 115.867 26.8868C115.931 27.9269 114.59 28.5344 113.732 29.2684C111.778 30.9382 111.785 34.1704 109.22 35.0326C108.309 35.3388 108.064 36.4259 108.463 37.195C108.863 37.9638 109.697 38.4864 110.486 38.9848C124.252 47.6839 148.235 70.1113 148.76 70.1711C149.284 70.2311 149.9 69.9067 149.871 69.4517C149.795 68.2748 149.721 67.0764 150.056 65.9335C150.39 64.7906 151.201 63.6905 152.452 63.2124C153.605 62.7722 155.283 62.6725 155.533 61.6075C156.091 59.2256 158.86 57.3836 161.678 57.5198C163.062 57.5868 164.589 58.0418 165.741 57.3773C164.812 56.6185 163.439 56.4617 162.287 55.98C161.135 55.4983 160.122 54.2787 160.811 53.3486C161.827 51.9753 160.346 50.1795 160.651 48.5718C160.78 47.8897 161.227 47.2858 161.701 46.7274C163.304 44.8348 165.329 43.2081 167.634 41.9624C168.17 41.6729 168.304 41.063 168.388 40.523C168.592 39.2198 168.795 37.9162 168.999 36.6126C169.142 35.7032 169.238 34.6597 168.513 33.987C166.155 31.7979 162.229 31.7261 158.763 31.8237C155.298 31.921 151.382 31.8825 148.981 29.728C148.236 29.0592 146.875 29.2866 146.067 29.8986C145.259 30.5107 144.812 31.392 144.21 32.1605C142.331 34.5612 138.692 35.8335 135.401 35.2408C133.639 34.9234 131.862 34.1234 130.131 34.5518C127.824 35.1229 126.508 37.6982 124.108 37.7334ZM190.34 96.823C190.446 97.1543 190.601 97.5327 190.978 97.6442C191.281 97.7337 191.607 97.6115 191.896 97.4918C192.853 97.0946 193.81 96.6978 194.768 96.3007C195.259 96.0966 195.811 95.8262 195.899 95.3627C197.671 85.9603 197.158 76.2433 194.401 67.0185C193.749 64.837 192.972 62.6783 191.935 60.6101C190.612 57.9681 188.877 55.495 187.097 53.06C184.534 49.5553 181.864 46.1087 179.089 42.7255C178.575 43.417 178.421 44.2543 178.16 45.044C177.898 45.8337 177.459 46.6522 176.616 47.0372C175.774 47.4222 174.48 47.0954 174.331 46.2845C174.008 44.5311 171.823 43.2051 169.797 43.5334C169.362 43.604 169.217 44.0706 169.163 44.4495C168.67 47.8937 168.177 51.3381 167.684 54.7823C167.648 55.0327 167.633 55.3307 167.862 55.4883C168.052 55.6196 168.323 55.5905 168.567 55.5871C169.946 55.5696 171.149 56.8098 170.883 57.9751C170.616 59.1404 168.957 59.8956 167.689 59.4287C167.142 59.2274 166.713 59.8665 166.576 60.3652C165.748 63.3761 164.919 66.3871 164.091 69.398C163.847 70.2863 164.737 71.1245 165.695 71.5146C166.653 71.9048 167.748 72.0461 168.627 72.556C170.828 73.8329 170.734 76.7371 172.514 78.4327C173.964 79.8138 176.648 80.0648 178.409 78.9844C179.985 78.0176 180.669 76.2518 180.671 74.5856C180.671 73.4494 181.49 72.3432 182.687 71.8639C183.883 71.3846 185.393 71.5571 186.403 72.2883C187.386 73.0007 187.832 74.1075 188.235 75.1583C188.413 75.6218 188.59 76.1275 188.4 76.587C188.088 77.3386 187.015 77.5611 186.138 77.8191C184.528 78.2932 183.116 79.253 182.207 80.492C181.763 81.0968 181.462 81.945 182.012 82.4816C183.354 83.7931 184.696 85.1045 186.038 86.416C186.74 87.1017 187.463 87.8205 187.744 88.7018C188.61 91.4089 189.475 94.1158 190.34 96.823ZM53.6244 53.7115C55.7277 50.331 57.8515 46.9239 60.7088 43.982C63.211 41.4058 66.225 39.2395 69.2344 37.1031C73.1996 34.2886 77.1887 31.4993 81.2014 28.7354C82.8717 27.5849 84.5681 26.4272 86.5155 25.6654C80.6772 23.4499 74.8017 21.2232 68.6036 19.9218C62.4052 18.6206 55.8031 18.2811 49.6871 19.8451C49.0978 19.9957 48.506 20.167 47.9974 20.4641C47.1384 20.9661 46.596 21.7789 46.189 22.6014C44.5894 25.833 44.6792 29.4948 45.1995 32.9793C46.2918 40.2941 49.1819 47.4065 53.6244 53.7115ZM185.443 154.037C185.388 154.527 184.773 154.989 184.257 154.776C184.013 154.675 183.864 154.461 183.73 154.259C181.671 151.163 179.611 148.067 177.552 144.971C176.223 145.402 175.585 146.781 175.734 147.997C175.883 149.213 176.636 150.303 177.371 151.349C178.495 152.949 179.619 154.549 180.743 156.149C180.152 156.674 179.201 155.977 178.763 155.351C177.203 153.121 175.643 150.891 174.084 148.661C171.105 151.3 168.126 153.939 165.147 156.577C167.087 159.189 169.027 161.8 170.967 164.412C171.424 165.028 172.403 165.224 173.232 165.069C174.061 164.915 174.778 164.481 175.469 164.058C180.668 160.873 185.867 157.689 191.067 154.505C191.462 154.263 191.885 153.986 192.001 153.581C192.123 153.157 191.87 152.726 191.626 152.344C179.865 133.918 167.313 115.868 154.004 98.2405C153.612 97.7218 153.117 97.1486 152.4 97.1077C151.922 97.0804 151.479 97.3047 151.071 97.5209C145.792 100.318 140.514 103.116 135.235 105.913C134.258 106.431 133.28 106.949 132.303 107.467C132.049 107.601 131.775 107.758 131.69 108.004C131.589 108.295 131.789 108.595 131.981 108.849C133.904 111.394 135.934 113.877 138.065 116.295C140.585 113.96 143.581 111.445 147.281 111.524C150.475 111.592 153.11 113.593 155.437 115.479C156.798 116.582 158.158 117.686 159.519 118.789C157.369 115.319 154.826 112.029 151.938 108.981C151.813 108.468 152.863 108.608 153.267 109C157.297 112.904 159.515 118.034 163.758 121.766C168.095 125.579 172.431 129.393 176.767 133.206C178.609 134.826 180.564 136.656 180.709 138.92C180.841 140.987 179.418 142.868 177.987 144.531C180.51 147.095 182.817 149.816 184.885 152.666C185.188 153.085 185.498 153.546 185.443 154.037ZM139.519 21.0586C141.345 21.3703 143.173 21.6822 144.965 22.1178C149.579 23.2401 153.869 25.16 158.122 27.0672C161.834 28.7315 165.566 30.407 168.897 32.5879C169.259 24.7917 168.9 17.0503 165.888 9.69148C165.019 7.56939 162.921 5.28117 160.88 3.87635C158.484 2.227 155.157 1.93676 152.121 2.31088C146.816 2.96446 141.984 5.41123 138.005 8.5019C134.025 11.5926 130.798 15.3217 127.599 19.0241C131.572 19.7023 135.546 20.3805 139.519 21.0586ZM192.81 58.9009C197.936 70.1626 199.61 82.5744 197.618 94.5478C204.122 91.3374 209.936 87.0929 214.678 82.092C217.041 79.5998 219.231 76.6668 219.077 73.4521C218.95 70.8104 217.205 68.3718 214.901 66.6244C212.597 64.877 209.767 63.7348 206.923 62.7389C202.348 61.1367 197.624 59.8522 192.81 58.9009ZM182.758 78.1562C183.963 77.395 185.251 76.7332 186.601 76.1823C186.598 75.4405 186.589 74.6744 186.243 73.9948C185.897 73.3154 185.122 72.7403 184.262 72.7912C183.359 72.8449 182.677 73.5555 182.391 74.2952C182.104 75.0349 182.099 75.8322 181.901 76.5931C181.352 78.6973 179.186 80.415 176.706 80.7133C174.226 81.0116 171.598 79.8708 170.4 77.9764C169.435 76.45 169.291 74.4747 167.754 73.3484C166.902 72.7245 165.769 72.4854 164.681 72.2647C164.428 72.2137 164.159 72.1628 163.914 72.2352C163.519 72.3517 163.334 72.7315 163.194 73.0701C162.262 75.3393 161.331 77.6081 160.399 79.8772C160.054 80.7163 159.771 81.7892 160.541 82.3831C167.654 87.8653 170.55 96.585 177.784 101.949C177.998 102.108 178.262 102.273 178.537 102.217C181.988 101.512 185.334 100.425 188.466 98.9924C188.715 98.8784 188.975 98.7523 189.118 98.5428C189.263 98.3303 189.263 98.0687 189.248 97.8225C189.145 96.1273 188.559 94.455 187.557 92.9929C187.084 92.3014 186.502 91.6187 186.412 90.8196C186.335 90.1372 186.629 89.4375 186.441 88.7715C186.287 88.2276 185.835 87.789 185.398 87.3745C184.162 86.2034 182.927 85.0327 181.692 83.8619C181.081 83.2825 180.446 82.665 180.259 81.8992C179.894 80.4074 181.331 79.0581 182.758 78.1562ZM105.337 43.6843C106.794 42.9295 107.677 41.4237 107.518 39.9655C107.285 37.838 105.157 36.2873 103.193 34.981C99.975 32.8411 92.6157 27.6413 89.3802 26.5236C86.1445 25.4059 71.8292 36.4028 66.8548 40.6191C66.6034 40.8319 66.3415 41.0642 66.2715 41.3619C66.2014 41.6593 64.6814 44.8609 67.7419 45.6391C70.8027 46.4173 71.1308 45.8176 72.3811 44.8609C73.6315 43.9041 74.3595 42.5469 74.947 41.1985C75.4487 40.0465 76.9659 39.4953 78.3655 39.2498C79.7655 39.0042 81.2739 38.9127 82.4317 38.1921C83.6374 37.4418 85.3214 37.4854 86.6957 37.9759C88.07 38.4664 89.2049 39.3392 90.3113 40.1962C91.2354 40.912 92.7294 40.1116 93.2989 39.16C93.8685 38.2087 94.1079 37.0349 95.1041 36.395C96.5287 35.4797 98.7148 36.2989 99.592 37.63C100.84 39.5229 99.9574 42.2259 97.7478 43.2824C96.4671 43.8944 94.5933 44.3049 94.5423 45.5654C94.5169 46.192 95.0249 46.7432 95.591 47.1379C96.6065 47.8452 98.2603 48.181 99.1256 47.3383C100.359 46.1372 98.9816 43.5992 100.69 42.961C102.198 42.3977 103.928 44.4143 105.337 43.6843ZM144.278 30.2482C144.789 29.5658 145.301 28.8182 146.153 28.4702C147.242 28.0257 148.55 28.3789 149.583 28.9134C150.616 29.4478 151.539 30.1633 152.672 30.5168C153.825 30.8766 155.089 30.8281 156.314 30.7748C158.352 30.6862 160.39 30.5977 162.427 30.5092C150.11 24.3633 136.256 20.0533 122.022 19.9321C120.822 19.9221 119.595 19.9454 118.469 20.3028C117.343 20.6606 116.32 21.413 116.032 22.4158C115.592 23.9434 117.206 25.5759 119.032 25.6247C118.078 26.2262 118.225 27.6231 119.134 28.2746C120.043 28.9258 121.403 28.9207 122.495 28.5287C123.585 28.1364 124.47 27.4212 125.328 26.7207C126.925 25.4174 128.523 24.1138 130.12 22.8102C131.124 21.9911 132.687 21.9563 134.044 22.1876C135.4 22.4189 136.728 22.8663 138.111 22.8372C141.014 22.7766 143.586 25.3434 143.091 27.8078C141.788 26.7495 139.892 26.2589 138.128 26.5236C136.363 26.7879 134.772 27.8011 133.96 29.1765C133.303 30.2912 131.835 30.8806 130.407 31.1097C128.98 31.3392 127.505 31.2913 126.083 31.5445C124.661 31.7973 123.211 32.4421 122.63 33.5877C122.048 34.7337 122.808 36.3677 124.254 36.4832C125.938 36.6178 126.921 34.9146 128.338 34.1189C129.686 33.3616 131.446 33.4607 133.019 33.7551C134.592 34.0494 136.164 34.5139 137.768 34.3944C140.555 34.1868 142.763 32.2733 144.278 30.2482ZM189.383 100.088C186.156 101.16 182.929 102.231 179.701 103.303C179.252 103.452 178.706 103.833 178.976 104.176C182.054 108.089 184.424 112.414 185.973 116.948C186.123 117.389 186.901 117.059 187.205 116.681C190.028 113.166 192.278 109.311 193.87 105.264C194.158 104.532 194.427 103.74 194.18 102.997C193.791 101.829 192.333 101.24 191.258 100.452C190.962 100.234 190.661 99.9825 190.276 99.934C189.972 99.8961 189.67 99.9928 189.383 100.088ZM152.153 65.3348C150.67 66.6905 151.916 68.9872 151.154 70.7301C150.985 71.1163 150.713 71.5237 150.868 71.9142C150.946 72.1088 151.119 72.2613 151.288 72.4068C151.815 72.8619 152.342 73.3166 152.869 73.7716C153.283 74.1288 153.955 74.4986 154.386 74.1572C156.159 72.753 158.307 71.7017 160.615 71.1087C161.279 70.9377 161.999 70.7834 162.463 70.3393C162.872 69.9476 163.004 69.4029 163.12 68.8857C163.772 65.9899 164.419 63.0936 165.062 60.1966C165.112 59.9705 165.161 59.7279 165.054 59.5173C164.94 59.2935 164.678 59.1565 164.422 59.0516C161.825 57.9863 158.334 59.0777 157.135 61.3292C156.728 62.0932 156.54 62.9781 155.857 63.5783C154.861 64.4532 153.128 64.4432 152.153 65.3348ZM100.383 28.2952C99.8807 27.903 99.3615 27.4106 99.4111 26.8283C99.4635 26.2077 100.131 25.78 100.736 25.4392C102.878 24.2323 105.021 23.0255 107.163 21.8189C107.111 21.4606 106.528 21.4227 106.115 21.4873C100.567 22.3561 95.1323 23.7564 89.9421 25.6545C95.73 28.7272 101.283 32.1286 106.553 35.8293C107.192 34.5791 108.838 33.9636 109.813 32.8856C111.044 31.5239 111.135 29.5015 112.65 28.3707C113.392 27.8156 114.496 27.4309 114.644 26.5939C113.345 26.6018 112.045 26.6097 110.745 26.6173C109.165 26.627 107.482 26.6621 106.168 27.4197C105.022 28.0809 104.14 29.2835 102.761 29.3175C101.852 29.3399 101.056 28.8215 100.383 28.2952ZM165.176 102.754C166.184 104.311 167.193 105.869 168.202 107.426C166.354 102.363 164.15 97.3957 161.607 92.5612C161.517 92.3893 161.413 92.2059 161.22 92.1177C160.981 92.0089 160.69 92.0807 160.434 92.1544C153.269 94.2177 146.104 96.2806 138.939 98.3439C138.721 98.4064 138.485 98.4816 138.368 98.6516C138.228 98.8559 138.312 99.1158 138.406 99.3389C138.826 100.337 139.375 101.294 140.041 102.187C144.535 99.9355 149.028 97.6836 153.522 95.4318C154.214 95.0853 154.942 94.7291 155.742 94.703C156.403 94.6815 157.046 94.8907 157.638 95.1474C161.149 96.6723 163.26 99.7963 165.176 102.754ZM132.644 144.89C131.74 143.229 130.19 141.869 128.411 140.86C126.226 144.356 123.719 147.702 120.92 150.857C120.706 151.098 120.627 151.592 120.979 151.57C124.392 151.364 127.804 151.157 131.216 150.951C131.901 150.909 132.724 150.785 132.976 150.235C133.756 148.528 133.547 146.551 132.644 144.89ZM184.161 120.381C184.437 120.017 184.718 119.642 184.83 119.218C184.978 118.656 184.815 118.072 184.639 117.517C183.286 113.246 181.156 109.169 178.499 105.379C178.189 104.938 177.857 104.486 177.353 104.208C176.849 103.93 176.125 103.879 175.686 104.228C175.098 104.696 175.321 105.521 175.589 106.17C177.707 111.31 179.826 116.45 181.944 121.59C182.071 121.896 182.358 122.273 182.71 122.155C182.847 122.11 182.936 121.997 183.016 121.892C183.398 121.388 183.779 120.884 184.161 120.381ZM162.898 55.0057C163.512 55.4513 164.326 55.6199 165.107 55.7751C165.734 55.8994 166.105 55.1955 166.213 54.6492C166.938 51.0022 167.404 47.3213 167.869 43.6428C167.513 43.5128 167.136 43.7629 166.859 43.9945C165.862 44.8272 164.865 45.66 163.869 46.4928C163.175 47.0724 162.449 47.6987 162.229 48.5094C161.81 50.0521 163.337 51.8107 162.372 53.1595C161.951 53.7476 162.285 54.5604 162.898 55.0057ZM160.728 84.1805C160.488 83.9489 160.23 83.71 159.888 83.6145C159.545 83.519 159.098 83.6272 158.979 83.9198C157.918 86.5339 156.857 89.148 155.796 91.7621C155.695 92.0104 155.763 92.4287 156.056 92.3542C157.846 91.8994 159.497 91.0946 161.294 90.6623C163.091 90.2303 165.193 90.2354 166.629 91.2616C164.954 88.7336 162.973 86.3559 160.728 84.1805ZM176.057 45.9556C176.595 44.6981 177.133 43.4406 177.672 42.1831C177.776 41.9394 177.569 41.6856 177.375 41.4868C175.454 39.5153 173.516 37.5303 171.189 35.9145C171.09 35.8456 170.978 35.7741 170.851 35.7799C170.609 35.7911 170.512 36.05 170.478 36.2564C170.188 38.0096 169.899 39.763 169.609 41.5165C169.525 42.0273 170.071 42.4714 170.644 42.6227C171.217 42.7737 171.834 42.7315 172.423 42.8261C173.51 43.0001 174.472 43.6698 174.897 44.5483C175.167 45.1055 175.367 45.8467 176.057 45.9556ZM158.876 79.8247C159.893 77.5838 160.826 75.3144 161.673 73.0213C161.73 72.867 161.787 72.6994 161.727 72.546C161.565 72.1364 160.861 72.2425 160.412 72.4362C158.648 73.1972 156.951 74.0748 155.342 75.0585C155.142 75.1804 154.924 75.3344 154.916 75.5454C154.91 75.7052 155.03 75.8455 155.144 75.9713C156.339 77.2901 157.584 78.5754 158.876 79.8247ZM173.802 116.763C173.611 116.584 173.298 116.556 173.016 116.56C172.378 116.569 171.742 116.681 171.152 116.888C170.861 116.99 170.572 117.117 170.258 117.131C169.945 117.145 169.593 117.004 169.516 116.742C170.345 116.232 171.35 115.937 172.368 115.905C172.82 115.891 172.834 115.229 172.436 115.041C172.039 114.854 171.549 114.991 171.126 115.131C170.427 115.362 169.728 115.593 169.029 115.825C168.825 115.892 168.616 115.68 168.645 115.494C168.674 115.308 168.85 115.167 169.023 115.053C169.652 114.639 170.402 114.364 171.184 114.26C171.557 114.21 171.617 113.712 171.345 113.488C171.073 113.263 170.653 113.249 170.277 113.265C169.182 113.315 168.096 113.519 167.077 113.868C167.946 115.211 168.833 116.545 169.739 117.87C169.973 118.213 170.228 118.571 170.634 118.761C171.363 117.968 172.472 117.442 173.641 117.335C173.922 117.31 173.993 116.942 173.802 116.763ZM188.771 140.991C188.101 141.138 187.437 141.306 186.782 141.495C186.602 141.546 186.395 141.627 186.364 141.787C186.346 141.883 186.4 141.977 186.452 142.063C186.837 142.7 187.222 143.338 187.607 143.975C187.763 144.234 188.078 144.538 188.37 144.39C189.331 143.903 190.404 143.582 191.508 143.451C191.812 143.415 192.01 143.134 192.017 142.87C192.024 142.606 191.888 142.357 191.756 142.118C191.528 141.71 191.279 141.28 190.831 141.042C190.23 140.722 189.456 140.841 188.771 140.991ZM191.355 147.997C191.094 148.038 190.791 148.106 190.688 148.318C190.605 148.49 190.693 148.686 190.781 148.857C191.115 149.51 191.449 150.163 191.783 150.816C191.887 151.02 192.025 151.248 192.278 151.297C192.458 151.331 192.64 151.261 192.806 151.192C193.321 150.98 193.836 150.768 194.351 150.555C194.641 150.436 194.948 150.303 195.107 150.062C195.266 149.822 195.182 149.445 194.872 149.372C194.706 149.332 194.532 149.388 194.378 149.453C193.916 149.646 193.501 149.926 193.008 150.05C192.516 150.173 191.889 150.078 191.655 149.685C192.868 149.314 194.028 148.814 195.1 148.199C195.003 147.622 194.065 147.571 193.4 147.676C192.718 147.783 192.037 147.89 191.355 147.997ZM181.445 133.007C181.642 132.822 181.928 132.731 182.203 132.648C182.958 132.416 183.714 132.185 184.469 131.954C184.862 131.833 184.766 131.271 184.395 131.107C184.025 130.942 183.577 131.045 183.179 131.151C182.314 131.38 181.45 131.609 180.586 131.838C180.473 131.868 180.355 131.901 180.276 131.976C180.095 132.149 180.216 132.42 180.345 132.625C180.687 133.17 181.03 133.714 181.372 134.259C181.412 134.323 181.457 134.39 181.533 134.421C181.625 134.458 181.733 134.43 181.829 134.401C182.88 134.088 183.932 133.775 184.984 133.462C185.235 133.388 185.536 133.251 185.515 133.023C185.486 132.712 184.957 132.71 184.611 132.804C183.53 133.1 182.448 133.395 181.366 133.691C181.175 133.501 181.248 133.191 181.445 133.007ZM194.889 97.4666C193.958 97.9198 193.026 98.373 192.095 98.8262C191.983 98.8805 191.866 98.9399 191.805 99.0372C191.642 99.2946 191.963 99.5741 192.246 99.7375C192.825 100.072 193.404 100.406 193.983 100.74C194.097 100.806 194.22 100.874 194.357 100.875C194.669 100.878 194.83 100.562 194.91 100.302C195.167 99.4683 195.424 98.6349 195.681 97.8013C195.713 97.6967 195.745 97.5821 195.693 97.4836C195.567 97.2459 195.153 97.3381 194.889 97.4666ZM182.629 134.874C182.404 134.923 182.148 134.996 182.064 135.182C182.001 135.321 182.058 135.477 182.131 135.612C182.32 135.959 182.618 136.261 182.986 136.477C183.963 136.156 184.94 135.835 185.917 135.514C186.336 135.375 186.833 135.143 186.816 134.756C186.803 134.479 186.499 134.265 186.184 134.211C185.869 134.158 185.544 134.228 185.233 134.297C184.365 134.489 183.497 134.681 182.629 134.874ZM168.473 104.607C168.815 105.181 169.661 105.348 170.401 105.451C171.581 105.616 172.761 105.78 173.941 105.945C173.962 105.368 173.271 104.985 172.657 104.753C171.532 104.329 170.358 104.001 169.157 103.776C169.028 103.752 168.893 103.729 168.764 103.756C168.38 103.836 168.293 104.303 168.473 104.607ZM164.098 104.172C164.191 104.142 164.284 104.111 164.364 104.061C164.716 103.838 164.609 103.314 164.25 103.1C163.89 102.885 163.404 102.914 162.987 103.027C162.57 103.14 162.181 103.327 161.755 103.41C161.179 103.522 160.425 103.517 160.205 103.988C160.016 104.391 160.448 104.847 160.941 104.941C161.433 105.034 161.938 104.877 162.409 104.723C162.972 104.54 163.536 104.356 164.098 104.172ZM166.364 107.805C166.84 107.537 166.62 106.834 166.114 106.611C165.608 106.389 165 106.493 164.447 106.602C163.863 106.717 163.24 106.852 162.842 107.237C162.444 107.623 162.445 108.346 162.987 108.564C163.725 108.861 164.416 108.023 165.221 107.919C165.606 107.87 166.038 107.988 166.364 107.805ZM183.059 130.35C183.218 130.304 183.387 130.252 183.49 130.137C183.604 130.01 183.608 129.828 183.544 129.676C183.392 129.322 182.918 129.134 182.48 129.141C182.042 129.147 181.629 129.308 181.231 129.465C180.723 129.666 180.216 129.866 179.709 130.066C179.43 130.177 179.115 130.327 179.069 130.588C179.022 130.853 179.305 131.094 179.61 131.151C179.915 131.207 180.229 131.128 180.528 131.049C181.375 130.824 182.218 130.591 183.059 130.35ZM185.344 139.597C186.436 139.202 187.528 138.806 188.621 138.411C188.724 138.374 188.831 138.334 188.906 138.263C189.128 138.051 188.925 137.682 188.616 137.58C188.307 137.479 187.962 137.557 187.644 137.637C186.906 137.821 186.168 138.005 185.43 138.189C185.021 138.291 184.565 138.428 184.392 138.762C184.157 139.22 184.809 139.791 185.344 139.597ZM192.717 145.081C193.153 144.936 192.994 144.302 192.56 144.151C192.127 143.999 191.641 144.155 191.202 144.294C190.342 144.567 189.456 144.778 188.555 144.924C188.241 145.288 188.624 145.846 189.13 145.969C189.637 146.093 190.171 145.927 190.662 145.764C191.347 145.536 192.032 145.309 192.717 145.081ZM169.466 102.93C170.346 103.129 171.226 103.327 172.106 103.526C172.441 103.602 172.957 103.559 172.933 103.262C171.413 102.357 169.664 101.739 167.844 101.463C167.748 101.449 167.646 101.435 167.554 101.464C167.239 101.563 167.359 101.984 167.597 102.188C168.088 102.611 168.794 102.778 169.466 102.93ZM172.791 100.002C173.102 100.647 173.413 101.291 173.724 101.936C173.912 102.324 174.123 102.736 174.536 102.96C174.95 103.183 175.623 103.088 175.758 102.685C175.861 102.377 175.62 102.069 175.39 101.817C174.514 100.855 173.611 99.9103 172.684 98.9845C172.478 99.2907 172.633 99.6757 172.791 100.002ZM171.284 101.213C171.449 101.262 171.65 101.307 171.783 101.209C171.939 101.096 171.883 100.876 171.777 100.726C171.391 100.179 170.611 99.9622 169.896 99.7872C168.936 99.5523 167.975 99.3174 167.014 99.0821C166.715 99.0094 166.491 99.3844 166.631 99.6229C166.77 99.8615 167.092 99.9688 167.385 100.056C168.685 100.442 169.984 100.828 171.284 101.213ZM184.13 136.747C183.86 136.818 183.566 136.903 183.418 137.11C183.156 137.479 183.54 137.959 183.991 138.148C185.01 137.434 186.308 137.021 187.621 136.994C188.068 136.985 188.107 136.34 187.728 136.135C187.349 135.931 186.858 136.036 186.43 136.148C185.663 136.348 184.896 136.548 184.13 136.747ZM179.862 126.674C179.243 126.815 178.623 126.956 178.004 127.098C177.436 127.227 176.724 127.547 176.86 128.039C176.976 128.458 177.656 128.553 178.112 128.377C178.568 128.201 178.916 127.858 179.371 127.678C180.113 127.383 181.158 127.49 181.574 126.885C181.22 126.451 180.458 126.539 179.862 126.674ZM156.646 98.4637C156.527 98.5079 156.404 98.5586 156.326 98.6474C156.123 98.8766 156.344 99.2331 156.657 99.3337C156.971 99.4344 157.319 99.3619 157.644 99.2949C158.737 99.0697 159.849 98.9136 160.969 98.8284C161.077 98.2997 160.275 98.0032 159.651 97.982C158.625 97.9468 157.589 98.1129 156.646 98.4637ZM174.761 118.972C175.082 118.68 174.9 118.027 174.441 118.104C173.224 118.309 172.051 118.705 170.997 119.268C170.75 119.7 171.432 120.148 171.984 120.073C172.536 119.998 172.979 119.649 173.496 119.467C173.929 119.314 174.439 119.265 174.761 118.972ZM175.428 109.501C175.283 109.344 175.053 109.269 174.834 109.202C173.77 108.874 172.706 108.547 171.642 108.219C171.351 108.129 171.025 108.04 170.742 108.147C170.459 108.254 170.346 108.658 170.623 108.776C171.986 109.357 173.435 109.787 174.923 110.054C175.078 110.082 175.251 110.105 175.385 110.032C175.581 109.924 175.572 109.658 175.428 109.501ZM170.419 98.7223C170.571 98.7999 170.77 98.6534 170.774 98.5016C170.778 98.3497 170.659 98.2175 170.54 98.1056C169.397 97.0319 167.72 96.5304 166.116 96.0687C165.709 95.9517 165.114 95.912 164.995 96.267C166.85 97.0058 168.661 97.8255 170.419 98.7223ZM194.079 146.356C193.983 146.069 193.631 145.889 193.285 145.859C192.939 145.829 192.595 145.918 192.263 146.005C191.682 146.158 191.102 146.311 190.522 146.464C190.121 146.569 189.634 146.777 189.667 147.137C189.695 147.43 190.091 147.605 190.43 147.577C190.77 147.549 191.07 147.384 191.377 147.257C192.049 146.98 192.815 146.876 193.552 146.963C193.897 147.003 194.175 146.644 194.079 146.356ZM157.682 100.653C157.677 100.924 157.923 101.182 158.232 101.231C158.432 101.262 158.635 101.215 158.831 101.168C159.961 100.897 161.09 100.626 162.22 100.355C162.238 100.081 161.964 99.8452 161.659 99.7657C161.355 99.6866 161.028 99.7272 160.714 99.7685C159.893 99.8758 159.073 99.9834 158.252 100.091C157.942 100.132 157.687 100.383 157.682 100.653ZM176.341 120.113C176.386 119.859 176.096 119.634 175.8 119.602C175.504 119.57 175.213 119.674 174.939 119.776C174.067 120.101 173.196 120.425 172.324 120.749C172.065 121.032 172.384 121.482 172.792 121.561C173.201 121.641 173.616 121.48 173.993 121.323C174.589 121.076 175.184 120.829 175.78 120.582C176.025 120.48 176.3 120.344 176.341 120.113ZM163.874 94.1164C163.974 94.2707 164.174 94.3526 164.361 94.4247C165.915 95.0241 167.468 95.6234 169.021 96.2227C169.297 96.3291 169.699 96.4016 169.835 96.1691C169.981 95.9199 169.621 95.6816 169.322 95.5722C167.651 94.961 165.98 94.3495 164.309 93.7381C164.225 93.7075 164.135 93.6759 164.046 93.689C163.843 93.7181 163.773 93.9624 163.874 94.1164ZM171.918 111.374C171.866 111.355 171.81 111.336 171.755 111.345C171.697 111.355 171.649 111.398 171.641 111.449C171.776 112.249 172.819 112.644 173.713 112.894C174.881 113.22 176.049 113.547 177.217 113.873C177.498 113.606 177.039 113.235 176.654 113.095C175.075 112.522 173.497 111.948 171.918 111.374ZM163.281 101.992C163.412 101.78 163.216 101.516 162.968 101.407C162.537 101.215 162.016 101.322 161.547 101.433C161.014 101.559 160.48 101.685 159.947 101.811C159.563 101.902 159.099 102.073 159.085 102.417C159.074 102.673 159.356 102.883 159.649 102.93C159.942 102.977 160.241 102.903 160.527 102.829C161.288 102.634 162.049 102.438 162.81 102.243C162.992 102.196 163.192 102.136 163.281 101.992ZM189.726 139.241C189.408 139.083 189.01 139.176 188.661 139.272C187.55 139.578 186.44 139.883 185.33 140.189C185.085 140.528 185.531 140.978 185.994 141.002C186.457 141.026 186.876 140.793 187.285 140.604C188.028 140.262 188.847 140.041 189.685 139.958C190.049 139.922 190.043 139.4 189.726 139.241ZM168.523 110.216C168.167 110.134 167.791 110.191 167.429 110.249C166.981 110.32 166.533 110.391 166.085 110.462C165.577 110.543 164.933 110.769 164.987 111.212C165.018 111.473 165.318 111.661 165.619 111.699C165.921 111.737 166.224 111.66 166.516 111.583C167.41 111.349 168.304 111.114 169.197 110.88C169.206 110.563 168.879 110.298 168.523 110.216ZM165.474 105.03C165.225 104.811 164.816 104.796 164.474 104.881C164.133 104.966 163.827 105.133 163.494 105.238C163.1 105.363 162.675 105.399 162.283 105.527C161.891 105.655 161.513 105.909 161.445 106.265C161.592 106.562 162.086 106.529 162.447 106.445C163.405 106.223 164.362 106.001 165.32 105.779C165.663 105.699 165.723 105.249 165.474 105.03ZM164.142 109.064C163.743 109.164 163.812 109.732 164.175 109.905C164.539 110.077 164.988 109.982 165.387 109.883C166.224 109.675 167.061 109.466 167.898 109.258C167.959 108.898 167.577 108.572 167.164 108.494C166.752 108.415 166.325 108.518 165.919 108.619C165.326 108.768 164.734 108.916 164.142 109.064ZM168.891 58.3531C169.423 58.023 169.341 57.3418 169.357 56.777C168.663 56.7043 167.903 56.6436 167.318 56.9729C166.733 57.3024 166.577 58.1916 167.203 58.4586C167.418 58.5505 167.669 58.5481 167.909 58.5435C168.249 58.5371 168.614 58.5244 168.891 58.3531ZM170.232 106.363C169.897 106.334 169.408 106.461 169.504 106.74C169.55 106.873 169.72 106.939 169.872 106.986C171.331 107.44 172.854 107.741 174.396 107.879C174.587 107.841 174.643 107.609 174.543 107.463C174.443 107.318 174.251 107.243 174.069 107.18C172.843 106.756 171.547 106.48 170.232 106.363ZM163.443 92.419C164.705 92.9775 165.991 93.4952 167.297 93.9709C167.551 94.0634 167.839 94.1549 168.094 94.0649C168.349 93.9745 168.447 93.6068 168.194 93.5116C166.709 92.952 165.223 92.3921 163.738 91.8321C163.502 91.7433 163.166 91.6796 163.038 91.8725C162.898 92.0838 163.192 92.3081 163.443 92.419ZM175.931 111.146C175.716 110.978 175.427 110.903 175.148 110.832C173.977 110.536 172.804 110.239 171.632 109.943C171.47 109.902 171.29 109.862 171.138 109.926C170.986 109.99 170.932 110.21 171.083 110.274C172.687 110.951 174.38 111.471 176.118 111.821C176.262 111.604 176.146 111.314 175.931 111.146ZM176.85 126.722C177.686 126.467 178.521 126.213 179.357 125.958C179.725 125.846 180.119 125.716 180.33 125.434C180.276 125.18 179.958 125.021 179.658 125.016C179.36 125.011 179.076 125.122 178.805 125.231C178.073 125.526 177.34 125.821 176.608 126.115C176.344 126.222 176.039 126.379 176.034 126.63C176.171 126.861 176.566 126.808 176.85 126.722ZM170.21 112.328C170.405 112.141 170.229 111.816 169.958 111.723C169.687 111.63 169.381 111.694 169.099 111.759C168.139 111.98 167.18 112.201 166.221 112.422C166.047 112.596 166.204 112.889 166.448 112.98C166.693 113.071 166.973 113.022 167.234 112.972C168.099 112.807 168.964 112.642 169.83 112.476C169.968 112.45 170.115 112.419 170.21 112.328ZM181.929 127.808C181.732 127.771 181.53 127.838 181.342 127.904C180.32 128.264 179.297 128.624 178.275 128.984C177.979 129.088 178.098 129.521 178.399 129.615C178.699 129.71 179.028 129.587 179.316 129.467C180.194 129.101 181.073 128.735 181.952 128.368C182.052 128.327 182.158 128.28 182.207 128.194C182.297 128.038 182.127 127.846 181.929 127.808ZM174.422 113.824C174.029 113.699 173.461 113.633 173.304 113.968C174.689 114.583 176.159 115.057 177.673 115.377C177.982 115.216 177.596 114.836 177.257 114.728C176.312 114.427 175.367 114.126 174.422 113.824ZM155.36 97.3329C155.095 97.5918 155.355 98.0826 155.756 98.0799C156.671 97.5651 157.74 97.255 158.83 97.1874C158.485 96.8151 157.886 96.6738 157.334 96.7111C156.782 96.7484 156.262 96.9376 155.753 97.1246C155.61 97.1771 155.462 97.2326 155.36 97.3329ZM177.753 116.671C178.053 116.733 178.525 116.661 178.45 116.403C177.198 115.916 175.879 115.559 174.529 115.34C174.38 115.513 174.47 115.774 174.656 115.918C174.842 116.062 175.096 116.117 175.34 116.168C176.144 116.336 176.948 116.503 177.753 116.671ZM176.806 118.021C177.507 118.208 178.233 118.326 178.965 118.371C179.111 118.204 179.027 117.949 178.848 117.808C178.669 117.667 178.423 117.611 178.188 117.559C177.441 117.395 176.694 117.232 175.948 117.069C175.677 117.47 176.291 117.884 176.806 118.021ZM192.767 152.294C192.6 152.648 192.817 153.142 193.257 153.191C193.804 152.739 194.274 152.217 194.646 151.648C194.435 151.451 194.06 151.499 193.767 151.592C193.351 151.724 192.934 151.941 192.767 152.294ZM181.077 122.934C180.721 122.649 180.281 122.441 179.81 122.336C179.734 122.911 180.117 123.51 180.722 123.762C180.867 123.823 181.038 123.864 181.187 123.81C181.561 123.673 181.374 123.173 181.077 122.934ZM179.325 119.321C179.08 119.169 178.763 119.14 178.462 119.116C178.092 119.086 177.721 119.056 177.351 119.026C177.171 119.399 177.68 119.761 178.143 119.819C178.606 119.878 179.113 119.798 179.517 120C179.701 119.794 179.569 119.473 179.325 119.321ZM182.196 126.333C182.341 126.44 182.52 126.535 182.71 126.517C182.777 125.734 182.162 125.006 181.398 124.578C181.308 125.228 181.617 125.909 182.196 126.333ZM179.823 121.055C179.394 120.852 178.889 120.768 178.403 120.82C178.579 121.229 178.999 121.552 179.489 121.658C179.751 121.714 180.079 121.689 180.222 121.491C180.365 121.293 180.083 120.966 179.862 121.1M155.799 95.6886C155.392 95.7507 155.01 95.9287 154.728 96.1879C155.233 96.3104 155.809 96.1867 156.188 95.8741C156.095 95.7659 155.95 95.6919 155.795 95.6734" fill="#00160A"/>
<path fill-rule="evenodd" clip-rule="evenodd" d="M147.075 130.518C151.223 127.087 157.045 127.571 161.118 131.336C164.659 134.612 163.817 138.94 159.796 142.57C158.278 143.925 155.232 144.824 153.028 144.604C151.162 144.444 148.257 143.26 146.531 142.168C145.732 141.663 145.002 140.621 144.312 139.038L144.211 138.802C142.987 135.878 143.814 132.789 146.587 130.85L146.717 130.761L146.746 130.726C146.77 130.7 146.798 130.676 146.829 130.653L146.88 130.62L146.936 130.589L147.054 130.538L147.075 130.518ZM154.286 142.305L153.031 143.461L153.17 143.471C154.455 143.551 155.714 143.378 156.858 142.959L156.922 142.935L156.833 142.931C156.042 142.882 155.207 142.674 154.339 142.327L154.286 142.305ZM150.625 140.135L150.508 140.042L150.384 140.146C149.898 140.554 149.403 140.972 148.898 141.404L148.325 141.893C148.487 141.995 148.656 142.094 148.832 142.191C149.625 142.636 150.482 142.974 151.369 143.193L151.559 143.239L152.476 142.407L153.163 141.781L153.117 141.758C152.255 141.302 151.407 140.742 150.625 140.135ZM156.61 140.164L155.114 141.542L155.19 141.57C156.354 141.99 157.388 142.07 158.279 141.76L158.372 141.726L158.282 141.638C157.832 141.205 157.349 140.775 156.819 140.336L156.61 140.164ZM147.6 137.256L147.334 137.481C146.952 137.801 146.567 138.119 146.177 138.435L145.565 138.928L145.617 139.034C146.031 139.856 146.609 140.572 147.36 141.198L147.388 141.22L147.473 141.146C148.018 140.67 148.58 140.187 149.166 139.694L149.622 139.311L149.498 139.204C148.816 138.607 148.233 138.022 147.742 137.431L147.6 137.256ZM159.053 137.913L157.421 139.417L157.437 139.43C158.063 139.945 158.636 140.45 159.167 140.959L159.328 141.116L159.333 141.111C159.89 140.46 159.794 139.398 159.125 138.056L159.053 137.913ZM153.342 137.709L153.221 137.807C152.663 138.258 152.098 138.721 151.521 139.198L151.358 139.333L151.51 139.449C152.307 140.049 153.072 140.554 153.836 140.96L153.98 141.035L155.005 140.099L155.71 139.452L155.477 139.274C155.054 138.952 154.597 138.615 154.022 138.2L153.342 137.709ZM162.062 135.141L159.803 137.221L159.877 137.343C160.001 137.554 160.123 137.768 160.243 137.986L160.421 138.315L160.586 138.632C160.755 138.938 160.871 139.244 160.933 139.544L160.943 139.595L161.01 139.491C161.924 138.048 162.299 136.563 162.069 135.184L162.062 135.141ZM157.095 135.118L156.979 134.986L156.567 135.284L155.42 136.101L155.214 136.249C155.003 136.403 154.813 136.543 154.639 136.677L154.435 136.834L154.225 137.001L154.698 137.341C155.226 137.722 155.686 138.061 156.116 138.388L156.524 138.702L157.837 137.491L158.461 136.913L158.456 136.905C158.064 136.309 157.597 135.7 157.095 135.118ZM150.105 135.24L150.006 135.157L149.975 135.186C149.592 135.532 149.204 135.875 148.814 136.216L148.424 136.553L148.506 136.66C148.98 137.272 149.567 137.87 150.252 138.45L150.425 138.594L150.456 138.62L150.509 138.576C150.905 138.25 151.311 137.92 151.73 137.58L152.406 137.036L152.312 136.968C151.552 136.411 150.818 135.836 150.105 135.24ZM145.931 133.033L145.894 133.087C144.965 134.432 144.678 136.104 145.11 137.697L145.148 137.833L145.168 137.898L145.362 137.741C145.77 137.411 146.174 137.078 146.575 136.741L146.983 136.396L146.944 136.335C146.276 135.263 145.926 134.175 145.931 133.058V133.033ZM153.31 132.027L152.826 132.506C152.276 133.045 151.719 133.578 151.153 134.105L150.82 134.413L150.903 134.483C151.562 135.031 152.244 135.565 152.956 136.09L153.287 136.331L153.603 136.08C153.806 135.922 154.024 135.758 154.27 135.578L154.673 135.287L155.621 134.614C155.792 134.492 155.946 134.383 156.087 134.279L156.226 134.178L156.159 134.11C155.834 133.785 155.528 133.506 155.273 133.301L155.199 133.241C154.682 132.84 154.117 132.473 153.487 132.123L153.31 132.027ZM160.156 131.968L160.105 132.045C159.582 132.809 158.86 133.525 157.879 134.304L157.797 134.368L157.826 134.403C158.255 134.922 158.661 135.464 159.047 136.031L159.186 136.239L160.284 135.218L161.673 133.92L161.641 133.852C161.321 133.199 160.847 132.585 160.216 132.021L160.156 131.968ZM147.161 132.549L147.156 132.593C147.043 133.624 147.277 134.638 147.827 135.635L147.841 135.66L147.987 135.533C148.311 135.251 148.633 134.966 148.952 134.68L149.196 134.459L149.097 134.372C148.534 133.873 147.983 133.358 147.437 132.823L147.161 132.549ZM147.707 131.409L147.623 131.444L147.645 131.466C148.388 132.23 149.145 132.953 149.928 133.646L150.008 133.717L150.335 133.415C150.909 132.879 151.475 132.338 152.033 131.79L152.304 131.521L152.275 131.508C152.137 131.443 151.996 131.379 151.851 131.314L151.63 131.216C150.337 130.67 149.382 130.73 147.837 131.356L147.707 131.409ZM155.793 129.46L155.317 129.968C154.995 130.309 154.671 130.647 154.343 130.984L154.114 131.218L154.172 131.249C155.038 131.73 155.776 132.253 156.383 132.831L156.521 132.966C156.655 133.1 156.787 133.237 156.918 133.375L157.068 133.536L157.089 133.519C158.055 132.744 158.738 132.037 159.206 131.278L159.219 131.255L159.095 131.171C157.843 130.323 156.925 129.819 155.954 129.509L155.793 129.46ZM153.877 129.168C152.65 129.16 151.533 129.349 150.501 129.737L150.442 129.76L150.545 129.771C150.771 129.8 150.993 129.849 151.211 129.92L151.32 129.957C151.904 130.179 152.441 130.401 152.945 130.632L153.114 130.71L153.444 130.374C153.78 130.03 154.113 129.683 154.443 129.334L154.561 129.207L154.417 129.193C154.298 129.183 154.178 129.176 154.058 129.171L153.877 129.168Z" fill="#FFB61D"/>
<path fill-rule="evenodd" clip-rule="evenodd" d="M174.738 56.809C175.126 55.9044 176.522 55.5309 177.553 55.908C178.584 56.2848 179.223 57.2273 179.385 58.1817C179.547 59.136 179.301 60.1058 178.986 61.031C178.698 61.8747 178.351 62.7035 177.947 63.5108C177.91 63.586 177.859 63.67 177.767 63.6879C177.668 63.707 177.577 63.6409 177.506 63.5791C175.755 62.0508 174.699 59.9466 174.607 57.8012C174.593 57.4665 174.603 57.1234 174.738 56.809ZM177.765 57.0297C177.478 56.8175 177.107 56.6786 176.728 56.6886C175.845 56.7117 175.229 57.5414 175.248 58.302C175.268 59.0626 175.739 59.7532 176.195 60.4047C176.523 60.8713 176.85 61.3378 177.177 61.8044C177.288 61.9632 177.508 62.1445 177.681 62.0345C177.751 61.9902 177.778 61.9123 177.801 61.8402C177.935 61.4163 178.069 60.9925 178.203 60.5687C178.394 59.9627 178.587 59.347 178.575 58.7192C178.563 58.0913 178.319 57.4383 177.765 57.0297Z" fill="#FFB61D"/>
<path fill-rule="evenodd" clip-rule="evenodd" d="M177.187 59.4644C176.972 59.5165 176.738 59.5065 176.529 59.4368C176.125 59.3009 175.846 58.9284 175.869 58.5552C175.893 58.1823 176.217 57.8376 176.635 57.7403C177.27 57.593 177.984 58.0962 177.942 58.661C177.915 59.0275 177.598 59.3646 177.187 59.4644Z" fill="#FFB61D"/>
</svg>
