<svg width="240" height="171" viewBox="0 0 240 171" fill="none" xmlns="http://www.w3.org/2000/svg">
<path fill-rule="evenodd" clip-rule="evenodd" d="M26.1134 152.389C44.2274 171.436 114.275 160.495 160.398 160.495C180.296 160.495 247.07 170.129 219.496 103.968C129.086 -112.965 -31.2811 92.0359 26.1134 152.389Z" fill="#64FCD9"/>
<path fill-rule="evenodd" clip-rule="evenodd" d="M106.26 153.921C106.348 153.856 106.44 153.785 106.478 153.685C106.601 153.362 106.119 153.147 105.763 153.155C105.247 153.167 104.585 153.503 104.743 153.978C104.834 154.253 105.185 154.38 105.479 154.329C105.773 154.278 106.023 154.097 106.26 153.921ZM107.795 148.265C108.185 148.383 108.57 148.529 108.909 148.749C109.547 149.162 109.98 149.802 110.397 150.424C110.695 150.871 110.998 151.326 111.147 151.837C111.308 152.391 111.279 152.982 111.171 153.549C110.835 155.312 109.708 156.92 108.14 157.879C106.571 158.837 104.584 159.13 102.791 158.668C102.442 158.578 102.09 158.455 101.822 158.222C101.596 158.025 101.444 157.764 101.305 157.503C100.575 156.135 100.082 154.616 100.138 153.078C100.195 151.539 100.849 149.983 102.089 149.016C103.645 147.802 105.887 147.687 107.795 148.265Z" fill="white"/>
<path fill-rule="evenodd" clip-rule="evenodd" d="M190.142 64.5842C189.287 64.5738 188.485 65.2665 188.4 66.0883C188.366 66.4242 188.513 66.8416 188.859 66.888C189.119 66.9224 189.346 66.7291 189.52 66.5401C189.889 66.1408 190.206 65.6971 190.461 65.222C190.546 65.0624 190.622 64.8579 190.51 64.7149C190.428 64.6109 190.277 64.5858 190.142 64.5842ZM189.772 60.899C190.986 61.308 192.086 62.0277 192.93 62.9647C193.655 63.7698 194.208 64.8154 194.056 65.8726C194 66.2607 193.852 66.631 193.682 66.9873C193.042 68.3364 191.94 69.6293 190.428 69.8906C189.635 70.0278 188.817 69.8636 188.054 69.6127C187.171 69.3228 186.33 68.9162 185.56 68.4075C185.152 68.1377 184.747 67.8172 184.568 67.372C184.445 67.065 184.441 66.7272 184.446 66.3979C184.457 65.5838 184.513 64.7559 184.807 63.9928C185.179 63.0273 185.906 62.2302 186.678 61.519C186.988 61.233 187.317 60.9512 187.715 60.7977C188.367 60.5469 189.109 60.6756 189.772 60.899Z" fill="white"/>
<path fill-rule="evenodd" clip-rule="evenodd" d="M190.143 2.16156C195.166 7.16605 199.131 13.15 201.727 19.6442C201.905 20.0903 202.077 20.5854 201.907 21.0346C200.598 24.4914 198.071 27.3738 195.594 30.1762C194.01 31.9666 192.427 33.7575 190.844 35.5479C189.333 37.2575 187.821 38.9672 186.259 40.6339C178.304 49.1188 168.904 56.5384 158.017 61.1034C157.606 61.2758 157.165 61.4474 156.723 61.3786C156.28 61.3098 155.866 60.8966 155.981 60.4799C157.327 55.6377 158.682 50.5753 157.602 45.6721C157.341 44.4893 157.051 43.0003 158.067 42.2887C166.289 36.5266 172.209 28.2907 177.882 20.1664C179.308 18.1236 180.731 16.075 181.994 13.9347C184.235 10.1343 185.961 6.05283 187.114 1.82605C187.273 1.24624 188.034 0.984944 188.637 1.13685C189.239 1.28915 189.71 1.73019 190.143 2.16156Z" fill="white"/>
<path fill-rule="evenodd" clip-rule="evenodd" d="M33.4887 21.602C34.3054 28.734 36.5786 35.7079 40.1389 42.0057C42.3437 45.9047 45.025 49.5304 47.6994 53.1449C49.5605 55.6601 51.5503 58.2812 54.4541 59.5812C55.2263 59.9271 55.1183 61.0021 54.9114 61.7995C54.0155 65.2459 53.5978 68.8074 53.6722 72.3601C53.6794 72.6956 53.6882 73.0435 53.5518 73.3523C53.0884 74.4002 51.5007 74.2255 50.4079 73.7968C43.6449 71.1448 38.4528 65.8118 33.6028 60.5429C27.3055 53.7019 21.1018 46.5611 17.3818 38.1415C17.1289 37.5691 16.8832 36.9668 16.9256 36.3457C16.9689 35.7129 17.3054 35.1377 17.6467 34.5962C21.019 29.2454 25.7106 24.6761 31.222 21.3751C31.6105 21.1428 32.0246 20.9097 32.4812 20.8946C32.9377 20.8792 33.4383 21.1633 33.4887 21.602Z" fill="white"/>
<path fill-rule="evenodd" clip-rule="evenodd" d="M189.157 146.722C189.74 145.768 190.462 144.718 191.594 144.536C192.04 144.465 192.275 143.997 192.427 143.586C194.297 138.518 194.477 132.883 192.934 127.714C192.494 126.239 193.036 124.674 193.573 123.229C194.957 119.499 196.341 115.768 197.725 112.038C196.932 110.713 194.841 110.752 193.77 109.624C192.391 108.173 193.431 105.865 194.511 104.194C200.821 94.4334 207.13 84.6722 213.44 74.911C214.212 73.715 215.909 73.3401 217.331 73.659C218.752 73.9775 219.966 74.8418 221.136 75.6856C225.737 79.0059 230.339 82.3263 234.941 85.6462C237.41 87.4282 240.137 89.7045 239.994 92.6793C239.916 94.3255 238.941 95.7886 237.998 97.1616C234.351 102.47 230.704 107.779 227.057 113.088C225.002 116.078 225.57 120.006 224.949 123.545C223.968 129.137 219.998 133.729 216.323 138.151C212.647 142.574 208.969 147.512 208.763 153.18C208.516 159.935 205.194 166.533 199.845 170.891C201.396 167.254 191.594 168.705 180.38 164.395C182.225 158.089 185.709 152.366 189.157 146.722Z" fill="white"/>
<path fill-rule="evenodd" clip-rule="evenodd" d="M66.0259 162.536C65.3269 161.984 65.104 161.051 64.9804 160.184C63.5523 150.154 69.6855 140.253 68.5928 130.183C68.0298 124.994 65.5617 120.152 62.4555 115.893C60.3104 112.952 60.1904 109.012 60.9906 105.493C61.7909 101.975 63.405 98.6844 64.4938 95.2392C69.3358 79.9192 63.4442 63.5533 57.6191 48.5591C69.2262 43.1372 82.7711 44.1874 95.6297 44.9218C108.488 45.6566 122.318 45.7084 133.035 38.7712C134.504 53.7785 131.265 68.8024 128.044 83.5496C144.386 82.0116 160.729 80.4735 177.07 78.9355C177.539 78.8914 178.051 78.8574 178.441 79.1145C178.96 79.4573 179.04 80.1566 179.07 80.7657C179.834 96.3729 180.297 111.994 180.459 127.618C180.463 128.009 180.449 128.447 180.165 128.725C179.921 128.962 179.549 129.012 179.205 129.049C156.31 131.514 133.414 133.979 110.519 136.443C108.539 136.657 105.719 136.158 105.834 134.228C106.351 125.619 106.05 116.964 104.934 108.409C98.8496 108.187 92.7236 109.083 86.9764 111.037C85.6728 111.48 84.1051 112.671 84.8081 113.825C89.4605 121.463 83.6862 132.942 90.0047 139.353C92.177 141.557 92.0269 145.025 91.5964 148.047C90.6737 154.524 89.1056 160.915 86.9216 167.101C87.9776 159.981 66.6713 166.355 66.0259 162.536Z" fill="white"/>
<path fill-rule="evenodd" clip-rule="evenodd" d="M0.53846 0.901105C0.558026 1.05301 0.472877 1.21266 0.33335 1.28571C0.222234 1.17826 0.111117 1.0708 0 0.963341C0.166575 0.892992 0.355477 0.87289 0.533936 0.906519L0.53846 0.901105Z" fill="#00160A"/>
<path fill-rule="evenodd" clip-rule="evenodd" d="M107.395 148.265C107.785 148.383 108.169 148.529 108.509 148.749C109.147 149.162 109.58 149.802 109.997 150.424C110.295 150.871 110.598 151.326 110.747 151.837C110.908 152.391 110.879 152.982 110.771 153.549C110.435 155.312 109.308 156.92 107.74 157.879C106.171 158.837 104.184 159.13 102.391 158.668C102.041 158.578 101.69 158.455 101.422 158.222C101.196 158.025 101.044 157.764 100.905 157.503C100.174 156.135 99.6819 154.616 99.7383 153.078C99.7947 151.539 100.449 149.983 101.689 149.016C103.245 147.802 105.487 147.687 107.395 148.265ZM105.208 157.423C106.184 157.28 107.042 156.665 107.602 155.881C108.163 155.097 108.45 154.156 108.589 153.213C108.668 152.674 108.675 152.056 108.281 151.667C108.045 151.434 107.709 151.33 107.386 151.237C106.173 150.886 104.789 150.588 103.702 151.216C102.912 151.673 102.471 152.521 102.071 153.323C101.603 154.262 101.719 155.448 102.36 156.287C103.001 157.125 104.141 157.58 105.208 157.423Z" fill="#00160A"/>
<path fill-rule="evenodd" clip-rule="evenodd" d="M151.946 105.947C151.963 105.747 151.988 105.533 152.125 105.382C152.259 105.235 152.469 105.182 152.667 105.137C157.762 103.991 163.025 103.543 168.249 103.81C168.915 103.844 169.771 104.062 169.815 104.704C170.067 108.386 170.319 112.068 170.572 115.75C170.585 115.936 170.591 116.143 170.467 116.287C170.367 116.404 170.204 116.449 170.052 116.487C164.619 117.856 158.891 118.125 153.345 117.274C153.202 117.252 153.052 117.227 152.942 117.137C152.807 117.028 152.76 116.852 152.722 116.687C151.904 113.172 151.642 109.538 151.946 105.947ZM153.148 112.055C153.248 113.446 153.549 114.823 154.041 116.133C154.532 116.201 155.018 116.3 155.507 116.38C159.722 117.069 164.032 116.375 168.246 115.683C168.545 115.634 168.873 115.568 169.057 115.336C169.246 115.098 169.221 114.767 169.187 114.47C169.042 113.201 168.896 111.933 168.751 110.664C168.74 110.562 168.725 110.452 168.653 110.376C168.566 110.283 168.423 110.268 168.295 110.26C165.3 110.069 162.296 110.285 159.303 110.501C157.649 110.62 155.995 110.74 154.341 110.859C153.952 110.887 153.51 110.942 153.287 111.251C153.122 111.478 153.128 111.779 153.148 112.055ZM153.194 106.749C152.932 107.56 152.885 108.434 153.059 109.267C153.09 109.417 153.134 109.574 153.251 109.676C153.426 109.827 153.691 109.802 153.923 109.77C156.741 109.371 159.59 109.173 162.438 109.177C162.84 109.178 162.963 108.656 162.959 108.267C162.952 107.699 162.946 107.13 162.94 106.561C162.936 106.232 162.919 105.87 162.686 105.63C162.405 105.342 161.937 105.351 161.529 105.381C160.585 105.45 159.642 105.52 158.698 105.59C158.246 105.623 157.049 105.919 156.499 105.954C155.541 106.102 154.583 106.249 153.625 106.397C153.523 106.413 153.415 106.431 153.336 106.496C153.26 106.559 153.224 106.656 153.194 106.749ZM165.829 109.223C166.578 109.232 167.327 109.16 168.06 109.007C168.234 108.971 168.417 108.925 168.541 108.802C168.724 108.62 168.722 108.336 168.709 108.083C168.67 107.35 168.632 106.617 168.593 105.884C168.579 105.622 168.549 105.328 168.337 105.164C168.151 105.02 167.888 105.029 167.65 105.044C166.817 105.099 165.985 105.154 165.152 105.208C165.02 105.217 164.881 105.228 164.771 105.298C164.57 105.427 164.539 105.697 164.534 105.93C164.515 106.707 164.548 107.486 164.632 108.259C164.657 108.483 164.69 108.719 164.833 108.896C165.057 109.172 165.466 109.218 165.829 109.223Z" fill="#FFB61D"/>
<path fill-rule="evenodd" clip-rule="evenodd" d="M164.986 89.8556C166.1 89.3906 167.465 89.5463 168.435 90.2494C169.405 90.9526 169.942 92.1756 169.792 93.3383C170.473 92.9819 171.338 92.6313 171.975 93.0588C172.694 93.542 172.53 94.5821 172.422 95.4213C172.233 96.8878 172.478 98.4038 173.119 99.7451C173.384 100.299 173.612 101.14 173.024 101.364C172.925 101.401 172.817 101.41 172.71 101.418C165.816 101.955 158.922 102.491 152.028 103.028C151.838 103.043 151.627 103.051 151.484 102.931C151.338 102.808 151.319 102.599 151.312 102.412C151.246 100.846 151.179 99.2789 151.113 97.7123C151.096 97.2921 151.087 96.8391 151.333 96.492C151.74 95.9172 152.591 95.9192 153.302 95.809C154.014 95.6988 154.842 95.119 154.568 94.4754C154.262 93.7576 155.303 93.2331 156.097 93.1164C156.891 92.9997 157.944 92.5424 157.704 91.8022C157.441 90.9935 158.593 90.4914 159.463 90.3801C160.077 90.3012 160.719 90.2251 161.301 90.4284C161.883 90.6317 162.375 91.2108 162.244 91.7952C162.093 92.4647 162.937 93.0882 163.603 92.8516C164.268 92.6154 164.537 91.7368 164.2 91.1346C163.926 90.6425 164.455 90.0778 164.986 89.8556ZM168.546 100.179C168.289 99.7169 168.287 99.1672 168.284 98.6423C168.273 96.1785 168.117 93.7151 167.815 91.2687C167.8 91.1451 167.776 91.0071 167.671 90.9348C167.581 90.8725 167.46 90.8799 167.349 90.8899C166.811 90.9382 166.172 91.0534 165.959 91.5339C165.869 91.7388 165.879 91.9703 165.892 92.1929C166.028 94.6625 166.165 97.1317 166.302 99.6013C166.314 99.8313 166.346 100.095 166.544 100.224C166.652 100.294 166.787 100.307 166.917 100.314C167.463 100.343 168.013 100.297 168.546 100.179ZM159.274 96.3818C159.207 96.7935 159.113 97.2017 159.088 97.6176C159.046 98.3122 159.198 99.0029 159.348 99.6836C159.445 100.12 160.029 100.335 160.456 100.166C160.885 99.9983 161.143 99.5572 161.214 99.1162C161.285 98.6752 161.202 98.2268 161.129 97.7861C160.843 96.0548 160.72 94.2988 160.76 92.5459C160.77 92.1025 160.322 91.7021 159.865 91.7457C159.408 91.7894 159.051 92.2672 159.151 92.7001C159.43 93.9057 159.472 95.1616 159.274 96.3818ZM163.808 94.017C163.539 93.6769 162.923 93.8582 162.713 94.235C162.504 94.6119 162.568 95.0688 162.62 95.494C162.756 96.6033 162.768 97.727 162.658 98.8394C162.626 99.1672 162.59 99.5255 162.777 99.8008C163.065 100.224 163.698 100.22 164.22 100.169C164.383 100.153 164.571 100.122 164.654 99.9848C164.711 99.8889 164.697 99.7702 164.682 99.6604C164.442 97.9346 164.201 96.2091 163.96 94.4832C163.938 94.3197 163.912 94.148 163.808 94.017ZM169.78 94.7588C169.577 95.0255 169.534 95.3726 169.517 95.7031C169.457 96.836 169.612 97.9678 169.767 99.0922C169.828 99.5352 170.038 100.105 170.499 100.074C170.967 100.044 171.089 99.4394 171.078 98.9863C171.05 97.7873 171.021 96.5879 170.992 95.3884C170.984 95.0734 170.95 94.7081 170.679 94.5319C170.395 94.3475 169.982 94.4921 169.78 94.7588ZM155.648 94.4754C155.648 94.4754 155.854 96.0405 155.925 96.838C156.015 97.8391 156.13 98.8383 156.269 99.834C156.289 99.979 156.316 100.135 156.427 100.235C156.618 100.408 157.357 100.293 157.493 100.077C157.629 99.8607 157.621 99.5909 157.609 99.3381C157.572 98.5387 157.535 97.739 157.497 96.9396C157.457 96.0827 157.246 94.235 157.246 94.235M152.969 100.143C153.028 100.322 153.098 100.51 153.248 100.63C153.541 100.864 154.016 100.719 154.246 100.427C154.477 100.136 154.529 99.7513 154.573 99.3864C154.627 98.9388 154.68 98.4738 154.53 98.0471C154.38 97.6207 153.965 97.245 153.5 97.2848C153.073 97.3211 152.742 97.6984 152.642 98.1016C152.542 98.5047 152.626 98.9272 152.73 99.3292C152.801 99.6029 152.88 99.8742 152.969 100.143Z" fill="#E7EAEE"/>
<path fill-rule="evenodd" clip-rule="evenodd" d="M180.916 36.05C180.359 36.8571 179.756 37.6747 178.895 38.1733C178.033 38.6715 176.845 38.7686 176.07 38.1509C175.217 37.469 175.164 36.2402 175.232 35.1722C175.258 34.7613 175.292 34.3466 175.414 33.9519C175.625 33.2674 176.087 32.6829 176.569 32.1414C177.154 31.4839 177.802 30.85 178.614 30.4801C179.425 30.1101 180.433 30.0452 181.194 30.5056C182.104 31.0564 182.441 32.228 182.268 33.2523C182.096 34.2762 181.512 35.1865 180.916 36.05ZM179.149 36.9039C179.85 36.1819 180.452 35.369 180.934 34.4942C181.25 33.9187 181.519 33.2929 181.507 32.6412C181.494 31.9895 181.138 31.308 180.512 31.0664C179.696 30.7514 178.799 31.2551 178.118 31.7904C177.632 32.1719 177.162 32.5898 176.85 33.1143C176.653 33.4456 176.525 33.8105 176.398 34.1722C176.158 34.8572 175.915 35.5711 176.006 36.2885C176.098 37.0063 176.629 37.7268 177.374 37.8011C178.063 37.8699 178.675 37.3917 179.149 36.9039Z" fill="#FFB61D"/>
<path fill-rule="evenodd" clip-rule="evenodd" d="M37.532 45.1735C38.4039 46.0266 39.1238 47.0246 39.6503 48.1104C40.1797 49.2016 39.6459 50.6039 38.6076 51.2715C37.5692 51.939 36.1652 51.9301 35.0264 51.4385C33.8876 50.9464 32.9929 50.0284 32.3339 49.0052C31.8369 48.2337 31.4516 47.3694 31.4104 46.4618C31.3688 45.5542 31.7149 44.5991 32.4579 44.0425C33.2098 43.4797 34.2669 43.3993 35.176 43.6691C36.0851 43.9393 36.8638 44.5195 37.532 45.1735ZM34.1297 44.6544C33.3754 44.5794 32.7052 45.2485 32.5756 45.9705C32.4463 46.6922 32.7312 47.4251 33.0998 48.0652C33.8992 49.4536 35.3257 50.687 36.9682 50.6105C37.8129 50.5707 38.7384 50.0056 38.7236 49.1892C38.7172 48.8359 38.5368 48.5101 38.3567 48.2028C37.8781 47.3864 37.3612 46.5782 36.6709 45.918C35.9807 45.2578 35.096 44.7506 34.1297 44.6544Z" fill="#FFB61D"/>
<path fill-rule="evenodd" clip-rule="evenodd" d="M103.464 152.588C104.069 152.144 104.822 151.856 105.582 151.903C106.341 151.95 107.092 152.371 107.41 153.039C107.751 153.756 107.538 154.646 107.006 155.244C106.475 155.843 105.673 156.173 104.865 156.283C104.313 156.357 103.655 156.29 103.353 155.838C103.207 155.62 103.174 155.351 103.145 155.093C103.093 154.629 103.04 154.166 102.987 153.703C102.965 153.506 102.943 153.302 103.009 153.115C103.086 152.895 103.272 152.729 103.464 152.588ZM105.86 153.921C105.948 153.856 106.04 153.785 106.078 153.684C106.201 153.362 105.719 153.147 105.363 153.155C104.847 153.166 104.185 153.503 104.343 153.977C104.434 154.253 104.785 154.38 105.079 154.329C105.373 154.278 105.623 154.097 105.86 153.921Z" fill="#00160A"/>
<path fill-rule="evenodd" clip-rule="evenodd" d="M189.259 4.42019C193.978 9.13942 197.703 14.7829 200.141 20.9071C200.308 21.3277 200.471 21.795 200.311 22.2183C199.081 25.4787 196.707 28.1965 194.379 30.8392L189.917 35.9055C188.497 37.5178 187.077 39.13 185.609 40.7017C178.135 48.7034 169.305 55.7005 159.076 60.0053C158.691 60.1681 158.277 60.33 157.861 60.2651C157.445 60.2001 157.056 59.8105 157.165 59.4174C158.429 54.8512 159.701 50.0771 158.687 45.453C158.442 44.3375 158.169 42.9332 159.123 42.2621C166.848 36.8282 172.41 29.0611 177.739 21.3996C179.08 19.4731 180.416 17.5412 181.602 15.5227C183.708 11.9387 185.33 8.08959 186.413 4.10401C186.562 3.55667 187.277 3.31045 187.843 3.45385C188.41 3.59726 188.852 4.01356 189.259 4.42019ZM185.956 10.2809C185.476 10.0891 185.034 10.6075 184.79 11.0497C184.525 11.5286 184.261 12.0083 183.997 12.488C179.107 21.3602 174.143 30.3688 166.691 37.357C165.987 38.0172 165.2 38.8146 165.33 39.7543C165.746 42.7662 164.082 45.9466 161.324 47.4085C160.073 48.0726 160.088 49.7853 160.271 51.1532C160.344 51.701 160.558 52.3875 161.128 52.4338C162.799 52.5699 164.403 53.3646 165.492 54.5961C165.835 54.9846 166.486 54.7419 166.935 54.4697C178.207 47.6242 186.868 37.5124 195.324 27.5776C195.616 27.2347 195.927 26.803 195.775 26.3844C194.495 22.863 194.7 18.8608 196.334 15.4786C195.37 13.626 194.221 11.8633 192.908 10.2225C190.724 11.1382 188.156 11.1598 185.956 10.2809ZM159.219 58.1971C159.664 58.4221 160.202 58.2083 160.647 57.9837C161.816 57.3943 162.942 56.7252 164.014 55.983C164.297 55.7867 164.382 55.3951 164.282 55.0727C164.181 54.7504 163.931 54.4902 163.653 54.2865C162.786 53.6511 161.575 53.4841 160.558 53.8598C160.371 53.9294 160.184 54.0198 160.055 54.1682C159.903 54.3426 159.848 54.5741 159.799 54.7967C159.554 55.9212 159.36 57.0561 159.219 58.1971ZM190.875 7.93613C190.109 6.48933 188.927 5.25047 187.498 4.39429C187 4.81755 186.904 5.46114 186.805 6.11709V6.11748C186.738 6.56741 186.669 7.02352 186.469 7.41856C186.405 7.54728 186.325 7.67019 186.246 7.79311C186.095 8.02658 185.944 8.25927 185.896 8.52792C185.822 8.93726 186.181 9.45058 186.588 9.31529C186.918 9.20513 187.265 9.27587 187.615 9.34738C187.799 9.38487 187.984 9.42275 188.168 9.43435C189.242 9.50122 190.133 8.68872 190.875 7.93613ZM196.945 16.6069C196.125 18.1836 196.254 20.0456 196.404 21.8043L196.618 24.3268C196.641 24.604 196.797 24.9785 197.074 24.9016C197.246 24.437 197.573 24.0535 197.901 23.6693C198.189 23.3334 198.476 22.9964 198.661 22.6037C199.288 21.2732 198.592 19.7402 197.907 18.4372L196.945 16.6069ZM160.216 44.6011C160.251 45.0947 160.781 45.4638 161.293 45.4499C161.804 45.436 162.265 45.1163 162.564 44.7151C162.863 44.3135 163.027 43.8357 163.187 43.3657L163.714 41.8145C163.861 41.382 163.87 40.7206 163.402 40.67C163.233 40.6514 163.072 40.738 162.933 40.8331C162.408 41.1938 162.026 41.7113 161.654 42.2192L160.64 43.6022C160.421 43.9022 160.191 44.2346 160.216 44.6011ZM39.3386 40.4605C35.7783 34.163 33.5051 27.1891 32.6884 20.0568C32.638 19.618 32.1375 19.3339 31.6809 19.3494C31.2244 19.3645 30.8102 19.5976 30.4217 19.8303C24.9103 23.1313 20.2187 27.7001 16.8464 33.0513C16.5051 33.5929 16.1686 34.1681 16.1253 34.8008C16.0829 35.4216 16.3286 36.0242 16.5815 36.5963C20.3015 45.0158 26.5052 52.1571 32.8025 58.9976C37.6525 64.2665 42.8446 69.5999 49.6077 72.252C50.7004 72.6806 52.2881 72.855 52.7515 71.8071C52.8863 71.5021 52.8791 71.1592 52.8723 70.8276L52.8719 70.8148C52.7975 67.2625 53.2153 63.7006 54.1111 60.2546C54.318 59.4572 54.426 58.3819 53.6538 58.0363C50.75 56.7364 48.7602 54.1153 46.8992 51.5997C44.2247 47.9852 41.5434 44.3599 39.3386 40.4605ZM45.6243 67.9889C45.2242 68.0917 44.8249 67.8482 44.4908 67.6116C38.3359 63.2553 33.5659 57.3591 28.8796 51.5421L20.6092 41.2768C22.0049 40.418 22.1822 38.5518 22.2126 36.9531C22.2522 34.875 22.281 32.7359 21.5039 30.7978C21.3315 30.3672 21.5563 29.8899 21.7972 29.4906C22.8296 27.779 24.2616 26.2935 25.9558 25.1772C26.1199 25.069 26.2935 24.9619 26.49 24.9349C27.009 24.8641 27.4071 25.3515 27.6844 25.781C28.7791 27.4771 30.284 29.3955 32.3483 29.2559C33.1342 29.2026 33.5703 30.097 33.7996 30.8253C36.651 39.8811 42.0047 48.049 48.2832 55.3159C49.0991 56.2602 49.3036 57.535 49.5064 58.7978C49.7325 60.2063 49.9566 61.6002 51.0229 62.5054C51.9336 63.2789 51.7648 64.6673 51.5187 65.8142C51.4687 66.0488 51.4087 66.3001 51.2242 66.4601C51.0873 66.5792 50.9021 66.6286 50.724 66.6746L45.6243 67.9889ZM31.0327 27.1582C29.9035 26.396 28.928 25.4223 28.1769 24.3067C28.0145 24.0655 27.8568 23.795 27.8852 23.5085C27.9161 23.197 28.1589 22.9477 28.4002 22.7389C28.9964 22.2237 29.6702 21.7923 30.3937 21.4626C30.6586 21.3416 31.0007 21.2438 31.2208 21.4305C31.3504 21.5403 31.3916 21.7162 31.4252 21.8797L32.468 26.9182C32.5296 27.2158 32.2063 27.4841 31.8922 27.493C31.5777 27.5015 31.2904 27.3322 31.0327 27.1582ZM20.7121 36.9036C20.6901 37.8514 20.6152 38.9151 19.8798 39.5428C19.7261 39.5602 19.6237 39.3971 19.5637 39.2595C19.0339 38.0481 18.4969 36.8073 18.4133 35.495C18.3301 34.1824 18.7854 32.7611 19.8958 32.0004C20.0458 31.8972 20.2663 31.8121 20.3988 31.9358C20.452 31.9853 20.4748 32.0572 20.4944 32.1264C20.7961 33.1978 20.7725 34.3261 20.7465 35.4359L20.7121 36.9036ZM50.6744 68.4276C50.8525 68.5687 50.8717 68.8207 50.8765 69.0433L50.9293 71.4793C49.895 70.9254 48.9038 70.2957 47.9675 69.5976C47.7902 69.4654 47.595 69.2509 47.7038 69.0615C47.7578 68.9676 47.8699 68.9223 47.9739 68.8852C48.6433 68.6467 49.3356 68.4678 50.0386 68.3514C50.2559 68.3155 50.5035 68.2927 50.6744 68.4276ZM50.734 58.8322C50.7244 58.722 50.7244 58.6022 50.792 58.5133C50.9709 58.2787 51.3582 58.4913 51.5223 58.7355C51.9168 59.3242 52.004 60.0954 51.7504 60.7525C51.1706 60.2724 50.7972 59.567 50.734 58.8322ZM204.816 40.3352C205.847 39.0809 207.727 38.9004 209.384 38.9395C209.771 38.9484 210.17 38.9665 210.522 39.1219C211.503 39.5537 211.711 40.7914 211.744 41.8319C211.774 42.7785 211.769 43.7379 211.531 44.6567C211.292 45.5755 210.8 46.4607 210.012 47.0246C209.658 47.2782 209.247 47.463 208.812 47.5333C208.14 47.6419 207.453 47.4754 206.815 47.2458C205.964 46.94 205.157 46.5198 204.425 46.0015C204.067 45.7483 203.698 45.417 203.686 44.9888C203.66 44.0012 203.774 43.0105 204.026 42.0526C204.186 41.4407 204.409 40.8296 204.816 40.3352ZM207.49 46.5821C208.813 46.9493 210.221 45.9601 210.723 44.7209C211.224 43.482 211.039 42.0901 210.763 40.7867C210.657 40.2862 210.104 40.0067 209.594 39.873C208.803 39.6658 207.963 39.6383 207.161 39.7933C206.762 39.8702 206.354 40.0024 206.075 40.2873C205.922 40.4427 205.817 40.6348 205.713 40.8238L204.938 42.2397C204.801 42.489 204.663 42.7403 204.583 43.0108C204.344 43.821 204.661 44.7209 205.246 45.3451C205.832 45.9698 206.651 46.3498 207.49 46.5821ZM189.772 60.899C190.986 61.308 192.086 62.0277 192.93 62.9646C193.655 63.7702 194.208 64.8154 194.056 65.8726C194 66.261 193.852 66.631 193.682 66.9873C193.042 68.3363 191.94 69.6297 190.428 69.891C189.635 70.0278 188.817 69.8636 188.054 69.6127C187.171 69.3228 186.33 68.9162 185.56 68.4075C185.153 68.1377 184.747 67.8172 184.568 67.3719C184.445 67.065 184.441 66.7272 184.446 66.3979C184.457 65.5838 184.513 64.7559 184.807 63.9928C185.179 63.0273 185.906 62.2302 186.678 61.519C186.988 61.233 187.317 60.9512 187.715 60.7977C188.367 60.5469 189.109 60.6756 189.772 60.899ZM191.013 67.995C191.89 67.1566 192.401 65.941 192.262 64.7562C192.123 63.5715 191.293 62.4598 190.132 62.0555C189.649 61.8874 189.114 61.8402 188.62 61.9724C188.353 62.0439 188.103 62.1653 187.87 62.3087C186.87 62.9225 186.169 63.9696 185.998 65.1018C185.828 66.234 186.192 67.4311 186.969 68.2942C187.467 68.8473 188.279 69.0843 189.031 68.9923C189.783 68.9007 190.474 68.5103 191.013 67.995ZM80.2206 53.9151C80.1798 53.3565 79.4067 53.2104 78.8273 53.2266C75.7855 53.3132 72.7473 53.5332 69.7263 53.8865C69.2298 53.9444 69.1897 54.7171 69.5879 55.0093C69.9864 55.3012 70.541 55.2471 71.036 55.1786L80.2206 53.9151ZM70.4962 57.6923C70.5226 57.4047 70.8967 57.3007 71.1936 57.2683L89.1108 55.3081C89.4349 55.2726 89.7802 55.2405 90.0719 55.3816C90.3632 55.5223 90.5512 55.908 90.3608 56.1639C90.2203 56.3522 89.9514 56.3904 89.7122 56.4129L71.3861 58.131C71.0051 58.1666 70.4626 58.0607 70.4962 57.6923ZM110.664 60.6079C109.661 60.8205 108.632 60.4711 107.671 60.124C104.563 59.0019 101.466 57.8484 98.3822 56.6645C97.1374 56.1863 95.7714 56.9022 94.6518 57.6127C91.4115 59.669 88.2917 61.9024 85.3127 64.299C84.5476 64.9143 83.37 64.4826 82.5982 63.8746C82.4349 63.7462 82.2745 63.609 82.1132 63.4714C81.5122 62.9581 80.9032 62.4386 80.1258 62.3319C78.9306 62.168 77.8794 63.0431 77.0131 63.8556L71.4285 69.0951C70.6774 69.7998 69.8868 70.9281 70.5554 71.7066C70.9963 72.2203 71.8062 72.194 72.4924 72.1175C76.0752 71.7162 79.64 71.1534 83.204 70.591C89.0944 69.6618 94.9815 68.7329 100.939 68.5335C102.259 68.4894 103.58 68.4813 104.901 68.4732C105.728 68.4682 106.556 68.4631 107.383 68.4492C111.113 68.3862 114.84 68.1435 118.546 67.7221C118.725 67.7017 118.929 67.6661 119.022 67.5165C119.092 67.4036 119.075 67.2614 119.055 67.1311L117.485 56.8148C117.405 56.2907 117.266 55.685 116.77 55.4585C116.269 55.2297 115.679 55.5246 115.268 55.8837C114.624 56.4449 114.129 57.191 113.64 57.9265C112.837 59.1333 112.053 60.3126 110.664 60.6079ZM85.1758 66.2525C88.5278 63.5901 92.0229 61.0957 95.6425 58.7831C96.386 58.3084 97.2891 57.8222 98.1197 58.1337L106.896 61.4286C108.361 61.9782 109.963 62.5352 111.467 62.0946C113.215 61.582 114.26 59.9017 115.141 58.3556C115.311 58.0545 115.81 58.0893 116.057 58.3363C116.303 58.5836 116.365 58.947 116.416 59.2868L117.058 63.5889C117.157 64.2495 117.254 64.9348 117.056 65.5745C116.859 66.2139 116.278 66.7948 115.588 66.7821C104.29 66.5714 92.9708 67.4713 81.8608 69.4635C81.5182 69.525 81.1757 69.5872 80.8328 69.6498H80.832L80.8316 69.6502H80.8312H80.8304L80.83 69.6506H80.8292H80.8288H80.828C78.1739 70.1349 75.5102 70.6208 72.8129 70.6293C74.1154 68.8474 75.7659 67.3337 77.4049 65.8328C78.3044 65.0087 79.4295 64.12 80.6376 64.3894C81.2902 64.5351 81.7903 64.9878 82.2881 65.4385C82.4477 65.5827 82.607 65.7268 82.7711 65.861C83.4469 66.4118 84.4928 66.7948 85.1758 66.2525ZM230.114 96.2625C229.814 96.3703 229.48 96.2969 229.175 96.2041C227.109 95.5768 225.431 94.1736 223.782 92.7948C223.559 92.6081 223.336 92.4218 223.113 92.2378C220.381 89.9866 217.416 87.9991 214.276 86.3149C213.957 86.1433 213.622 85.9632 213.426 85.6652C213.231 85.3668 213.237 84.913 213.538 84.7139C214.946 83.7854 215.859 82.1921 215.926 80.547C215.944 80.1083 216.457 79.8161 216.91 79.8513C217.363 79.8865 217.757 80.1493 218.128 80.4032L232.473 90.2402C232.752 90.4316 233.053 90.6538 233.121 90.9777C233.177 91.2425 233.063 91.51 232.947 91.7558C232.328 93.0747 231.617 94.353 230.819 95.5787C230.638 95.8562 230.432 96.148 230.114 96.2625ZM215.762 84.5929C215.594 84.8805 215.448 85.296 215.721 85.4947L227.427 94.0093C228.068 94.4755 229.064 94.9127 229.569 94.3097C230.149 93.6178 230.69 92.8961 231.19 92.1482C231.327 91.9437 231.466 91.7098 231.417 91.471C231.372 91.253 231.182 91.0949 231.004 90.9545C226.708 87.5897 222.159 84.5257 217.405 81.7944L215.762 84.5929ZM209.936 89.8C210.125 89.4869 210.355 89.144 210.722 89.0671C211.002 89.0079 211.288 89.1243 211.546 89.2457C212.956 89.9066 214.247 90.803 215.345 91.8826C215.609 92.1428 215.642 92.5606 215.524 92.9069C215.407 93.2529 215.164 93.544 214.926 93.8269C214.545 94.2815 214.138 94.7542 213.574 94.9699C212.966 95.2026 212.259 95.0905 211.683 94.7909C211.107 94.4914 210.645 94.0225 210.237 93.5281C209.706 92.8834 209.23 92.1099 209.313 91.2897C209.367 90.752 209.655 90.2665 209.936 89.8ZM212.402 93.4102C213.288 93.7434 213.855 93.4794 213.879 92.9178C213.893 92.5633 213.573 92.2904 213.282 92.074L212.402 91.4199C212.111 91.2035 211.79 90.977 211.423 90.9793C211.056 90.9816 210.682 91.3473 210.832 91.6708C210.81 91.8273 211.515 93.0774 212.402 93.4102ZM208.903 100.324C209.119 100.438 209.348 100.55 209.594 100.555C209.841 100.56 210.108 100.425 210.169 100.194C210.311 99.6528 210.682 99.2036 211.045 98.7637C211.084 98.7158 211.124 98.6679 211.163 98.6199C211.561 98.1337 211.945 97.5825 211.956 96.9629C211.966 96.3429 211.435 95.6823 210.799 95.7669C210.299 95.8338 209.832 95.5164 209.469 95.1771C209.411 95.1229 209.353 95.0677 209.295 95.012C208.991 94.7186 208.682 94.4206 208.277 94.2934C207.797 94.1419 207.142 94.3827 207.104 94.8698C207.027 95.8508 206.183 96.5891 205.401 97.2184C205.166 97.4066 205.378 97.768 205.597 97.9725C206.584 98.894 207.699 99.6872 208.903 100.324ZM209.059 98.4549L207.517 97.4472C207.125 97.1909 207.157 96.5636 207.506 96.2551C207.856 95.9467 208.399 95.9231 208.844 96.0777C209.29 96.2319 209.661 96.5346 210.021 96.8314C210.259 97.0278 210.292 97.3857 210.183 97.6695C210.074 97.9532 209.852 98.1805 209.636 98.3992C209.562 98.4742 209.479 98.5535 209.372 98.567C209.259 98.5809 209.153 98.5164 209.059 98.4549ZM221.282 98.521L222.036 96.9737C222.267 96.4998 222.491 95.9134 222.179 95.4851C222.071 95.3363 221.911 95.2316 221.755 95.1299L219.012 93.3441C218.717 93.1516 218.396 92.9514 218.039 92.9572C217.617 92.9634 217.262 93.2548 216.962 93.5424C216.513 93.973 216.092 94.4318 215.705 94.9158C215.41 95.2838 215.168 95.8895 215.571 96.145L219.768 98.8051C220.099 99.015 220.52 99.2307 220.867 99.0478C221.072 98.9408 221.183 98.7243 221.282 98.521ZM220.352 97.4256C220.176 97.465 219.992 97.4217 219.819 97.371C218.759 97.0626 217.789 96.472 217.044 95.6815C216.796 95.4186 216.936 94.954 217.251 94.7697C217.566 94.5857 217.976 94.6278 218.315 94.7654C218.534 94.8543 218.735 94.9784 218.935 95.1025C219.045 95.1701 219.156 95.2381 219.269 95.3008C219.391 95.3676 219.518 95.4291 219.645 95.4905C220.005 95.6653 220.367 95.8404 220.613 96.1423C220.945 96.5512 220.876 97.3092 220.352 97.4256ZM221.77 99.1541C222.253 99.0428 222.401 98.5666 222.555 98.0715C222.681 97.6621 222.813 97.24 223.14 97.0008C223.705 96.5887 224.504 96.9331 225.112 97.2825L227.045 98.3934C227.353 98.5705 227.669 98.7537 227.89 99.0266C228.111 99.2991 228.219 99.6856 228.065 99.998C227.962 100.207 227.767 100.345 227.57 100.484C227.409 100.599 227.247 100.713 227.134 100.868C226.988 101.067 226.934 101.317 226.881 101.563C226.814 101.872 226.748 102.177 226.504 102.371C226.059 102.725 225.397 102.442 224.905 102.151L222.181 100.543C221.906 100.381 221.616 100.203 221.481 99.9203C221.346 99.6381 221.456 99.226 221.77 99.1541ZM225.341 100.751C225.73 100.622 226.044 100.343 226.345 100.071C226.563 99.8735 226.271 99.5492 226.011 99.4073L224.342 98.4997C224.168 98.405 223.926 98.3188 223.791 98.4611C223.356 98.9191 223.293 99.6671 223.645 100.187C223.997 100.708 224.732 100.952 225.341 100.751ZM206.193 100.694C205.819 100.593 205.439 100.489 205.134 100.288C204.66 99.9759 204 100.052 203.503 100.328C203.006 100.603 202.635 101.046 202.276 101.478C202.077 101.718 201.872 101.968 201.796 102.266C201.72 102.565 201.811 102.927 202.089 103.076L204.999 104.643C205.219 104.762 205.466 104.885 205.712 104.832C205.957 104.779 206.126 104.569 206.274 104.373L207.023 103.377C207.44 102.823 207.875 102.117 207.57 101.499C207.326 101.003 206.767 100.851 206.193 100.694ZM205.272 103.273C205.12 103.311 204.963 103.241 204.823 103.171L202.84 102.197C203.221 101.676 203.946 101.476 204.604 101.539C205.261 101.602 205.872 101.884 206.466 102.162L205.555 103.076C205.473 103.158 205.386 103.243 205.272 103.273ZM191.537 64.297C191.844 64.7493 191.748 65.3534 191.544 65.8571C191.275 66.5208 190.822 67.1358 190.181 67.4891C189.54 67.842 188.699 67.8938 188.074 67.5142C187.45 67.1346 187.136 66.2908 187.471 65.6557C187.549 65.5088 187.654 65.3786 187.759 65.2483C187.861 65.1238 187.962 64.9994 188.038 64.8598C188.088 64.7682 188.128 64.6708 188.167 64.5738C188.223 64.4335 188.28 64.2936 188.369 64.1714C188.687 63.7366 189.313 63.6511 189.863 63.6589C190.488 63.6674 191.194 63.7922 191.537 64.297ZM190.142 64.5842C189.287 64.5738 188.485 65.2665 188.4 66.0882C188.366 66.4241 188.513 66.8416 188.859 66.888C189.119 66.9224 189.346 66.7291 189.52 66.5401C189.889 66.1408 190.206 65.6971 190.461 65.222C190.546 65.0624 190.622 64.8579 190.51 64.7149C190.428 64.6109 190.277 64.5858 190.142 64.5842ZM210.589 43.0449C210.523 42.2888 209.999 41.5451 209.238 41.3553C208.272 41.1149 207.335 41.772 206.568 42.3885C206.341 42.571 206.104 42.7669 206.008 43.0368C205.845 43.4944 206.138 43.9764 206.427 44.3715C206.758 44.8241 207.112 45.279 207.594 45.5782C208.077 45.8774 208.721 45.9938 209.228 45.7336C209.486 45.601 209.687 45.3846 209.862 45.1581C210.331 44.5493 210.654 43.8009 210.589 43.0449ZM208.446 44.9837C208.118 45.0309 207.778 44.9033 207.537 44.6842C207.176 44.3556 207.033 43.8272 207.159 43.3638C207.292 42.876 207.716 42.4728 208.223 42.3526C208.73 42.232 209.299 42.3994 209.651 42.7724C209.638 42.874 209.627 42.9765 209.616 43.0789C209.579 43.4268 209.541 43.775 209.417 44.1013C209.255 44.5241 208.907 44.9169 208.446 44.9837ZM182.436 162.94C184.217 156.852 187.581 151.326 190.91 145.877C191.473 144.956 192.17 143.941 193.262 143.767C193.693 143.698 193.92 143.246 194.067 142.849C195.873 137.956 196.046 132.515 194.557 127.524C194.132 126.1 194.655 124.589 195.173 123.194L199.183 112.389C198.766 111.692 197.977 111.386 197.179 111.076C196.51 110.816 195.835 110.554 195.364 110.058C194.033 108.657 195.037 106.429 196.079 104.815L214.355 76.5417C215.101 75.3872 216.739 75.025 218.112 75.3327C219.485 75.6404 220.657 76.4749 221.786 77.2897L235.115 86.9071C237.5 88.6276 240.132 90.8254 239.995 93.6974C239.919 95.2868 238.977 96.6996 238.067 98.0251L227.503 113.402C226.137 115.391 225.971 117.808 225.805 120.236C225.73 121.335 225.654 122.435 225.468 123.499C224.557 128.691 220.978 132.99 217.549 137.11L217.335 137.367C217.269 137.445 217.204 137.524 217.139 137.602C213.59 141.872 210.039 146.64 209.84 152.112C209.602 158.635 206.394 165.005 201.229 169.212L205.724 158.679C206.793 156.174 207.783 153.058 205.994 150.971C205.184 150.027 203.961 149.527 202.787 149.062L195.807 146.295C195.325 146.104 194.829 145.91 194.309 145.907C192.687 145.898 191.722 147.597 191.065 149.029C188.79 153.983 185.885 158.666 182.436 162.94ZM205.389 148.636C206.585 149.064 208.271 149.324 208.838 148.219C211.583 142.874 214.403 137.426 218.773 133.208C221.291 130.777 222.835 127.533 223.708 124.199C224.582 120.865 224.829 117.412 225.073 113.981C224.012 114.354 223.92 115.736 223.925 116.826C223.935 119.229 223.5 121.633 222.647 123.89C222.468 124.363 222.229 124.873 221.75 125.073C221.273 125.272 220.568 124.872 220.729 124.393C221.962 120.721 222.421 116.809 222.071 112.964C221.963 111.771 221.733 110.496 220.856 109.651C220.951 111.533 221.046 113.424 220.848 115.299C220.507 118.544 219.303 121.637 218.109 124.687C217.954 125.083 217.767 125.515 217.373 125.701C216.98 125.887 216.369 125.592 216.471 125.18L218.259 118.043C219.242 114.119 220.208 109.898 218.687 106.137C217.92 106.088 217.74 107.146 217.808 107.885C218.277 112.946 216.829 117.968 215.395 122.857C215.227 123.428 214.635 124.141 214.175 123.749C213.976 123.58 213.967 123.288 213.983 123.033C214.073 121.595 214.482 120.203 214.889 118.813C215.015 118.382 215.142 117.95 215.259 117.518C216.336 113.531 216.611 109.343 216.063 105.257C215.119 106.426 214.719 107.909 214.341 109.346L212.098 117.876C211.083 121.732 209.788 125.971 206.271 128.042C205.991 128.207 205.667 128.361 205.347 128.287C204.951 128.197 204.726 127.801 204.56 127.441C202.316 122.558 202.036 116.861 203.79 111.794C203.897 111.487 203.573 111.166 203.239 111.14C202.904 111.115 202.591 111.291 202.316 111.478C199.437 113.44 198.335 116.995 197.419 120.282L196.201 124.652C196.023 125.291 195.844 125.935 195.807 126.595C195.751 127.598 196.022 128.58 196.292 129.556C196.354 129.783 196.417 130.009 196.475 130.235C197.646 134.775 197.117 139.707 195.007 143.919C194.696 144.54 195.517 145.105 196.187 145.345L205.389 148.636ZM209.937 106.925C209.457 106.605 208.943 106.241 208.794 105.696C208.566 104.861 209.39 104.022 210.276 103.91C211.162 103.798 212.03 104.211 212.764 104.703C213.799 105.396 215.108 104.339 215.883 103.38C214.838 102.776 213.841 101.839 213.8 100.663C213.759 99.4873 215.238 98.3675 216.223 99.0594C216.605 99.3281 217.068 99.4924 217.525 99.6547C218.21 99.8982 218.883 100.137 219.259 100.717C219.686 101.376 219.534 102.267 219.099 102.921C218.664 103.576 217.995 104.045 217.341 104.499C218.279 104.589 219.193 104.912 219.969 105.429L220.815 103.047C220.881 102.863 220.952 102.669 221.103 102.539C221.393 102.288 221.844 102.365 222.215 102.479C223.19 102.778 224.145 103.244 224.788 104.012C225.431 104.779 225.699 105.895 225.25 106.781C224.801 107.668 223.533 108.141 222.673 107.607C222.495 107.496 222.316 107.347 222.136 107.199C221.658 106.803 221.179 106.406 220.716 106.723C222.128 107.786 223.098 109.381 223.37 111.089C227.814 104.549 232.211 97.9787 236.56 91.379C236.975 90.7489 237.31 89.7559 236.634 89.3937C233.746 87.8456 231.193 85.773 228.647 83.705C225.432 81.0948 222.228 78.4926 218.37 76.9642C218.126 76.8672 217.858 76.7737 217.602 76.8386C217.334 76.907 217.145 77.1324 216.976 77.345C209.794 86.4011 203.347 96.0027 197.716 106.031C196.931 107.43 197.982 109.098 198.988 110.359C199.491 110.988 200.461 111.654 201.009 111.061C201.7 110.313 202.832 109.885 203.81 110.219C204.789 110.553 205.397 111.782 204.865 112.642C204.481 113.265 205.234 113.957 205.892 114.305C207.207 115.001 208.556 115.637 209.933 116.21C210.124 116.29 210.347 116.368 210.533 116.278C210.711 116.192 210.783 115.988 210.838 115.804L212.364 110.734C212.615 109.9 212.782 108.818 212.042 108.326L209.937 106.925ZM237.223 92.7125C237.02 92.6452 236.835 92.8412 236.716 93.0132L225.296 109.528C224.988 109.973 224.673 110.434 224.584 110.962C224.494 111.489 224.695 112.102 225.191 112.337C226.014 112.725 226.874 111.909 227.402 111.186L238.014 96.6575C238.802 95.5787 238.135 94.104 237.46 92.9556C237.402 92.8567 237.334 92.7496 237.223 92.7125ZM205.068 114.766C204.866 114.625 204.566 114.709 204.397 114.885C204.229 115.062 204.161 115.305 204.097 115.537C203.941 116.109 203.784 116.686 203.761 117.277C203.738 117.868 203.849 118.456 203.96 119.037L205.053 124.78C205.099 125.021 205.153 125.277 205.33 125.452C205.506 125.628 205.851 125.666 205.994 125.464C207.612 123.177 209.254 120.845 210.101 118.198C210.206 117.869 210.237 117.406 209.903 117.285C208.184 116.66 206.553 115.81 205.068 114.766ZM217.697 100.596C217.149 100.092 216.425 99.7695 215.672 99.6953C214.985 99.6276 214.589 100.559 214.902 101.153C215.216 101.747 215.908 102.042 216.549 102.29C217.001 102.465 217.549 102.63 217.943 102.354C218.51 101.956 218.204 101.062 217.697 100.596ZM213.189 107.251C213.412 107.097 213.441 106.783 213.379 106.525C213.143 105.553 212.04 105.057 211.049 104.772C210.666 104.662 210.189 104.585 209.919 104.87C209.694 105.108 209.742 105.501 209.936 105.764C210.131 106.026 210.435 106.187 210.729 106.34L212.259 107.136C212.55 107.287 212.919 107.436 213.189 107.251ZM221.895 103.747C221.571 104.166 221.604 104.776 221.874 105.229C222.144 105.682 222.613 105.997 223.106 106.211C223.276 106.285 223.462 106.349 223.643 106.314C223.8 106.284 223.934 106.182 224.03 106.058C224.383 105.602 224.212 104.915 223.807 104.5C223.402 104.086 222.826 103.878 222.271 103.684C222.175 103.651 222.064 103.618 221.976 103.669C221.968 103.674 221.961 103.679 221.954 103.685C221.931 103.703 221.912 103.725 221.895 103.747ZM68.4411 141.731C68.6528 140.218 68.9497 138.554 70.1797 137.596C71.1608 136.832 72.5072 136.71 73.7669 136.687C77.893 136.61 82.0328 137.258 85.9233 138.588C87.1541 139.009 88.4421 139.563 89.1152 140.644C89.8434 141.814 89.6661 143.29 89.4645 144.641L86.3398 165.611C88.4946 159.539 90.0415 153.264 90.9518 146.905C91.3767 143.938 91.5248 140.534 89.3812 138.37C86.0353 134.992 86.1266 130.18 86.2194 125.288C86.2994 121.065 86.3807 116.783 84.2543 113.309C83.5605 112.176 85.1074 111.006 86.3939 110.571C92.0637 108.653 98.1077 107.773 104.111 107.992C105.212 116.39 105.509 124.887 104.999 133.338C104.885 135.234 107.668 135.723 109.621 135.514L177.389 128.255C177.728 128.218 178.095 128.17 178.335 127.936C178.616 127.663 178.629 127.234 178.625 126.849C178.466 111.511 178.009 96.1755 177.255 80.8536C177.226 80.2556 177.147 79.5691 176.634 79.2324C176.25 78.98 175.745 79.0133 175.282 79.0566L126.912 83.5864C130.09 69.1087 133.285 54.3596 131.836 39.6263C121.262 46.4367 107.618 46.3857 94.9311 45.6644C94.4041 45.6347 93.8755 45.6041 93.3462 45.5736C81.1369 44.8685 68.4051 44.1337 57.429 49.2356C63.1762 63.9553 68.9889 80.0225 64.2117 95.0627C63.7892 96.3931 63.2862 97.7 62.7836 99.0065C62.0086 101.021 61.2343 103.034 60.7554 105.129C59.9659 108.584 60.0843 112.451 62.2006 115.339C65.2652 119.52 67.7005 124.273 68.2562 129.368C68.7832 134.203 67.6052 138.997 66.4288 143.787C65.1996 148.791 63.972 153.789 64.6919 158.82C64.8139 159.671 65.0336 160.587 65.7238 161.13L68.4411 141.731ZM73.2355 80.9784C74.5171 81.0221 75.0265 82.5764 75.1901 83.8052L76.4878 93.5339C73.9545 92.2653 70.3905 94.4187 70.4634 97.1747C68.3283 93.1941 68.0042 88.6322 67.6832 84.1167C67.6132 83.1345 67.5436 82.1543 67.4556 81.1825C66.5129 70.7936 63.2718 60.7448 60.0507 50.7911C59.5914 49.3717 61.5752 48.4514 63.0981 48.2353C73.0934 46.8198 83.2092 47.0154 93.3298 47.211C97.9173 47.2995 102.506 47.388 107.084 47.3269C115.219 47.2179 123.827 46.4738 130.427 41.8768C131.91 51.4288 129.894 61.066 127.904 70.5821C127.634 71.8693 127.365 73.1541 127.106 74.4363C124.927 85.1982 123.444 96.6691 127.613 106.868C127.788 107.298 127.189 107.622 126.721 107.717C123.293 108.407 119.748 108.556 116.27 108.155C114.778 107.983 113.302 107.711 111.825 107.44C110.714 107.235 109.602 107.03 108.483 106.868C100.059 105.647 91.2663 106.914 83.5781 110.458C83.27 110.6 82.9035 110.533 82.581 110.425C81.0241 109.905 79.9133 108.515 79.3591 107.016C78.8049 105.517 78.7257 103.899 78.6517 102.309L78.3416 95.6401C78.3304 95.4005 78.3952 95.0754 78.6437 95.0677C92.111 94.6614 105.563 93.7844 118.965 92.4388C118.398 89.3755 118.342 86.2249 118.799 83.145C119.088 81.2003 117.194 79.4276 115.179 79.1675C113.164 78.907 111.17 79.789 109.497 80.905C108.871 81.3224 108.27 81.7758 107.669 82.2289C106.664 82.9869 105.659 83.7445 104.541 84.3316C103.809 84.7155 102.929 85.0255 102.16 84.7151C101.22 84.3355 100.905 83.2543 100.623 82.2895C100.605 82.2289 100.588 82.1689 100.57 82.1094C100.203 80.8667 99.5978 79.6298 98.5323 78.8482C97.4671 78.0666 95.8598 77.8722 94.8082 78.6708C93.9091 79.3538 93.6251 80.5366 93.4742 81.6317C93.461 81.7291 93.4478 81.8269 93.435 81.9254C93.3013 82.9324 93.1633 83.9729 92.5411 84.7804C91.8585 85.6667 90.3348 86.0467 89.5857 85.2118C88.1048 83.5601 85.506 83.2138 83.3252 83.7936C81.1441 84.373 79.2783 85.7116 77.4689 87.0227C76.3773 85.3726 76.2869 83.1507 77.2412 81.4229L77.2572 81.3943C77.4369 81.07 77.6429 80.6974 77.4841 80.3669C77.3861 80.1624 77.1692 80.0368 76.9547 79.9479C75.6715 79.4164 74.0322 79.8706 73.2355 80.9784ZM111.797 108.866C112.514 109.004 113.396 109.313 113.44 110.019C113.863 116.747 119.398 122.793 126.203 124.282C133.009 125.771 140.551 122.76 144.518 117.215C148.486 111.671 148.797 103.968 145.543 98.0057C142.054 91.6113 133.574 88.2152 126.425 90.3492C126.093 88.9364 126.13 87.4436 126.532 86.0479C126.607 85.7885 126.704 85.5175 126.921 85.3486C127.133 85.1832 127.419 85.1453 127.689 85.114L147.828 82.7708C149.599 82.5648 151.374 82.3584 153.157 82.3441C160.826 82.2834 168.489 81.5443 176.019 80.1404C177.189 95.3182 177.74 110.54 177.669 125.76C177.666 126.482 177.438 127.441 176.691 127.462C164.016 127.819 151.441 129.43 138.861 131.041C130.409 132.123 121.955 133.206 113.467 133.909C111.575 134.066 109.67 134.204 107.78 134.029C107.437 133.998 107.051 133.93 106.865 133.651C106.752 133.482 106.74 133.271 106.73 133.071L105.6 108.728C105.585 108.413 105.605 108.034 105.887 107.876C106.074 107.771 106.308 107.809 106.52 107.85L111.797 108.866ZM77.1196 103.23C76.9191 104.495 76.6938 105.917 77.5513 106.874C80.7496 110.442 84.0723 114.254 84.9222 118.902C85.3191 121.072 85.1486 123.306 84.979 125.531C84.7649 128.333 84.552 131.121 85.4759 133.75C85.5 133.818 85.5248 133.887 85.55 133.956C85.7196 134.424 85.8925 134.902 85.8377 135.392C85.7745 135.953 85.2703 136.518 84.6941 136.422L78.0083 135.308C75.7939 134.939 73.4548 134.58 71.3513 135.343C70.9447 135.491 70.4766 135.232 70.2589 134.869C70.0408 134.506 70.0124 134.069 69.9932 133.649C69.9704 133.143 69.9536 132.634 69.9364 132.123C69.8284 128.907 69.7183 125.632 68.1774 122.814L63.2622 113.825C62.5363 112.498 61.7937 111.112 61.7437 109.612C61.7101 108.61 61.9902 107.626 62.2679 106.661L64.7199 98.1275C65.236 96.3313 65.7822 94.4774 67.005 93.0349C69.9752 97.9029 70.2681 104.2 67.7621 109.306C67.5304 109.778 68.2386 110.265 68.7436 110.077C69.2482 109.888 69.5047 109.354 69.6827 108.86C70.3953 106.883 70.6454 104.799 70.8955 102.711C71.0984 101.022 71.3008 99.3312 71.7494 97.6934C72.0239 96.69 72.4204 95.666 73.2223 94.9753C74.0241 94.2849 75.3322 94.0484 76.1725 94.6947C76.8155 95.1894 77.0247 96.0352 77.1472 96.8206C77.4697 98.8925 77.4685 101.011 77.1428 103.083C77.1352 103.132 77.1272 103.181 77.1196 103.23ZM88.6562 86.3841C89.6417 87.1128 90.6069 87.8263 91.7896 87.6941C93.2925 87.5263 94.2293 86.0316 94.6658 84.632C94.7614 84.3258 94.8463 84.0123 94.9315 83.6981C95.2356 82.5767 95.5421 81.4465 96.3383 80.6031C96.5696 80.3576 96.9029 80.1296 97.2318 80.2258C97.4979 80.3035 97.6532 80.564 97.7768 80.8049C97.9521 81.1462 98.1181 81.4929 98.2838 81.84C98.7515 82.8191 99.2197 83.7982 99.8991 84.6486C100.819 85.8008 102.251 86.7069 103.748 86.5484C105.087 86.4065 106.134 85.4908 107.153 84.5979C107.362 84.4147 107.57 84.2327 107.779 84.0587C110.235 82.0128 113.434 80.8157 116.676 80.7295C116.239 81.7851 116.53 82.9366 116.816 84.0665C116.885 84.3386 116.954 84.6095 117.012 84.8774C117.469 86.991 117.238 89.2387 116.359 91.224L94.7058 92.8343C89.6509 93.2104 84.5833 93.5865 79.5168 93.4145C79.1967 93.4033 78.8686 93.3886 78.5741 93.2668C78.0179 93.0372 77.6874 92.4636 77.5677 91.8907C77.2992 90.6067 77.9122 89.2689 78.8409 88.3137C79.7693 87.3586 80.9817 86.7154 82.1725 86.088C83.4117 85.4356 84.7873 84.7607 86.169 85.0394C87.0885 85.2249 87.8787 85.809 88.6562 86.3841ZM129.658 116.854C126.378 116.788 123.536 114.203 122.562 111.177C122.363 110.559 122.777 109.881 123.347 109.541C123.918 109.202 124.608 109.122 125.274 109.049L130.08 108.528C128.618 105.784 127.577 102.83 127.001 99.7946C126.949 99.5194 126.901 99.2299 126.991 98.964C127.149 98.4966 127.671 98.2508 128.153 98.0943C132.058 96.8264 136.747 98.3656 139.043 101.67C141.34 104.974 141.039 109.75 138.343 112.759C137.177 114.063 135.647 115.025 134.037 115.765C132.663 116.396 131.179 116.884 129.658 116.854ZM145.224 100.541C145.808 102.403 145.976 104.362 146.057 106.305C144.746 106.114 143.422 106.005 142.097 105.98C141.837 102.71 139.585 99.7564 136.623 98.1538C133.662 96.5512 130.087 96.2049 126.741 96.7538C126.712 96.2926 126.625 95.8118 126.538 95.3309C126.309 94.0619 126.079 92.7929 126.929 91.8919C127.442 91.3476 128.223 91.13 128.972 90.9951C132.384 90.3813 136.022 91.0245 138.988 92.7662C141.953 94.5084 144.219 97.3324 145.224 100.541ZM121.166 110.846C121.161 110.907 121.156 110.966 121.153 111.023C121.131 111.475 121.349 111.889 121.564 112.299C121.622 112.409 121.68 112.519 121.733 112.629C121.983 113.149 122.104 113.834 121.686 114.242C120.675 115.228 119.781 116.326 119.029 117.508C118.843 117.801 118.384 117.825 118.078 117.651C117.772 117.476 117.583 117.165 117.406 116.868C116.287 114.983 115.14 113.012 115.001 110.844C114.983 110.574 115.014 110.248 115.261 110.123C115.371 110.067 115.499 110.066 115.622 110.065L120.626 110.051C120.745 110.05 120.871 110.051 120.975 110.108C121.221 110.243 121.193 110.556 121.166 110.846Z" fill="#00160A"/>
</svg>
