<svg width="24" height="25" viewBox="0 0 24 25" fill="none" xmlns="http://www.w3.org/2000/svg">
<path d="M12 22.2615C17.5228 22.2615 22 17.7844 22 12.2615C22 6.73869 17.5228 2.26154 12 2.26154C6.47715 2.26154 2 6.73869 2 12.2615C2 17.7844 6.47715 22.2615 12 22.2615Z" stroke="black" stroke-width="2" stroke-linecap="round" stroke-linejoin="round"/>
<path d="M9.08984 9.26153C9.32495 8.59319 9.789 8.02963 10.3998 7.67066C11.0106 7.31168 11.7287 7.18046 12.427 7.30024C13.1253 7.42001 13.7587 7.78305 14.2149 8.32505C14.6712 8.86706 14.9209 9.55305 14.9198 10.2615C14.9198 12.2615 11.9198 13.2615 11.9198 13.2615" stroke="black" stroke-width="2" stroke-linecap="round" stroke-linejoin="round"/>
<path d="M12 17.2615H12.01" stroke="black" stroke-width="2" stroke-linecap="round" stroke-linejoin="round"/>
</svg>
