<svg width="37" height="35" viewBox="0 0 37 35" fill="none" xmlns="http://www.w3.org/2000/svg">
<path d="M34.1094 6.51562H2.89062C2.12398 6.51562 1.38874 6.82017 0.846644 7.36227C0.304547 7.90437 0 8.63961 0 9.40625L0 25.5938C0 26.3604 0.304547 27.0956 0.846644 27.6377C1.38874 28.1798 2.12398 28.4844 2.89062 28.4844H34.1094C34.876 28.4844 35.6113 28.1798 36.1534 27.6377C36.6955 27.0956 37 26.3604 37 25.5938V9.40625C37 8.63961 36.6955 7.90437 36.1534 7.36227C35.6113 6.82017 34.876 6.51562 34.1094 6.51562ZM1.15625 9.40625C1.15625 8.94627 1.33898 8.50512 1.66424 8.17986C1.9895 7.8546 2.43064 7.67188 2.89062 7.67188H5.18347C5.56835 8.16836 5.77849 8.77806 5.78125 9.40625C5.78125 10.1729 5.4767 10.9081 4.93461 11.4502C4.39251 11.9923 3.65727 12.2969 2.89062 12.2969C2.26243 12.2941 1.65274 12.084 1.15625 11.6991V9.40625ZM5.18347 27.3281H2.89062C2.43064 27.3281 1.9895 27.1454 1.66424 26.8201C1.33898 26.4949 1.15625 26.0537 1.15625 25.5938V23.3009C1.65274 22.916 2.26243 22.7059 2.89062 22.7031C3.65727 22.7031 4.39251 23.0077 4.93461 23.5498C5.4767 24.0919 5.78125 24.8271 5.78125 25.5938C5.77849 26.2219 5.56835 26.8316 5.18347 27.3281ZM35.8438 25.5938C35.8438 26.0537 35.661 26.4949 35.3358 26.8201C35.0105 27.1454 34.5694 27.3281 34.1094 27.3281H31.8165C31.4317 26.8316 31.2215 26.2219 31.2188 25.5938C31.2188 24.8271 31.5233 24.0919 32.0654 23.5498C32.6075 23.0077 33.3427 22.7031 34.1094 22.7031C34.7376 22.7059 35.3473 22.916 35.8438 23.3009V25.5938ZM35.8438 21.9573C35.3038 21.692 34.711 21.5517 34.1094 21.5469C33.0361 21.5469 32.0067 21.9732 31.2478 22.7322C30.4889 23.4911 30.0625 24.5205 30.0625 25.5938C30.0673 26.1954 30.2076 26.7882 30.473 27.3281H6.52703C6.79238 26.7882 6.93268 26.1954 6.9375 25.5938C6.9375 24.5205 6.51113 23.4911 5.7522 22.7322C4.99326 21.9732 3.96392 21.5469 2.89062 21.5469C2.28901 21.5517 1.69621 21.692 1.15625 21.9573V13.0427C1.69621 13.308 2.28901 13.4483 2.89062 13.4531C3.96392 13.4531 4.99326 13.0268 5.7522 12.2678C6.51113 11.5089 6.9375 10.4795 6.9375 9.40625C6.93268 8.80463 6.79238 8.21183 6.52703 7.67188H30.473C30.2076 8.21183 30.0673 8.80463 30.0625 9.40625C30.0625 10.4795 30.4889 11.5089 31.2478 12.2678C32.0067 13.0268 33.0361 13.4531 34.1094 13.4531C34.711 13.4483 35.3038 13.308 35.8438 13.0427V21.9573ZM35.8438 11.6991C35.3473 12.084 34.7376 12.2941 34.1094 12.2969C33.3427 12.2969 32.6075 11.9923 32.0654 11.4502C31.5233 10.9081 31.2188 10.1729 31.2188 9.40625C31.2215 8.77806 31.4317 8.16836 31.8165 7.67188H34.1094C34.5694 7.67188 35.0105 7.8546 35.3358 8.17986C35.661 8.50512 35.8438 8.94627 35.8438 9.40625V11.6991ZM17.9219 14.6094H19.0781C19.3848 14.6094 19.6789 14.7312 19.8957 14.948C20.1126 15.1649 20.2344 15.459 20.2344 15.7656C20.2344 15.919 20.2953 16.066 20.4037 16.1744C20.5121 16.2828 20.6592 16.3438 20.8125 16.3438C20.9658 16.3438 21.1129 16.2828 21.2213 16.1744C21.3297 16.066 21.3906 15.919 21.3906 15.7656C21.3906 15.1523 21.147 14.5641 20.7133 14.1304C20.2796 13.6968 19.6914 13.4531 19.0781 13.4531V12.875C19.0781 12.7217 19.0172 12.5746 18.9088 12.4662C18.8004 12.3578 18.6533 12.2969 18.5 12.2969C18.3467 12.2969 18.1996 12.3578 18.0912 12.4662C17.9828 12.5746 17.9219 12.7217 17.9219 12.875V13.4531C17.3086 13.4531 16.7204 13.6968 16.2867 14.1304C15.853 14.5641 15.6094 15.1523 15.6094 15.7656C15.6094 16.3789 15.853 16.9671 16.2867 17.4008C16.7204 17.8345 17.3086 18.0781 17.9219 18.0781H19.0781C19.3848 18.0781 19.6789 18.1999 19.8957 18.4168C20.1126 18.6336 20.2344 18.9277 20.2344 19.2344C20.2344 19.541 20.1126 19.8351 19.8957 20.052C19.6789 20.2688 19.3848 20.3906 19.0781 20.3906H17.9219C17.6152 20.3906 17.3211 20.2688 17.1043 20.052C16.8874 19.8351 16.7656 19.541 16.7656 19.2344C16.7656 19.081 16.7047 18.934 16.5963 18.8256C16.4879 18.7172 16.3408 18.6562 16.1875 18.6562C16.0342 18.6562 15.8871 18.7172 15.7787 18.8256C15.6703 18.934 15.6094 19.081 15.6094 19.2344C15.6094 19.8477 15.853 20.4359 16.2867 20.8696C16.7204 21.3032 17.3086 21.5469 17.9219 21.5469V22.125C17.9219 22.2783 17.9828 22.4254 18.0912 22.5338C18.1996 22.6422 18.3467 22.7031 18.5 22.7031C18.6533 22.7031 18.8004 22.6422 18.9088 22.5338C19.0172 22.4254 19.0781 22.2783 19.0781 22.125V21.5469C19.6914 21.5469 20.2796 21.3032 20.7133 20.8696C21.147 20.4359 21.3906 19.8477 21.3906 19.2344C21.3906 18.6211 21.147 18.0329 20.7133 17.5992C20.2796 17.1655 19.6914 16.9219 19.0781 16.9219H17.9219C17.6152 16.9219 17.3211 16.8001 17.1043 16.5832C16.8874 16.3664 16.7656 16.0723 16.7656 15.7656C16.7656 15.459 16.8874 15.1649 17.1043 14.948C17.3211 14.7312 17.6152 14.6094 17.9219 14.6094ZM18.5 9.98438C17.0135 9.98438 15.5605 10.4252 14.3245 11.251C13.0886 12.0768 12.1253 13.2506 11.5565 14.6239C10.9876 15.9972 10.8388 17.5083 11.1288 18.9662C11.4188 20.4241 12.1346 21.7633 13.1857 22.8143C14.2367 23.8654 15.5759 24.5812 17.0338 24.8712C18.4917 25.1612 20.0028 25.0124 21.3761 24.4435C22.7494 23.8747 23.9232 22.9114 24.749 21.6755C25.5748 20.4395 26.0156 18.9865 26.0156 17.5C26.0132 15.5075 25.2206 13.5973 23.8116 12.1884C22.4027 10.7794 20.4925 9.98682 18.5 9.98438ZM18.5 23.8594C17.2422 23.8594 16.0127 23.4864 14.9669 22.7876C13.9211 22.0888 13.106 21.0957 12.6247 19.9336C12.1434 18.7716 12.0174 17.4929 12.2628 16.2593C12.5082 15.0258 13.1139 13.8926 14.0032 13.0032C14.8926 12.1139 16.0257 11.5082 17.2593 11.2628C18.4929 11.0174 19.7716 11.1434 20.9336 11.6247C22.0957 12.106 23.0888 12.9211 23.7876 13.9669C24.4864 15.0127 24.8594 16.2422 24.8594 17.5C24.8575 19.186 24.1869 20.8025 22.9947 21.9947C21.8025 23.1869 20.186 23.8575 18.5 23.8594Z" fill="black"/>
</svg>
