<svg width="115" height="99" viewBox="0 0 115 99" fill="none" xmlns="http://www.w3.org/2000/svg">
<path fill-rule="evenodd" clip-rule="evenodd" d="M71.7695 86.469C52.7242 92.8164 0.40113 76.4671 0.440941 39.0132C0.54046 14.8329 19.3461 8.77783 38.7386 21.1786C44.4451 23.8232 48.9504 23.0036 53.842 20.3756C58.7337 17.7479 65.0247 6.01638 76.8818 3.60277C112.563 -3.66007 143.094 62.698 71.7695 86.469Z" fill="#64FCD9"/>
<path d="M27.7569 55.8364L27.6949 55.9703C27.4261 56.5667 27.5716 54.9192 28.1714 54.0937C28.6976 53.3696 29.2569 52.6658 29.8672 52.0394C30.4272 51.4644 31.0531 50.964 31.6897 50.5054C32.3777 50.0096 33.0956 49.5596 33.83 49.1639C34.6448 48.725 35.4774 48.3133 36.3305 47.9917C37.5374 47.5366 38.7641 47.1454 39.9961 46.7919C40.3192 46.6993 40.355 46.565 40.3656 46.2786L40.3686 46.1774C40.3907 45.2935 40.4501 44.4065 40.5567 43.531C40.7 42.3528 41.1432 41.3266 41.9158 40.527C42.5847 39.8347 43.3083 39.2322 44.1145 38.76C45.5482 37.9203 47.0539 37.307 48.6197 36.9444C50.089 36.6041 51.5798 36.384 53.0661 36.1525C53.5176 36.0823 53.9854 36.1385 54.445 36.159C54.7441 36.1722 54.8727 36.0517 54.9337 35.6936L55.0077 35.2595C55.0826 34.8254 55.162 34.3922 55.264 33.9669C55.7368 31.9947 56.1091 30.0079 55.9773 27.9416C55.8935 26.6269 55.8262 25.3088 55.688 24.0012C55.5922 23.0943 55.4162 22.1985 55.2613 21.3002L55.2155 21.0307C55.1809 20.8228 55.1028 20.8158 54.9724 20.9392L54.9541 20.9569C54.4878 21.4225 53.8457 21.2055 53.676 20.5026C53.5737 20.0796 53.5235 19.6076 53.8114 19.2487C53.9497 19.0758 54.1817 18.9172 54.3766 18.9082C55.1524 18.8726 55.9332 18.8483 56.7063 18.9141C57.7471 19.0026 58.7838 19.165 59.8195 19.3201C60.7886 19.4651 61.7568 19.623 62.72 19.8126C63.2732 19.9214 63.815 20.1082 64.3634 20.2525C64.837 20.377 65.311 20.502 65.7892 20.5966C65.8511 20.6089 65.9891 20.4533 66.0076 20.3541C66.1288 19.7051 66.2322 19.0515 66.3467 18.4008L66.435 17.9134C66.4636 17.7606 66.4567 17.4844 66.72 17.5611C66.9547 17.6292 67.0131 17.7816 66.9508 18.0699C66.8178 18.6844 66.7098 19.3063 66.5961 19.9266L66.5271 20.2984C66.4472 20.7214 66.572 20.887 67.0455 20.9892L67.0868 20.998C67.3275 21.046 67.568 21.0996 67.8058 21.1648L67.9835 21.216C68.1552 21.2679 68.2239 21.2374 68.2552 21.0359L68.2595 21.0059C68.3306 20.452 68.4277 19.9025 68.5186 19.3522C68.5763 19.0036 68.6488 18.6583 68.701 18.3087C68.7419 18.0358 68.5282 17.8299 68.1658 17.7594C67.8969 17.7073 67.6179 17.6822 67.3638 17.5776C66.5814 17.2555 65.7568 17.1969 64.9522 17.1623C63.1143 17.0832 61.9422 17.107 60.1021 17.1235C59.4701 17.1292 58.8397 17.2508 58.2073 17.2936C57.8955 17.3149 57.1108 17.1224 57.253 16.8123C57.3671 16.5637 58.2209 16.3593 58.3666 16.1293C58.6349 15.7061 58.9376 15.3034 59.1524 14.8456C59.3904 14.3385 59.6025 13.796 59.7256 13.2392C59.9503 12.2212 60.1036 11.1816 60.2819 10.1499C60.3915 9.51616 60.5347 8.88472 60.5858 8.24395C60.6422 7.53621 60.632 6.81778 60.604 6.10654C60.5958 5.89613 60.4874 5.66119 60.2352 5.58333C59.8942 5.47802 59.8507 5.20357 59.8547 4.58382C59.8564 4.33195 60.1542 4.05925 60.4255 4.03258C61.7099 3.90664 59.6403 3.99793 60.9139 4.18577C61.9258 4.33486 65.6116 4.53963 66.6197 4.72299C66.684 4.73467 66.744 4.77632 66.8071 4.79968C67.0706 4.8972 68.01 5.08367 68.2266 5.14674L68.2495 5.15374C68.7481 5.31569 69.2611 5.41632 69.7642 5.56133C70.6447 5.81535 71.5221 6.08357 72.4008 6.34654C72.4327 6.35608 72.4631 6.37301 72.4944 6.38547C73.7294 6.88065 74.9718 7.35286 76.1958 7.8823C76.6669 8.08609 77.1205 8.37943 77.5343 8.71208C77.7343 8.87266 77.8274 9.21621 77.9629 9.48132C78.2957 10.132 78.6668 10.7621 78.9462 11.4428C79.4001 12.5486 79.5696 13.7098 79.3654 14.9478L79.2877 15.4145C79.1125 16.4506 78.9122 17.4768 78.5334 18.4391C78.2187 19.2386 77.8668 20.0296 77.4462 20.758C77.133 21.3001 76.623 21.5694 76.0174 21.2516C75.2575 20.8528 74.4873 20.4796 73.716 20.111C72.5567 19.5568 71.3942 19.0108 70.2287 18.4746C70.0208 18.379 69.7996 18.3173 69.579 18.2647L69.4845 18.2427C69.3464 18.211 69.2318 18.1929 69.1926 18.473C69.0663 19.3787 68.894 20.2762 68.7174 21.1712C68.6716 21.4036 68.7504 21.4731 68.9052 21.5175C69.0693 21.5646 69.2412 21.584 69.3994 21.6491L71.1229 22.3564C74.9184 23.9223 82.1977 27.0012 83.3705 28.3005C85.0564 30.1683 86.5847 42.163 82.4691 47.9917C79.9602 51.545 79.8108 50.1642 79.6855 50.1945C85.9211 46.534 74.0036 35.7123 74.7248 35.8557C76.0186 36.113 76.5919 37.1822 76.9215 38.4422C77.3328 40.0143 77.6591 41.6221 77.9354 43.2348C78.2242 44.9202 78.9985 50.3508 79.1356 51.3696C79.2365 52.1198 79.2527 52.8847 79.3338 53.6392C79.4406 54.6331 79.6181 55.6191 79.6845 56.6159C79.758 57.718 79.8005 58.8285 79.7781 59.9329L79.7711 60.2091C79.7498 60.9085 79.5612 62.8068 78.6655 65.7419C77.8234 68.4995 74.574 73.2971 73.7818 74.9259C73.7307 75.0308 73.2037 75.4217 73.0683 75.1282C72.9789 74.9339 34.9542 82.9796 27.7569 55.8364Z" fill="white"/>
<path fill-rule="evenodd" clip-rule="evenodd" d="M69.5215 0.472671C69.215 0.345372 68.8779 0.530872 68.7683 0.88688C68.7554 0.929118 68.7461 0.972719 68.7404 1.0169L68.0828 6.17114L68.081 6.19372C68.0783 6.29124 68.1389 6.37747 68.2239 6.39226C68.3153 6.40803 68.9194 0.863131 68.9194 0.863131L68.9243 0.834714C68.9243 0.834714 69.1909 0.579728 69.4234 0.645324C69.625 0.702161 69.8335 1.0389 69.7917 1.28006C69.7917 1.28006 68.9372 6.191 68.8296 7.17727C68.8033 7.17085 68.7771 7.16423 68.7508 7.15761C68.456 7.08423 68.1615 7.01085 67.8718 6.91664L67.8489 6.90963C67.7664 6.88569 67.5794 6.84364 67.3645 6.79576C67.0151 6.71751 66.5926 6.62291 66.4294 6.56257C66.4053 6.55362 66.3817 6.54194 66.3581 6.53046C66.3199 6.51177 66.2819 6.49309 66.242 6.48588C65.9613 6.43469 65.6806 6.38214 65.4001 6.32939H65.3999L65.3996 6.32919H65.3994H65.3992C64.6725 6.19275 63.9458 6.0563 63.2159 5.94866C61.9424 5.76082 60.6623 5.66954 59.3778 5.79547C59.1067 5.82214 58.8087 6.09484 58.8072 6.34671C58.803 6.96647 58.8466 7.24092 59.1876 7.34622C59.4398 7.42408 59.5482 7.65902 59.5565 7.86943C59.5843 8.58086 59.5946 9.29911 59.5381 10.007C59.5006 10.4773 59.4135 10.9423 59.3266 11.4073C59.2951 11.5757 59.2634 11.7443 59.2343 11.9128C59.1881 12.1808 59.1434 12.4493 59.0988 12.7179L59.0985 12.7189C58.9714 13.4838 58.8442 14.2488 58.6779 15.0021C58.555 15.5591 58.343 16.1014 58.105 16.6085C57.95 16.9386 57.7494 17.2401 57.5491 17.5412C57.4714 17.6576 57.394 17.7742 57.3191 17.8924C57.2669 17.9745 57.2099 18.0535 57.153 18.1326C57.0506 18.2743 56.9485 18.4156 56.8753 18.5752C56.7331 18.8852 56.848 19.0778 57.1597 19.0565C57.4158 19.0392 57.6713 19.009 57.9269 18.9787C58.3028 18.9343 58.6784 18.8897 59.0544 18.8864L59.2542 18.8845L59.4073 18.8831H59.4083H59.4095C61.1316 18.8671 62.8548 18.8514 64.5745 18.9253C65.3791 18.9598 66.2038 19.0184 66.9861 19.3405C67.1751 19.4182 67.3777 19.4521 67.5799 19.4857C67.6495 19.4974 67.7192 19.5091 67.7882 19.5225C68.1507 19.593 68.3642 19.7987 68.3233 20.0716C68.2934 20.2727 68.2565 20.4724 68.2198 20.6721L68.2197 20.6723C68.1925 20.8198 68.1654 20.9672 68.1409 21.1153C68.1235 21.2206 68.1059 21.3259 68.0884 21.4312L68.088 21.4328V21.433V21.4332H68.0878C68.0135 21.8774 67.9391 22.3217 67.8818 22.7688L67.8775 22.7988C67.8462 23.0003 67.7775 23.0308 67.6058 22.9789L67.4281 22.9279C67.1903 22.8627 66.9498 22.8089 66.7091 22.7609L66.6678 22.7523C66.1943 22.6499 66.0695 22.4843 66.1494 22.0615L66.2184 21.6895C66.239 21.577 66.2594 21.4647 66.2799 21.3522L66.28 21.3518C66.3721 20.8438 66.4643 20.3358 66.5731 19.8328C66.6354 19.5445 66.577 19.3921 66.3425 19.324C66.1164 19.2582 66.0894 19.4524 66.0682 19.6052C66.0648 19.6305 66.0615 19.6547 66.0573 19.6763L65.969 20.1637C65.9251 20.4128 65.8829 20.6626 65.8407 20.9121C65.7727 21.3142 65.7047 21.7166 65.63 22.117C65.6114 22.2162 65.4734 22.3718 65.4115 22.3597C64.9366 22.2655 64.4658 22.1417 63.9954 22.0179L63.9858 22.0154C63.7919 21.9644 63.5989 21.9081 63.406 21.8519C63.0529 21.7487 62.7001 21.6457 62.3423 21.5755C61.3791 21.3859 60.4109 21.228 59.442 21.083C59.3519 21.0696 59.2619 21.0559 59.172 21.0425L59.1718 21.0423H59.1715H59.1712H59.171C58.2254 20.9 57.2788 20.7577 56.3286 20.677C55.5557 20.6112 54.7747 20.6357 53.9989 20.6711C53.8041 20.6801 53.5722 20.8389 53.4337 21.0116C53.1458 21.3705 53.1962 21.8425 53.2983 22.2655C53.468 22.9683 54.1103 23.1854 54.5766 22.7198L54.5947 22.7023C54.7251 22.5789 54.8032 22.5857 54.8378 22.7937L54.8836 23.0633C54.9156 23.2486 54.9486 23.4339 54.9814 23.6192L54.9815 23.6206C55.108 24.3326 55.2345 25.0448 55.3103 25.7641C55.4222 26.8235 55.4877 27.8896 55.553 28.9553C55.5684 29.2052 55.5837 29.4549 55.5997 29.7045C55.7315 31.7708 55.3591 33.7576 54.8862 35.7298C54.7843 36.1553 54.705 36.5883 54.6302 37.0224L54.556 37.4565C54.495 37.8146 54.3665 37.9351 54.0674 37.9219C53.9664 37.9174 53.8651 37.9112 53.7638 37.9049H53.7633C53.4028 37.8829 53.0406 37.8605 52.6884 37.9154C52.557 37.9359 52.4259 37.9563 52.2946 37.9766C50.939 38.1868 49.5815 38.397 48.2422 38.7073C46.6762 39.0699 45.1705 39.6832 43.7368 40.5231C42.9307 40.9953 42.207 41.5976 41.5381 42.2899C40.7655 43.0895 40.3223 44.1159 40.179 45.2941C40.0724 46.1694 40.013 47.0564 39.9909 47.9403L39.9879 48.0415C39.9775 48.3279 39.9415 48.4624 39.6184 48.5548C38.3864 48.9083 37.1597 49.2995 35.953 49.7546C35.0997 50.0762 34.2671 50.4879 33.4523 50.927C32.7179 51.3227 32 51.7725 31.312 52.2683C30.6754 52.7269 30.0495 53.2273 29.4895 53.8023C28.8791 54.4289 28.3201 55.1325 27.7937 55.8568C27.6324 56.0789 27.5038 56.3603 27.4075 56.6418C26.6893 56.7887 25.9845 57.0369 25.3199 57.3707C23.1393 58.4658 21.3414 60.3885 19.8082 62.4917C18.9668 63.6459 18.193 64.8625 17.419 66.079C16.7829 67.0789 16.1467 68.079 15.4727 69.0449C13.9791 71.1856 12.2627 73.1881 10.1476 74.4436C8.67087 75.3199 7.04821 75.8041 5.44092 76.2818C8.66013 76.6843 11.8276 74.9753 14.3985 72.6962C15.8594 71.401 17.1831 69.9196 18.5074 68.4376C19.5134 67.3117 20.5197 66.1851 21.5869 65.1399C22.0156 64.7198 22.5462 64.2871 23.0906 64.4465C22.8078 66.1431 22.7531 67.9116 23.109 69.5895C23.4647 71.2673 24.2536 72.8514 25.443 73.8949C24.3507 72.3716 23.6245 70.5 23.3659 68.5429C23.2113 67.3726 23.2256 66.1489 23.5798 65.0385C23.9342 63.9282 24.6611 62.9431 25.6224 62.5404C25.4219 64.4808 25.3576 66.4631 25.7003 68.3766C26.0431 70.2902 26.8213 72.1425 28.0941 73.426C26.3161 70.8418 25.5378 67.3691 26.0063 64.1102C26.0827 63.5788 26.1964 63.0375 26.4696 62.6015C26.7429 62.1655 27.2085 61.8544 27.6671 61.9463C26.3476 65.2666 27.3391 69.5955 29.9062 71.7226C28.3152 69.8885 27.3887 67.2716 27.5227 64.6768C27.5659 63.8373 27.7305 62.9692 28.1935 62.3212C28.6564 61.6732 29.4787 61.3154 30.139 61.6662C29.2116 63.0472 29.1595 64.96 29.3643 66.6931C29.5447 68.2196 30.0855 69.9632 31.3654 70.3852C29.7373 68.8327 29.1947 65.9416 30.1195 63.7468C30.4525 62.9565 31.0727 62.196 31.8309 62.2459C32.368 62.2811 32.8252 62.7212 33.1473 63.2201C33.2986 63.4546 33.4294 63.7057 33.56 63.9568C33.7074 64.2398 33.8548 64.5228 34.0316 64.7819C34.7887 62.8691 34.8424 60.4452 33.7129 58.7969C33.3109 58.2103 32.7824 57.7509 32.2117 57.3982C31.4592 56.933 30.6399 56.6572 29.798 56.5452C29.838 56.5102 29.8784 56.4756 29.9186 56.4407C31.1985 55.339 32.6102 54.4929 34.0325 53.6816C34.8674 53.2055 35.7458 52.8259 36.6208 52.4538C37.4048 52.1202 38.2037 51.826 39.0088 51.5681C40.4521 51.106 41.9275 50.8468 43.4211 50.7179C43.7367 50.6909 44.0512 50.648 44.3656 50.6052H44.3659L44.3661 50.605H44.3664H44.3666H44.3667C44.7024 50.5593 45.0382 50.5135 45.375 50.4869C45.8324 50.4507 46.2908 50.4265 46.749 50.4024C47.4541 50.365 48.1591 50.3278 48.8605 50.2469C49.6432 50.1566 50.4208 50.0053 51.1981 49.8541C51.4649 49.8023 51.7317 49.7503 51.9985 49.7011C52.5869 49.5921 53.1729 49.4671 53.7755 49.3387L53.7757 49.3385L53.7765 49.3383H53.7767L53.9676 49.2976C54.0396 49.2836 54.1085 49.274 54.1751 49.2651C54.2691 49.2522 54.3585 49.2402 54.4456 49.2162C54.6715 49.1541 54.8975 49.0924 55.1234 49.0307C56.0215 48.7855 56.9195 48.5402 57.8132 48.2751C58.8277 47.974 59.8374 47.6501 60.843 47.311C61.248 47.1744 61.6499 47.0255 62.0517 46.8764H62.0519C62.5354 46.6973 63.0189 46.518 63.5077 46.3604C64.4308 46.0626 65.2162 45.4778 65.9921 44.8633C66.0457 44.8209 66.1027 44.6965 66.0854 44.6407C66.0568 44.548 65.976 44.427 65.9045 44.4141C65.7923 44.3941 65.6401 44.4106 65.556 44.4873C64.6355 45.3258 63.5628 45.8056 62.4654 46.1821C60.598 46.8228 58.7203 47.4305 56.8301 47.972C55.6424 48.3121 54.4404 48.5846 53.2387 48.8571C52.9069 48.9324 52.5751 49.0078 52.2437 49.0843C51.6573 49.2199 51.0641 49.3188 50.4717 49.4175L50.3868 49.4315C50.1902 49.4644 49.9934 49.4989 49.7966 49.5333C49.1613 49.6444 48.5259 49.7558 47.8869 49.812C47.2567 49.8677 46.6248 49.9004 45.993 49.9331C45.2063 49.9738 44.4198 50.0145 43.6367 50.0995C42.0285 50.2739 40.4143 50.4789 38.859 51.0161C37.617 51.4453 36.3727 51.8942 35.1774 52.4692C34.1924 52.9429 33.2433 53.5197 32.2955 54.0954C32.0975 54.2157 31.8996 54.3358 31.7014 54.4551C30.7575 55.0231 29.8614 55.6869 29.0513 56.4884C28.6932 56.481 28.3333 56.5013 27.9751 56.5472C28.3053 56.0431 28.6738 55.573 29.0491 55.1113L29.2277 54.8927C30.3207 53.5592 31.6612 52.6309 33.0564 51.8112L33.3106 51.6633C33.7923 51.3856 34.2927 51.1522 34.7933 50.9186L34.7935 50.9184H34.7937L34.794 50.9182H34.7944C35.0419 50.8026 35.2896 50.6872 35.535 50.5663L35.7132 50.4801C37.0824 49.8303 38.5117 49.4315 39.9542 49.0619C41.6957 48.6157 43.4545 48.3059 45.2167 48.0178L46.3499 47.8346C46.8951 47.7468 47.4426 47.6754 47.9899 47.6042H47.9901C49.3117 47.4319 50.6332 47.2596 51.9251 46.8559C52.4623 46.6882 53.0002 46.5247 53.5382 46.3611H53.5385C54.1935 46.162 54.8484 45.9631 55.5016 45.7562C56.1317 45.5567 56.7611 45.3472 57.3771 45.0967C57.8614 44.8999 58.3384 44.678 58.8153 44.4561L58.8159 44.4558C59.0203 44.3608 59.2244 44.2658 59.4294 44.1727C59.7811 44.0129 60.1344 43.857 60.4876 43.7013L60.4878 43.7011H60.4879L60.4883 43.7009H60.4884L60.4886 43.7007C61.2857 43.3492 62.0829 42.9975 62.8629 42.6002C63.8775 42.0832 64.8799 41.5335 65.8823 40.9838L65.8824 40.9837H65.8826L65.8828 40.9835C66.3998 40.6999 66.9171 40.4163 67.4358 40.1371C67.751 39.9676 68.0714 39.8055 68.4002 39.6766C69.0835 39.4088 69.7696 39.1497 70.4556 38.8908C70.7577 38.7768 71.06 38.6627 71.362 38.5479L71.5454 38.4784C72.188 38.2368 72.8385 38.018 73.52 38.049C74.222 38.0807 74.9103 38.1751 75.4111 38.8982C75.8283 39.5006 76.0465 40.1971 76.2231 40.9101L76.2703 41.1047C76.4914 42.0338 76.662 42.9805 76.8277 43.9259L77.0076 44.9529C77.2167 46.1511 77.4211 47.3509 77.5926 48.5566C77.6713 49.1107 77.717 49.6709 77.7629 50.2313V50.2315V50.2317C77.8034 50.7257 77.8438 51.2201 77.9068 51.71C77.9486 52.0367 78.0275 52.3563 78.1066 52.6763C78.1748 52.9529 78.2431 53.2296 78.2876 53.5111C78.337 53.8237 78.3558 54.1427 78.3747 54.4619C78.3875 54.6772 78.4 54.8927 78.4221 55.1064C78.4611 55.4827 78.5062 55.8583 78.5513 56.234V56.2342V56.2344V56.2346L78.5514 56.2348V56.235C78.6224 56.8269 78.6933 57.4188 78.7405 58.0133L78.7536 58.1789V58.1791V58.1793C78.8557 59.4616 78.9569 60.7327 78.8023 62.044C78.6908 62.9908 78.5085 63.9116 78.3263 64.8331C78.2618 65.1589 78.1974 65.485 78.1359 65.8122C78.127 65.8597 78.0984 65.9023 78.0697 65.9447L78.0696 65.9449L78.0672 65.9484L78.06 65.9591L78.0543 65.9679C78.0463 65.9799 78.0386 65.9922 78.0317 66.0045C78.0311 65.9945 78.0302 65.9844 78.0292 65.9745C78.0285 65.9671 78.0277 65.9599 78.0269 65.9527L78.025 65.9373L78.0237 65.9251C78.0166 65.8678 78.0098 65.8106 78.0178 65.7563C78.2208 64.3673 78.0582 63.0005 77.7271 61.6761C77.5373 60.9168 77.2864 60.1781 77.0354 59.4392V59.4391V59.4389C76.919 59.0965 76.8027 58.7543 76.6925 58.4098C76.5855 58.0754 76.4776 57.7411 76.3698 57.4069C76.0745 56.4921 75.7791 55.5773 75.5009 54.6554C75.1074 53.3528 74.9215 52.003 74.9694 50.6214L74.9706 50.584C74.9929 49.8922 74.9993 48.2936 74.8766 48.2963C74.784 48.2985 74.6279 48.4552 74.6142 48.5624C74.5464 49.095 74.5 49.6332 74.4762 50.1712C74.4126 51.6061 74.5377 53.0074 74.9117 54.3936L74.955 54.5544C75.3475 56.0102 75.739 57.4628 76.3076 58.8705C76.3194 58.9067 76.3307 58.9423 76.3418 58.9774L76.4981 59.4735C76.5697 59.6993 76.6443 59.9239 76.7186 60.1485C77.0203 61.0583 77.3214 61.9665 77.4407 62.9526C77.5887 64.176 77.6857 65.3789 77.4099 66.5941C77.375 66.7476 77.3918 66.917 77.4087 67.0865V67.0869C77.4171 67.1712 77.4254 67.2557 77.4274 67.3384L77.4291 67.3791C77.4294 67.3851 77.4298 67.3911 77.4301 67.3972L77.4311 67.4141C77.436 67.4994 77.441 67.5868 77.4152 67.6574C77.1546 68.3696 73.4363 75.1143 72.8086 76.1259L72.7503 76.2186C72.6823 76.3307 72.6443 76.426 72.6282 76.5117C71.5127 77.1416 70.2978 77.5034 69.0939 77.8604C71.6149 78.1749 74.0952 76.8395 76.1083 75.0588C77.2524 74.0469 78.2888 72.8893 79.3259 71.7314C80.1135 70.8516 80.9017 69.9716 81.7373 69.1548C82.0729 68.8267 82.4885 68.4886 82.9147 68.6131C82.6935 69.9387 82.6506 71.3205 82.9291 72.6314C83.2078 73.9424 83.8255 75.1801 84.7569 75.9955C83.9015 74.805 83.3329 73.3428 83.1304 71.8137C83.0093 70.8994 83.0206 69.9431 83.2979 69.0756C83.5753 68.2081 84.1446 67.4384 84.8974 67.1239C84.7405 68.64 84.69 70.1886 84.9585 71.6839C85.2268 73.179 85.8361 74.6262 86.8328 75.629C85.4406 73.6099 84.8311 70.8967 85.1979 68.3503C85.2578 67.9352 85.3469 67.5122 85.5608 67.1716C85.7747 66.8307 86.1395 66.5878 86.4985 66.6597C85.4653 69.2539 86.2416 72.6361 88.2519 74.298C87.006 72.865 86.2805 70.8204 86.3853 68.793C86.4193 68.1372 86.5481 67.4589 86.9107 66.9524C87.2733 66.4461 87.9171 66.1666 88.4342 66.4407C87.7079 67.5198 87.6671 69.0143 87.8275 70.3685C87.9687 71.5611 88.3923 72.9234 89.3945 73.2531C88.1196 72.0401 87.6947 69.7812 88.4189 68.0664C88.6797 67.4489 89.1654 66.8547 89.7591 66.8936C90.1797 66.9213 90.5378 67.265 90.7898 67.6549C90.9084 67.838 91.0107 68.0342 91.1131 68.2305C91.2285 68.4516 91.3439 68.6729 91.4824 68.8751C92.0751 67.3806 92.1171 65.4867 91.2328 64.1989C90.9179 63.7405 90.5041 63.3816 90.0572 63.1062C88.4154 62.0934 86.3681 62.2289 84.6606 63.0846C82.9529 63.9403 81.545 65.4425 80.3445 67.0857C79.6856 67.9877 79.0797 68.938 78.4737 69.8886L78.4735 69.8888L78.4734 69.889L78.4732 69.8892C77.9751 70.6703 77.4772 71.4515 76.9496 72.2059C76.0951 73.4279 75.1475 74.5923 74.0531 75.5134C74.2657 75.1497 74.5087 74.7429 74.7691 74.3073L74.7698 74.3063C76.0382 72.1841 77.7167 69.3752 78.288 67.505C79.1835 64.5699 79.3723 62.6713 79.3935 61.972L79.4004 61.696C79.423 60.5914 79.3803 59.4809 79.3069 58.3788C79.2662 57.7702 79.1843 57.1656 79.1023 56.5606V56.5602V56.56V56.5598V56.5595L79.1021 56.5593V56.5589V56.5587C79.0499 56.1737 78.9976 55.7885 78.9562 55.4021C78.9211 55.0751 78.8981 54.7461 78.8752 54.4174V54.4172C78.845 53.9872 78.815 53.5576 78.7579 53.1325C78.6844 52.5856 78.5904 52.0425 78.4967 51.4992C78.4158 51.0305 78.3349 50.562 78.2669 50.091C78.1741 49.448 78.0912 48.803 78.0084 48.1581V48.1579L78.0083 48.1575C77.8726 47.1008 77.7369 46.0443 77.5577 44.9977C77.2814 43.3852 76.9551 41.7772 76.5438 40.2051C76.2142 38.9451 75.6409 37.8759 74.3472 37.6186C73.6261 37.4752 72.925 37.4621 72.2311 37.6645C70.4968 38.1706 68.7918 38.8083 67.157 39.6416C66.304 40.0764 65.4592 40.5332 64.6146 40.9901C62.9061 41.9143 61.1974 42.8384 59.4194 43.5797C59.0896 43.7173 58.763 43.8654 58.4366 44.0135C58.1308 44.1523 57.8251 44.2909 57.5168 44.4209C57.3354 44.4974 57.1195 44.579 56.9428 44.5338C56.6259 44.4532 56.3125 44.3543 55.9992 44.2557C55.6316 44.1396 55.2639 44.0238 54.8913 43.9372C54.435 43.8313 53.9708 43.7712 53.5069 43.711H53.5067H53.5065H53.5063C53.331 43.6883 53.1556 43.6657 52.9806 43.6404C52.9203 43.6318 52.8585 43.6379 52.7967 43.6439C52.7681 43.6468 52.7394 43.6495 52.711 43.6509C52.7219 43.6147 52.7302 43.5761 52.7386 43.5378C52.7569 43.4551 52.7749 43.3724 52.8168 43.3114C53.4529 42.3837 53.8785 41.32 54.2838 40.2491L54.3893 39.9695C54.5687 39.4929 54.6963 38.9897 54.8238 38.4867C54.8725 38.2952 54.9211 38.1035 54.9725 37.9135C55.0529 37.6165 55.1232 37.315 55.1845 37.0119C55.2385 36.7443 55.2917 36.4764 55.3443 36.2086L55.6594 34.6004C55.6991 34.3995 55.7443 34.1994 55.7897 33.9995V33.9994C55.8851 33.5776 55.9806 33.1558 56.0236 32.7268C56.1899 31.0678 56.1737 29.3983 56.0352 27.7389C55.8903 26.0017 55.7352 24.2589 55.3122 22.5759L55.304 22.5413C55.2425 22.2624 55.3477 22.2285 55.515 22.2073L55.5997 22.1972C56.2581 22.0726 59.7371 21.8554 70.3037 25.1803C78.5116 27.9441 81.0164 29.2638 82.2468 30.7427C85.0362 34.9023 85.5435 48.2969 79.3079 51.9574C79.326 51.953 79.3446 51.9783 79.3709 52.0139C79.526 52.2237 79.9462 52.7929 82.0915 49.7546C86.207 43.9259 84.6787 31.9312 82.9928 30.0634C81.8202 28.7641 74.5408 25.6852 70.7452 24.1193L69.0217 23.4119C68.9231 23.3715 68.8193 23.3487 68.7152 23.3259C68.6523 23.3121 68.5893 23.2983 68.5275 23.2806C68.3727 23.236 68.2939 23.1667 68.3397 22.9341C68.5164 22.0393 68.6886 21.1416 68.8149 20.2359C68.8541 19.9558 68.9688 19.9739 69.1068 20.0056L69.2013 20.0276C69.4219 20.0802 69.6431 20.1419 69.851 20.2375C71.0166 20.7737 72.179 21.3197 73.3383 21.8738C74.1097 22.2425 74.8798 22.6156 75.6397 23.0145C76.2453 23.3323 76.7553 23.0629 77.0685 22.5209C77.4891 21.7925 77.841 21.0016 78.1558 20.202C78.5345 19.2397 78.7348 18.2135 78.9102 17.1774L78.9877 16.7107C79.1919 15.4727 79.0224 14.3114 78.5685 13.2057C78.3712 12.7249 78.1282 12.2694 77.8852 11.8139C77.784 11.6245 77.683 11.4354 77.5854 11.2442C77.5458 11.1671 77.5102 11.0836 77.4742 10.9997V10.9995C77.3866 10.795 77.2985 10.5888 77.1566 10.475C76.7428 10.1423 76.2892 9.84898 75.8182 9.64538C74.9443 9.26738 74.0612 8.91857 73.178 8.56977C72.824 8.42982 72.4701 8.29006 72.1168 8.14855C72.1051 8.14369 72.0936 8.13843 72.082 8.13318C72.0626 8.12442 72.0432 8.11546 72.0232 8.10943C71.7837 8.0378 71.5444 7.96578 71.3051 7.89376C70.6661 7.70145 70.0271 7.50895 69.3865 7.32442C69.2629 7.28861 69.1386 7.25571 69.014 7.22379C69.0167 7.21503 69.0191 7.20569 69.0206 7.19634L70.0116 1.48036L70.0178 1.4387C70.0725 1.02216 69.866 0.615736 69.5215 0.472671ZM27.2802 57.8062C27.2388 57.8753 27.2112 57.8753 27.1976 57.8245C25.3019 58.2595 23.5679 59.4612 22.123 60.9542C20.5373 62.5927 19.2574 64.5781 17.9877 66.5477L17.9756 66.5662C16.7019 68.5419 15.4138 70.531 13.8151 72.1645C13.8726 72.3225 14.0803 72.2419 14.1982 72.1372C15.5595 70.9279 16.7717 69.5223 17.9848 68.116L17.985 68.1158C18.7954 67.1761 19.6064 66.2357 20.4624 65.3534C22.5995 63.1506 25.1638 61.2526 28.026 61.0217C28.914 60.9499 29.806 61.0416 30.689 61.1722C31.2214 61.251 31.7585 61.346 32.2543 61.5833C33.0205 61.9498 33.658 62.6601 34.0008 63.5295C34.2015 62.9252 34.3148 62.2634 34.2058 61.6286C34.111 61.0758 33.8529 60.5758 33.5454 60.1371C32.4357 58.5546 30.6679 57.7273 28.8899 57.6594C28.8694 57.7046 28.8503 57.7511 28.8324 57.7992C28.8041 57.8747 28.7194 57.9216 28.6346 57.9685C28.5954 57.9901 28.5564 58.0117 28.5227 58.0362C28.509 57.9747 28.4872 57.9093 28.4655 57.8437C28.4447 57.7812 28.4238 57.7186 28.4099 57.6594C28.1975 57.6678 27.986 57.6868 27.7761 57.7168C27.6096 57.7406 27.4443 57.7705 27.2802 57.8062ZM53.8899 22.6491C54.225 22.791 54.493 22.3583 54.6149 21.9688C54.7369 21.5793 54.5161 21.1015 54.1808 20.9598C53.8457 20.8179 53.5519 21.1124 53.43 21.5019C53.3079 21.8914 53.5547 22.5074 53.8899 22.6491ZM57.6653 18.3097C57.6375 18.3453 57.6186 18.3905 57.5997 18.4354C57.591 18.4561 57.5822 18.4767 57.5727 18.4965C57.5906 18.4973 57.6087 18.4991 57.6268 18.5008C57.6663 18.5047 57.706 18.5086 57.7445 18.503C57.8065 18.4938 57.8683 18.481 57.9299 18.4683H57.9301C58.0204 18.4496 58.1107 18.4309 58.2016 18.4235C60.0791 18.2727 61.9563 18.2106 63.8393 18.3184C65.0261 18.3866 66.2018 18.5324 67.3504 18.8605C68.4297 19.169 69.4935 19.5591 70.5499 19.9642C71.1357 20.1888 71.7065 20.4683 72.2765 20.7472L72.2773 20.7476C72.3919 20.8037 72.5066 20.8597 72.6211 20.9154C73.2378 21.2144 73.8481 21.5317 74.4556 21.8554C74.712 21.9922 74.9616 22.1469 75.211 22.3019L75.2113 22.3021L75.2171 22.3056C75.2557 22.3295 75.294 22.3533 75.3325 22.3772C75.3508 22.3885 75.3691 22.3998 75.3873 22.4111C75.8772 22.7126 76.4363 22.6192 76.7022 22.1135C77.037 21.4772 77.3492 20.8187 77.6128 20.1392C78.0751 18.9471 78.3308 17.6796 78.5116 16.3922C78.604 15.7322 78.6089 15.0645 78.394 14.4421C78.1406 13.7084 77.8461 12.991 77.5298 12.2906C77.3725 11.9422 77.1693 11.5854 76.9094 11.3468C76.6823 11.1381 76.389 11.0153 76.1028 10.9024L75.9715 10.8508C74.4191 10.2369 72.8642 9.63137 71.3052 9.04042C70.7436 8.82767 70.1735 8.63789 69.5981 8.48412C68.7055 8.24568 67.8075 8.03196 66.9071 7.83634C66.0871 7.65805 65.2637 7.49376 64.4369 7.36724C63.4234 7.21211 62.4054 7.09182 61.3876 6.97853C61.0264 6.93844 60.6616 6.93649 60.2977 6.93454C60.2416 6.93435 60.1854 6.93396 60.1293 6.93357L60.1059 6.9326C60.1 6.93201 60.094 6.93162 60.088 6.93104L60.0736 6.92968C59.9689 6.91936 59.8383 6.90671 59.8955 7.12277L59.9039 7.15157C60.2479 8.25094 60.1488 9.38008 60.0208 10.4927C59.95 11.1087 59.8379 11.7182 59.7257 12.3278C59.6719 12.6204 59.618 12.9131 59.5688 13.2064L59.5246 13.4782C59.3432 14.6359 59.0477 15.7501 58.6128 16.8105C58.5366 16.9966 58.4378 17.1702 58.3312 17.3575C58.2589 17.485 58.1828 17.6185 58.1078 17.7668L57.8112 18.1269C57.762 18.1874 57.7134 18.2482 57.6653 18.3097ZM54.1698 38.8972C54.284 38.5593 54.2012 38.4174 53.8899 38.4198C53.8058 38.4205 53.7217 38.4205 53.6375 38.4205C53.2715 38.4207 52.9046 38.4207 52.5435 38.4719C52.1398 38.5292 51.7386 38.6076 51.3373 38.6859L51.3371 38.686C50.9983 38.752 50.6596 38.8182 50.3193 38.8717C48.7528 39.1178 47.2166 39.503 45.7388 40.1667L45.5145 40.2685C44.1358 40.9023 42.8245 41.6528 41.7485 42.9091C41.1601 43.596 40.833 44.4127 40.6848 45.3009C40.5925 45.8551 40.57 46.4244 40.5476 46.9943C40.5334 47.3581 40.519 47.7221 40.4865 48.0828C40.4615 48.3588 40.5541 48.3364 40.6714 48.308H40.6717C40.6828 48.3053 40.6941 48.3026 40.7057 48.3L40.7206 48.2969C41.1103 48.2185 41.4999 48.1385 41.8895 48.0585C42.6964 47.8928 43.5032 47.7272 44.3121 47.5763C44.854 47.4753 45.3989 47.3965 45.9441 47.3208L46.5985 47.2304C46.6124 47.2285 46.6259 47.2269 46.6387 47.2256C46.7338 47.2149 46.7907 47.2083 46.734 47.0611L46.7242 47.0372C46.3874 46.2436 46.4836 45.4194 46.6737 44.6216C46.8422 43.9139 47.0751 43.2234 47.3207 42.5453C47.5226 41.9869 47.8007 41.4465 48.271 41.1526C48.9285 40.7419 49.6055 40.3584 50.3027 40.0517C51.2451 39.6371 52.2477 39.5246 53.2441 39.4127L53.2481 39.4123L53.2866 39.408L53.4028 39.395C53.4866 39.3854 53.578 39.4654 53.6693 39.5454C53.7117 39.5826 53.7541 39.6198 53.7956 39.6478C53.7649 39.6762 53.735 39.7056 53.7048 39.735C53.6318 39.8066 53.5586 39.8781 53.4775 39.9341C53.4419 39.9588 53.3933 39.9575 53.3441 39.9561C53.3178 39.9555 53.2913 39.9548 53.2665 39.9581L53.0133 39.9927C51.6635 40.1831 50.334 40.4704 49.1168 41.2309C48.8171 41.4181 48.4922 41.6377 48.2966 41.944C47.974 42.4486 47.7231 43.0226 47.4891 43.5933C47.4047 43.7988 47.3565 44.0236 47.3081 44.2488V44.2492C47.2825 44.3686 47.2567 44.4883 47.2255 44.6052L47.1971 44.7059C47.024 45.2811 46.9971 45.8664 47.0776 46.4591C47.142 46.9328 47.3808 47.1715 47.6829 47.1117C47.9281 47.0632 48.1737 47.0169 48.4194 46.9708C48.7523 46.9081 49.0854 46.8452 49.4177 46.7769C49.6701 46.7251 49.9229 46.6751 50.1756 46.6253L50.1766 46.6251H50.1768L50.1771 46.6249H50.1773H50.1774C50.8897 46.4844 51.6022 46.3436 52.306 46.1585C53.2357 45.914 54.1589 45.6355 55.082 45.3572H55.0822L55.0825 45.357H55.0827C55.4413 45.2489 55.7999 45.1407 56.1588 45.0346C56.1898 45.0255 56.2179 45.0031 56.2461 44.9809C56.2591 44.9706 56.2723 44.9603 56.2857 44.9511C56.276 44.9357 56.267 44.9175 56.2581 44.8992C56.2387 44.8593 56.2193 44.8194 56.192 44.81C56.0563 44.7639 55.9171 44.7304 55.7783 44.6971L55.7341 44.6864L55.6979 44.6777C55.545 44.6403 55.3922 44.5996 55.2396 44.5589H55.2395C54.8881 44.4653 54.5367 44.3717 54.1808 44.3189C53.3429 44.1951 52.4999 44.1066 51.657 44.0392L51.3287 44.0139C50.2347 43.9341 49.1431 43.9123 48.0784 44.3549L47.9613 44.4075C47.8239 44.4657 47.6545 44.5069 47.5913 44.271C47.5233 44.0164 47.7337 43.8913 47.9141 43.7994C47.9499 43.7811 47.9882 43.7687 48.0266 43.7572L48.065 43.7455C49.1928 43.4002 50.3319 43.3227 51.4858 43.4965L51.6141 43.517C51.8526 43.5567 52.1002 43.5374 52.2544 43.2291C52.4453 42.847 52.6393 42.4671 52.8364 42.0807L52.8371 42.0795L52.8386 42.0764L52.8394 42.075C53.0685 41.626 53.302 41.1684 53.5405 40.6888C53.6026 40.5128 53.6651 40.337 53.7276 40.1613L53.7279 40.1603C53.8773 39.7403 54.0269 39.3202 54.1698 38.8972ZM69.4522 7.76413C68.8194 7.59206 68.1837 7.4342 67.5474 7.27946L67.0702 7.16384C66.9202 7.12763 66.7703 7.09065 66.6204 7.05347H66.62H66.6197L66.6193 7.05328H66.619L66.6187 7.05308H66.6183L66.618 7.05289C66.0591 6.91488 65.5001 6.77669 64.936 6.678C64.0882 6.52968 63.2347 6.40666 62.3797 6.33659C61.7695 6.28657 61.1567 6.27975 60.5442 6.27294H60.544H60.5439H60.5437C60.3275 6.2706 60.1111 6.26827 59.895 6.26399C59.8594 6.26321 59.8233 6.29007 59.7873 6.31693C59.7706 6.32939 59.7538 6.34204 59.7371 6.35177C59.7545 6.36209 59.7716 6.37532 59.7888 6.38836C59.8262 6.41678 59.8634 6.4452 59.9014 6.44676C60.0389 6.4524 60.1767 6.4524 60.3144 6.45221C60.5352 6.45201 60.7557 6.45182 60.9743 6.47557C61.9815 6.58554 62.9876 6.70934 63.9922 6.84851C64.642 6.93844 65.2909 7.04627 65.9352 7.17941C66.4252 7.28063 66.9131 7.39644 67.4005 7.51537L68.1314 7.69444C68.7824 7.85366 69.4336 8.01328 70.0804 8.19332C70.5907 8.33541 71.0972 8.49833 71.6005 8.67098C72.4104 8.94894 73.2201 9.22962 74.0228 9.53385C74.3878 9.67205 74.7479 9.82757 75.1079 9.9829C75.3108 10.0705 75.5138 10.1581 75.7174 10.2426C75.7444 10.2538 75.777 10.2461 75.8097 10.2385C75.825 10.2348 75.84 10.2313 75.8548 10.2295C75.846 10.2165 75.8383 10.2013 75.8305 10.1861C75.8137 10.1534 75.797 10.1207 75.7725 10.1086C75.6514 10.0491 75.5308 9.98796 75.4101 9.92684C75.0622 9.75069 74.7142 9.57434 74.3561 9.43283C74.087 9.32655 73.8106 9.24616 73.5341 9.16558C73.3222 9.10368 73.1104 9.04198 72.9018 8.9686C72.4468 8.80879 71.9956 8.63439 71.5189 8.45025C71.3509 8.38524 71.1796 8.31926 71.0041 8.2521C70.8441 8.2013 70.6845 8.14894 70.5249 8.09639C70.1687 7.97921 69.8123 7.86223 69.4522 7.76413ZM71.9879 49.2036C71.8032 49.6326 71.6162 50.066 71.4268 50.5104C71.3925 50.5898 71.3583 50.6626 71.3258 50.7323H71.3257C71.2769 50.8367 71.2315 50.9334 71.1942 51.0342C71.0448 51.4362 70.8976 51.8389 70.7502 52.2418L70.7498 52.2428C70.5755 52.7197 70.4011 53.1964 70.2234 53.6715C69.9834 54.3132 69.7386 54.9526 69.4823 55.5858C69.1011 56.5281 68.7126 57.4665 68.3186 58.4016C67.9827 59.1991 67.639 59.9924 67.2908 60.7829C66.9054 61.6574 66.5167 62.53 66.1187 63.397C65.6235 64.4761 65.1264 65.5543 64.6134 66.6219C64.2699 67.3368 63.9165 68.0452 63.5629 68.7535L63.5626 68.7539L63.5624 68.7544L63.5623 68.7548L63.5619 68.7554L63.5618 68.7558L63.5614 68.7564C63.4011 69.0776 63.2409 69.3987 63.0814 69.7207C62.9407 70.0049 62.8005 70.2894 62.6604 70.574C62.3535 71.1969 62.0469 71.8195 61.7342 72.4383C61.6918 72.522 61.6498 72.6059 61.6077 72.6898C61.5816 72.7422 61.5553 72.7947 61.5292 72.8471L61.5283 72.8486L61.5282 72.8488L61.528 72.8492C61.2406 73.424 60.953 73.9998 60.6264 74.543C60.4208 74.8854 60.1839 75.2021 59.9471 75.519L59.9469 75.5192V75.5194H59.9468L59.9466 75.5198C59.7942 75.7236 59.642 75.9274 59.4978 76.138C59.4355 76.2291 59.4107 76.4881 59.4438 76.5092C59.4532 76.5152 59.4629 76.5216 59.4726 76.5284L59.4879 76.5389L59.488 76.5391C59.5897 76.6098 59.7029 76.6886 59.8369 76.5004C59.9721 76.3106 60.1211 76.1327 60.2702 75.955C60.4864 75.6971 60.7023 75.4398 60.8741 75.1466C61.2955 74.4288 61.6752 73.6774 62.0544 72.9265L62.0559 72.9238C62.1348 72.7675 62.2138 72.6112 62.2931 72.4555C62.544 71.962 62.7887 71.4647 63.0333 70.9672L63.0337 70.9664L63.034 70.9656L63.0345 70.9648L63.0349 70.9641L63.0352 70.9633L63.0357 70.9625C63.2367 70.5538 63.4377 70.1452 63.6422 69.7388C63.8038 69.4174 63.9703 69.099 64.1367 68.7807C64.3057 68.4578 64.4747 68.1347 64.6389 67.8083C64.9979 67.0937 65.3527 66.3759 65.6942 65.6498C65.8333 65.3538 65.9636 65.0521 66.0938 64.7504L66.094 64.75C66.206 64.4905 66.3179 64.2312 66.4356 63.9753C66.5832 63.6547 66.7351 63.3367 66.887 63.0188C67.0873 62.5999 67.2874 62.181 67.4774 61.7559C67.6413 61.3892 67.7944 61.0157 67.9475 60.6424C68.074 60.3336 68.2004 60.0249 68.333 59.7199C68.4942 59.3499 68.6601 58.983 68.8261 58.6159L68.8263 58.6155L68.8265 58.6151L68.8266 58.6147L68.8268 58.6143L68.827 58.6139L68.8271 58.6136L68.8273 58.6134V58.613L68.8275 58.6128L68.8276 58.6126L68.8278 58.6122V58.612C69.0598 58.0991 69.2917 57.5864 69.51 57.0657C69.8436 56.2694 70.1533 55.4591 70.4628 54.6494C70.4974 54.5583 70.5323 54.4674 70.5671 54.3765C70.7184 53.9812 70.8647 53.5833 71.0113 53.1855C71.1624 52.7749 71.3134 52.3644 71.4699 51.9567C71.8063 51.0798 72.1462 50.2046 72.5029 49.3389C72.6922 48.8795 72.8913 48.4254 73.0904 47.9715L73.0906 47.9713V47.9709L73.0908 47.9707L73.0909 47.9705V47.9701L73.0911 47.9699C73.2338 47.6445 73.3765 47.3192 73.5157 46.9916C73.6785 46.6083 73.8377 46.2229 73.9972 45.8376V45.8374L73.9974 45.8372L73.9975 45.8368V45.8366L73.9977 45.8364C74.2946 45.1179 74.5918 44.3993 74.9115 43.6947C74.9788 43.5464 75.0428 43.3951 75.1068 43.2437L75.1069 43.2435C75.3459 42.6794 75.5859 42.1124 76.0032 41.6731C76.0866 41.5853 76.1031 41.3778 76.0978 41.2281C76.0958 41.1709 75.9388 41.0674 75.8651 41.0806C75.7663 41.0981 75.6498 41.1853 75.5933 41.2834C75.4221 41.5808 75.2583 41.8839 75.0945 42.187L75.0944 42.1872V42.1873H75.0942C74.9822 42.3945 74.8701 42.6019 74.7559 42.8073C74.0675 44.0439 73.5388 45.3741 73.0343 46.7201C72.8911 47.1024 72.7303 47.4761 72.5697 47.8494V47.8498C72.5349 47.9306 72.5001 48.0116 72.4654 48.0925C72.3074 48.4622 72.1485 48.8312 71.9879 49.2036ZM69.5652 45.8062C69.4137 46.6465 69.2581 47.4638 69.0884 48.2774C69.0238 48.5881 68.9429 48.8945 68.862 49.2005L68.8613 49.2032C68.8444 49.2676 68.8273 49.332 68.8105 49.3965C68.7993 49.4391 68.7883 49.4817 68.7772 49.5243C68.7657 49.5685 68.7543 49.6127 68.7429 49.6569L68.7214 49.7398L68.7206 49.7431C68.6163 50.147 68.5121 50.5509 68.3933 50.949C67.8026 52.9289 67.2049 54.9061 66.607 56.8832C66.4906 57.268 66.3695 57.6506 66.2485 58.0335C66.1929 58.2095 66.1373 58.3852 66.0822 58.5612C65.9891 58.8588 65.8988 59.158 65.8086 59.4572L65.8084 59.4573C65.6036 60.1365 65.3986 60.8158 65.1589 61.478C64.883 62.24 64.5719 62.9847 64.2607 63.7295L64.2605 63.7296C64.1513 63.9911 64.0419 64.2525 63.9342 64.5145C63.6638 65.1731 63.3874 65.8285 63.1067 66.4814C62.9401 66.8687 62.7712 67.2547 62.6024 67.6407L62.6021 67.6416C62.3482 68.2221 62.0943 68.8027 61.8481 69.3876C61.7312 69.6652 61.6241 69.9486 61.5171 70.232C61.3908 70.5662 61.2645 70.9004 61.1222 71.2253C60.8509 71.8439 60.5532 72.4473 60.2558 73.0501C60.2243 73.1139 60.1928 73.1778 60.1613 73.2416C59.845 73.8836 59.5241 74.5228 59.1881 75.1509C59.0316 75.4435 58.8442 75.7162 58.6513 75.9784C58.6062 76.0397 58.5329 76.0728 58.4595 76.1057C58.426 76.1208 58.3924 76.136 58.3615 76.1537C58.3555 76.1099 58.3441 76.0632 58.3327 76.0163C58.3079 75.9145 58.2832 75.8127 58.313 75.7417C58.4873 75.3273 58.6917 74.9288 58.8962 74.5323C59.0223 74.2877 59.1526 74.0457 59.2829 73.8036C59.5058 73.3894 59.7287 72.9752 59.9312 72.5477C60.3544 71.6537 60.7485 70.7404 61.1391 69.8262C61.2674 69.5258 61.385 69.2193 61.5025 68.9125L61.5027 68.9123L61.5029 68.9121V68.9119L61.503 68.9117V68.9113L61.5032 68.9111V68.9109H61.5034V68.9106C61.6129 68.6252 61.7223 68.34 61.8402 68.0597C62.0191 67.6352 62.2053 67.215 62.3917 66.7945L62.3919 66.7944L62.3921 66.794L62.3922 66.7936V66.7932L62.3926 66.7926C62.5359 66.4693 62.6791 66.1462 62.819 65.8211C62.8697 65.7032 62.9208 65.5852 62.9717 65.4674L62.9719 65.4673C63.208 64.9217 63.4444 64.3755 63.6552 63.8167C64.1642 62.4681 64.6571 61.1113 65.1411 59.7503C65.2577 59.4227 65.359 59.0879 65.4605 58.7531L65.4607 58.7529V58.7527L65.4609 58.7525V58.7523L65.461 58.7518C65.5382 58.4972 65.6155 58.2424 65.6992 57.9907C65.7677 57.7853 65.8449 57.5839 65.9219 57.3824L65.9221 57.3822C66.0003 57.1778 66.0785 56.9737 66.1477 56.7652C66.3532 56.146 66.5482 55.5218 66.7336 54.8941C66.7888 54.7068 66.8341 54.5155 66.8791 54.3241C66.9205 54.1488 66.9619 53.9736 67.0111 53.8013C67.0754 53.5763 67.1466 53.354 67.2179 53.1317C67.2829 52.9285 67.3481 52.7255 67.4079 52.5203C67.4496 52.3773 67.4914 52.234 67.5335 52.091L67.5343 52.088L67.5352 52.0849C67.7321 51.413 67.9291 50.7409 68.1044 50.0612C68.3384 49.1541 68.5722 48.2442 68.7471 47.3202C68.869 46.6765 68.9702 46.0275 69.0713 45.3786V45.3784V45.3782V45.3776C69.1646 44.7796 69.2577 44.1817 69.3671 43.5878C69.5311 42.6975 69.6522 41.8169 69.528 40.9038C69.5187 40.8353 69.6006 40.7501 69.6825 40.6648C69.7205 40.6253 69.7583 40.5858 69.7873 40.5478C69.8146 40.5899 69.8474 40.6306 69.8803 40.6714C69.9513 40.7598 70.0225 40.8482 70.0382 40.9484C70.1543 41.6857 70.1025 42.4256 69.9871 43.1581C69.9347 43.4901 69.8808 43.822 69.8265 44.1548V44.1556C69.7377 44.7002 69.6486 45.2484 69.5652 45.8062ZM91.5644 66.3241C91.6493 66.8204 91.5609 67.3378 91.4048 67.8104C91.1377 67.1305 90.6411 66.5752 90.0443 66.2885C89.6583 66.1032 89.2399 66.0288 88.8252 65.9673C88.1375 65.8651 87.4426 65.7935 86.7511 65.8495C84.5219 66.03 82.5247 67.5142 80.86 69.2366C80.1933 69.9266 79.5617 70.6618 78.9303 71.3966C77.9855 72.4963 77.0414 73.5955 75.981 74.5409C75.8891 74.6228 75.7275 74.6857 75.6826 74.5621C76.9278 73.285 77.9311 71.7298 78.9232 70.1849L78.9324 70.1705C79.9214 68.6304 80.9183 67.078 82.1533 65.7968C83.3924 64.5115 84.9039 63.5025 86.5565 63.2654C88.2089 63.0283 90.0043 63.6609 91.0501 65.1578C91.2896 65.5007 91.4906 65.8918 91.5644 66.3241ZM53.426 69.2523C53.3052 71.5848 54.1403 73.9373 55.5743 75.5859C53.2605 73.6737 52.367 69.7826 53.5561 66.7977C53.1429 66.7151 52.7232 66.9946 52.477 67.3867C52.2308 67.7787 52.1281 68.2653 52.0593 68.743C51.6372 71.6726 52.3386 74.7943 53.9411 77.1172C52.7939 75.9634 52.0926 74.2984 51.7836 72.5783C51.4748 70.858 51.5327 69.0762 51.7134 67.3318C50.847 67.6936 50.1918 68.5793 49.8724 69.5774C49.5532 70.5756 49.5405 71.6757 49.6797 72.7276C49.9128 74.487 50.5673 76.1693 51.5516 77.5388C50.4797 76.6008 49.7688 75.1768 49.448 73.6685C49.1275 72.1602 49.1767 70.5703 49.4316 69.0452C48.9409 68.9018 48.4627 69.2909 48.0763 69.6685C47.1147 70.6081 46.2076 71.6206 45.301 72.6328H45.3008C44.1167 73.9548 42.9332 75.2761 41.6287 76.4338C41.8203 76.3953 42.0136 76.392 42.2033 76.4478C42.3953 76.5047 42.5569 76.617 42.7155 76.7272L42.7393 76.7437C45.4549 78.6283 48.9766 79.6192 52.4517 79.4769C53.3769 79.439 54.3153 79.3193 55.1467 78.9654C55.3577 78.8757 55.7049 78.8239 55.7456 79.0246C55.7518 79.0549 55.7168 79.0902 55.6463 79.1289C57.6923 78.6421 59.6612 77.9128 61.4764 76.9611C61.9243 76.7264 62.4445 76.4685 62.9397 76.6146C63.1317 76.6715 63.2933 76.7838 63.4519 76.894L63.4757 76.9105C65.8791 78.5784 68.9139 79.5464 71.9891 79.6482C71.9907 79.6478 71.9922 79.6474 71.9938 79.6471C71.9961 79.6467 71.9984 79.6461 72.001 79.6457C72.0056 79.6449 72.0107 79.6445 72.0157 79.6441C73.2608 79.5838 74.4996 79.4341 75.7168 79.1994C75.7727 79.1779 75.8281 79.1556 75.8831 79.1322C76.0246 79.0721 76.2271 79.0289 76.3577 79.0674C78.5687 78.5835 80.6977 77.8172 82.6489 76.7943C83.0968 76.5596 83.617 76.3017 84.1122 76.4478C84.3042 76.5047 84.4658 76.617 84.6244 76.7272L84.6482 76.7437C87.3638 78.6283 90.8855 79.6192 94.3606 79.4769C95.2858 79.439 96.2242 79.3193 97.0556 78.9654C97.2666 78.8757 97.6138 78.8239 97.6545 79.0246C97.7171 79.3339 93.4977 80.1662 91.0092 79.7814C89.4123 79.5345 88.2767 79.2556 87.1569 78.9804H87.1568C86.5317 78.8268 85.9115 78.6746 85.2185 78.5296C84.7569 78.433 84.2891 78.3439 83.8143 78.3371C83.1882 78.3283 82.5725 78.4626 81.9656 78.5961L78.5462 79.3483C77.1915 79.6463 75.8087 79.9458 74.4223 80.0426C72.9186 80.2707 71.3478 80.1833 69.8367 79.9482C68.598 79.7557 67.3836 79.4678 66.169 79.1797H66.1687H66.1683L66.168 79.1795C65.4624 79.0123 64.7568 78.8449 64.046 78.6964C63.5844 78.5999 63.1166 78.5107 62.6418 78.5039C62.0157 78.4951 61.4 78.6294 60.7931 78.763L57.3737 79.5151C55.3115 79.9686 53.1851 80.4258 51.0787 80.1662C50.9618 80.1518 50.834 80.1298 50.7604 80.0496C50.7179 80.0033 50.7129 79.9328 50.7388 79.8802C50.1558 79.8863 49.5941 79.8577 49.1003 79.7814C47.5034 79.5345 46.3678 79.2556 45.248 78.9804H45.2479C44.6228 78.8268 44.0026 78.6746 43.3096 78.5296C42.848 78.433 42.3802 78.3439 41.9054 78.3371C41.2793 78.3283 40.6637 78.4626 40.0567 78.5961L37.0919 79.2482C36.3587 79.5069 35.608 79.6735 34.8488 79.7226C34.0743 79.8691 33.2945 79.9881 32.5134 80.0426C31.0097 80.2707 29.4389 80.1833 27.9278 79.9482C26.6891 79.7557 25.4747 79.4678 24.2601 79.1797H24.2598H24.2594L24.2591 79.1795C23.5535 79.0123 22.8477 78.8449 22.1371 78.6964C21.6755 78.5999 21.2077 78.5107 20.7329 78.5039C20.1068 78.4951 19.4912 78.6294 18.8842 78.763L15.4648 79.5151C13.4026 79.9686 11.2762 80.4258 9.16977 80.1662C9.05283 80.1518 8.92509 80.1298 8.85156 80.0496C8.77806 79.9696 8.81634 79.8168 8.93427 79.8109C12.6757 79.6295 16.3614 78.6417 19.5675 76.9611C20.0154 76.7264 20.5356 76.4685 21.0308 76.6146C21.2228 76.6715 21.3844 76.7838 21.543 76.894L21.5668 76.9105C23.9702 78.5784 27.005 79.5464 30.0802 79.6482C30.0817 79.6478 30.083 79.6474 30.0845 79.6472C30.086 79.6469 30.0875 79.6465 30.0891 79.6463C30.0917 79.6457 30.0944 79.6453 30.0971 79.6451C30.1003 79.6447 30.1035 79.6443 30.1068 79.6441C31.3519 79.5838 32.5908 79.4341 33.8079 79.1994C33.8638 79.1779 33.9192 79.1556 33.9742 79.1322C34.1157 79.0721 34.3182 79.0289 34.4488 79.0674C35.4566 78.8469 36.4473 78.5675 37.412 78.2322C37.531 78.1679 37.6493 78.1014 37.7665 78.0319C39.6728 76.9035 41.2197 75.1032 42.5659 73.1789C43.1732 72.3106 43.7467 71.4118 44.32 70.5127C45.0176 69.419 45.715 68.3256 46.4734 67.288C47.8549 65.3974 49.4755 63.6689 51.4408 62.6844C53.4062 61.6999 55.7624 61.5442 57.6523 62.7091C58.1664 63.0262 58.6428 63.4392 59.005 63.9665C60.023 65.4482 59.9746 67.6272 59.2923 69.3467C59.133 69.114 59.0002 68.8596 58.8673 68.6051L58.8672 68.605V68.6048C58.7494 68.3792 58.6315 68.1536 58.4952 67.9428C58.2051 67.4943 57.7929 67.0986 57.3089 67.0669C56.6256 67.0221 56.0665 67.7059 55.7664 68.4163C54.933 70.3893 55.422 72.9882 56.8894 74.3838C55.7359 74.0044 55.2483 72.437 55.0859 71.0649C54.9012 69.507 54.9482 67.7872 55.784 66.5458C55.1889 66.2305 54.4479 66.552 54.0306 67.1346C53.6134 67.7172 53.4651 68.4977 53.426 69.2523ZM59.203 68.1218C59.3827 67.578 59.4845 66.9826 59.3867 66.4117C59.3016 65.9144 59.0705 65.4643 58.7947 65.0698C57.5913 63.3475 55.5247 62.6196 53.6229 62.8925C51.721 63.1652 49.9811 64.3262 48.5552 65.8048C47.1337 67.2788 45.9863 69.0651 44.8481 70.837L44.8374 70.8537C43.6956 72.631 42.5408 74.4204 41.1078 75.8898C41.1593 76.0321 41.3455 75.9597 41.4512 75.8655C42.6715 74.7776 43.7583 73.5132 44.8456 72.2478C45.5723 71.4022 46.2993 70.5563 47.0668 69.7625C48.9824 67.7808 51.2812 66.0734 53.8468 65.8655C54.6429 65.8011 55.4426 65.8834 56.234 66.001C56.7113 66.0718 57.1928 66.1575 57.6373 66.3708C58.3242 66.7005 58.8955 67.3396 59.203 68.1218Z" fill="#00160A"/>
<path fill-rule="evenodd" clip-rule="evenodd" d="M100.356 81.4147C99.942 81.4009 99.9003 81.3491 99.8971 80.7973C99.8879 80.7485 99.8748 80.7062 99.8631 80.6677C99.8465 80.6136 99.8325 80.5672 99.8347 80.5221C99.8497 80.2107 99.6501 80.212 99.5097 80.2751C99.4245 80.3132 99.3543 80.519 99.3505 80.6523C99.3471 80.7601 99.367 80.8686 99.387 80.9774C99.4044 81.0716 99.4216 81.1664 99.4242 81.261C99.426 81.3359 99.3402 81.4515 99.2724 81.4817C99.2034 81.5125 99.1202 81.5039 99.0391 81.4955C99.0185 81.4934 98.9981 81.4912 98.9781 81.4899C98.7947 81.4766 98.5827 81.494 98.5928 81.7439C98.5968 81.8463 98.8515 82.0248 98.9828 82.0139C99.3654 81.9821 99.5844 82.1125 99.6796 82.5676C99.6978 82.655 99.7935 82.7206 99.8893 82.7862C99.9331 82.8162 99.977 82.8464 100.013 82.8785C100.029 82.8333 100.051 82.786 100.073 82.7387C100.121 82.6356 100.169 82.5322 100.15 82.4501C100.059 82.0555 100.209 81.9673 100.501 81.9444C100.578 81.9383 100.651 81.8829 100.725 81.8272C100.758 81.8019 100.792 81.7766 100.826 81.7561C100.799 81.7258 100.773 81.6946 100.747 81.6633L100.747 81.6631L100.746 81.6623C100.682 81.5843 100.617 81.506 100.543 81.4414C100.51 81.4122 100.455 81.4134 100.402 81.4145C100.386 81.4149 100.371 81.4153 100.356 81.4147ZM15.8345 81.4025C15.8332 81.3924 15.8313 81.3787 15.8198 81.3561C15.4649 81.1796 15.3171 81.2662 15.3089 81.647C15.3042 81.8679 15.2379 81.971 15.0468 82.0454C14.9135 82.0974 14.7308 82.286 14.7291 82.4162C14.7264 82.6268 14.9256 82.6772 15.1031 82.647C15.3299 82.6085 15.3773 82.7446 15.3771 82.9791C15.3768 83.2248 15.3865 83.4819 15.4513 83.7112C15.4727 83.7863 15.5593 83.8367 15.6459 83.8869C15.6853 83.9097 15.7245 83.9325 15.7576 83.9576C15.7722 83.9255 15.7878 83.8938 15.8034 83.862C15.84 83.7877 15.8765 83.7135 15.8983 83.6339C15.9137 83.5776 15.9099 83.5142 15.906 83.4507C15.9043 83.4223 15.9027 83.3941 15.9027 83.3665C15.9027 82.6531 15.904 82.6525 16.4374 82.4341L16.4497 82.429C16.513 82.4031 16.5676 82.3483 16.622 82.2934C16.6473 82.2681 16.6724 82.2428 16.6986 82.2202C16.6711 82.1925 16.6448 82.1612 16.6185 82.1299C16.5602 82.0604 16.5019 81.9909 16.4314 81.9619C16.239 81.8827 15.9017 81.6043 15.8369 81.4138C15.8357 81.4105 15.8352 81.4068 15.8345 81.4025ZM89.4563 95.3057C89.6265 95.3057 89.6999 95.9885 89.7315 96.2828V96.2834C89.7372 96.3352 89.7414 96.3749 89.7447 96.3967C89.7538 96.4564 89.9157 96.4586 90.0779 96.4609C90.2397 96.463 90.4016 96.4654 90.4118 96.5248C90.4217 96.5826 90.2606 96.6834 90.1089 96.7784C89.9807 96.8584 89.8595 96.9343 89.8531 96.9769C89.8479 97.0114 89.8436 97.0608 89.8387 97.119L89.8385 97.1192C89.8163 97.3808 89.7791 97.8143 89.5754 97.8143C89.5407 97.8143 89.5029 97.7051 89.4547 97.5655C89.3692 97.3187 89.2508 96.9769 89.0587 96.9769C89.0035 96.9769 88.1836 96.9427 88.1722 96.8656C88.161 96.7895 88.94 96.5035 89.0587 96.4632C89.1639 96.4274 89.2321 96.0956 89.2934 95.7964C89.3463 95.5391 89.3942 95.3057 89.4563 95.3057ZM6.49258 98.6361C6.53043 98.8366 6.56928 99.0431 6.88265 98.9882C6.94897 98.8889 7.01161 98.7893 7.00993 98.691C7.00843 98.5921 6.99235 98.4924 6.97627 98.3928C6.93658 98.1463 6.89688 97.9003 7.0771 97.6693C7.08999 97.6529 7.04795 97.5548 7.01362 97.5161C6.80008 97.2751 6.72906 96.9898 6.73375 96.6441C6.73493 96.5537 6.5445 96.4292 6.42441 96.3848C6.38438 96.37 6.25408 96.5458 6.22829 96.6548C6.19479 96.7953 6.18457 96.9781 6.23532 97.1042C6.33146 97.3432 6.21288 97.3841 6.09313 97.4254C6.07554 97.4314 6.05779 97.4374 6.04087 97.4441C6.00084 97.4598 5.9573 97.4674 5.91409 97.4746C5.85245 97.4853 5.79166 97.4956 5.74225 97.5299C5.62417 97.612 5.42487 97.7909 5.44195 97.8361C5.50777 98.0109 5.63271 98.1173 5.84441 98.0152C5.98342 97.9482 6.1767 97.9554 6.3204 98.0136C6.35407 98.0272 6.36328 98.1029 6.37366 98.1882C6.38321 98.2663 6.39359 98.3521 6.42475 98.4056C6.46076 98.4679 6.4765 98.5516 6.49258 98.6361Z" fill="#00160A"/>
<path fill-rule="evenodd" clip-rule="evenodd" d="M39.8266 53.6221C39.6555 54.3839 39.3893 54.9762 39.0606 55.4621C38.5677 56.1909 38.0077 56.4691 37.389 56.0955C37.0051 55.8639 36.6272 55.6218 36.3189 55.081C35.9409 54.418 35.8084 53.6219 35.8304 52.7096C35.8389 52.3569 35.8373 51.9717 35.914 51.6623C36.0979 50.9207 36.2947 50.183 36.6889 49.699C37.1595 49.121 37.6587 48.7308 38.2361 48.7594C38.9955 48.7968 39.5578 49.4434 39.9185 50.6489C40.1105 51.2906 40.0524 51.987 39.9713 52.6667C39.9343 52.9769 39.8801 53.2802 39.8266 53.6221ZM36.1734 52.5196C36.1951 52.9838 36.1579 53.4914 36.2496 53.9033C36.5088 55.0665 37.0816 55.5247 37.7081 55.6754C38.3807 55.8374 38.8706 55.1712 39.2635 54.2381C39.5054 53.6637 39.6231 52.9891 39.6909 52.2926C39.7563 51.6194 39.7278 50.9617 39.4724 50.3951C39.2663 49.938 39.0153 49.6149 38.6968 49.4989C38.4682 49.4155 38.2242 49.2577 38.0064 49.3297C37.1385 49.6158 36.3502 50.4131 36.1734 52.5196Z" fill="#FFB61D"/>
<path fill-rule="evenodd" clip-rule="evenodd" d="M47.4292 60.5265C47.4659 59.097 47.7887 57.9636 48.3796 57.1028C48.7461 56.5687 49.1721 56.809 49.4125 57.6097C49.7158 58.6197 49.7476 59.6699 49.4978 60.7049C49.3042 61.5071 49.0036 62.1691 48.5453 62.5626C48.2039 62.8558 47.7709 62.5663 47.6296 61.9714C47.5248 61.53 47.4888 61.0338 47.4292 60.5265ZM47.7862 59.8393C47.7799 59.9444 47.7712 60.0494 47.7677 60.1549C47.7487 60.7203 47.758 61.2736 47.9253 61.7835C48.0293 62.1004 48.2848 62.248 48.4457 62.0464C48.8499 61.5395 49.168 60.8983 49.2878 60.0108C49.3796 59.3301 49.38 58.6399 49.1867 57.9985C49.0441 57.5256 48.7789 57.3394 48.58 57.5771C48.49 57.6845 48.4143 57.8333 48.3352 57.9693C48.0488 58.4611 47.9189 59.1092 47.7862 59.8393Z" fill="#FFB61D"/>
<path fill-rule="evenodd" clip-rule="evenodd" d="M37.512 50.4953C37.7486 50.1292 38.2464 50.1133 38.5107 50.419C39.3697 51.4123 39.0262 53.441 38.4251 54.1727C37.8384 54.8867 37.0588 54.1587 36.8709 53.2299C36.7753 52.7571 36.8135 52.3178 36.9153 51.85C37.0388 51.2824 37.2165 50.8276 37.512 50.4953ZM37.4383 52.7977C37.4065 52.6629 37.347 52.5265 37.3493 52.3935C37.353 52.1808 37.4012 51.9715 37.4239 51.7586C37.436 51.6447 37.4343 51.5258 37.4389 51.4093C37.3937 51.5087 37.3295 51.5955 37.3074 51.7098C37.254 51.9843 37.216 52.2697 37.1798 52.5543C37.0976 53.2003 37.4683 53.9878 37.8388 53.9247C38.2739 53.8506 38.5276 53.3716 38.6626 52.6299C38.8003 51.8742 38.6758 51.2208 38.2994 50.8379C38.17 50.7061 37.9342 50.7774 37.889 51.0008C37.8051 51.4152 37.7503 51.849 37.6735 52.2687C37.632 52.4967 37.7108 52.8952 37.4383 52.7977Z" fill="#FFB61D"/>
<path fill-rule="evenodd" clip-rule="evenodd" d="M48.5128 61.1058C48.0588 60.958 47.8664 60.3421 48.0155 59.5701C48.097 59.1473 48.166 58.7164 48.3749 58.4214C48.5527 58.1704 48.733 58.1568 48.9355 58.3071C49.1103 58.4367 49.1668 58.7022 49.1803 58.9934C49.2222 59.8904 48.9997 60.85 48.6021 61.0869C48.5787 61.1009 48.5514 61.0925 48.5128 61.1058ZM48.7506 60.0781C48.7906 59.8772 48.8394 59.6805 48.8673 59.4743C48.8846 59.3476 48.8699 59.2065 48.8694 59.0718C48.8351 59.1599 48.8013 59.2488 48.7663 59.3358C48.7397 59.4012 48.7183 59.4926 48.6823 59.5218C48.6342 59.5611 48.5628 59.5901 48.5228 59.5508C48.4887 59.517 48.4704 59.3801 48.4721 59.2904C48.4733 59.2187 48.5206 59.1536 48.5375 59.0781C48.5522 59.0128 48.5528 58.9371 48.5597 58.8657C48.5234 58.9031 48.4652 58.9262 48.4548 58.98C48.405 59.2412 48.3684 59.5109 48.3263 59.7773C48.282 60.0581 48.2654 60.387 48.4169 60.5175C48.5626 60.6434 48.6524 60.3456 48.7506 60.0781Z" fill="#FFB61D"/>
<path fill-rule="evenodd" clip-rule="evenodd" d="M69.4458 3.39781C69.4458 3.39781 69.5011 0.732132 69.9848 0.24863C70.2522 -0.0186195 70.3003 1.44726 71.2613 1.75033C71.9224 1.95879 72.6814 1.52493 73.4028 1.72814C73.7121 1.81534 74.4479 2.4966 74.2698 2.69047C74.0808 2.8964 73.7848 2.37008 72.6685 2.52774C72.2297 2.58964 71.5221 3.32054 70.8855 3.36628C69.9885 3.4311 69.4458 3.39781 69.4458 3.39781Z" fill="#FFB61D"/>
</svg>
