<svg width="340" height="466" viewBox="0 0 340 466" fill="none" xmlns="http://www.w3.org/2000/svg">
<path fill-rule="evenodd" clip-rule="evenodd" d="M219.731 73.0023C220.578 43.2919 180.804 -7.4272 115.646 1.40969C44.3062 11.0847 -7.45735 88.5795 2.85415 175.194L3.24684 178.521C9.57741 232.619 11.6929 275.235 0.755241 335.242C-7.42277 380.107 50.7297 479.436 179.366 463.722C308.002 448.01 378.658 302.186 317.955 233.38C236.876 141.476 217.879 138.027 219.731 73.0023Z" fill="#64FCD9"/>
<path fill-rule="evenodd" clip-rule="evenodd" d="M143.338 159.621C141.131 154.252 136.95 149.867 133.332 145.233C123.656 132.842 117.655 117.914 116.185 102.575C115.401 94.3866 118.38 54.4197 134.136 45.0439C126.357 42.7797 118.38 40.4187 112 35.6416C105.62 30.8643 101.104 23.0541 102.821 15.5327C105.42 4.14884 121.059 -0.738505 132.725 3.00316C144.391 6.74482 152.782 16.2107 160.546 25.2521C167.971 24.6609 169.814 14.319 176.595 11.4006C181.169 9.43201 186.486 11.4503 190.92 13.6865C203.824 20.1941 215.91 29.1177 222.733 41.3471C229.556 53.5771 230.147 69.5412 221.453 80.6595C224.62 77.2318 231.183 81.4946 230.808 86.0319C230.433 90.5693 226.193 93.8614 222.146 96.3253C218.099 98.7891 213.576 101.343 211.976 105.636C207.951 116.441 201.555 126.452 193.312 134.849C188.275 139.979 182.494 144.595 178.758 150.639C175.022 156.682 173.775 164.803 178.132 170.462C183.925 164.633 193.911 162.993 201.445 166.635C208.978 170.277 213.418 178.891 211.811 186.744C222.308 187.596 231.738 195.458 233.946 205.197C255.23 225.48 272.614 249.408 285 275.469C292.861 292.012 298.7 309.335 304.52 326.616C306.798 333.377 309.103 340.46 307.834 347.454C305.258 361.656 288.961 370.023 273.824 371.704C254.976 373.798 235.337 368.6 220.378 357.56C212.388 381.051 204.411 406.71 213.495 429.844C215.441 434.797 211.55 440.425 206.469 442.626C201.387 444.827 195.538 444.506 189.962 444.14C158.708 442.092 127.454 440.044 96.1994 437.996C89.6498 437.566 80.6951 433.923 83.0137 428.117C88.1907 415.149 89.67 400.88 87.2548 387.209C85.4117 396.417 82.2168 405.381 77.7892 413.766C77.7892 413.766 62.1883 444.14 46.6306 428.552C37.7631 411.613 37.3805 391.778 39.9981 373.042C42.6158 354.304 48.0263 335.969 50.141 317.176C52.2003 298.867 51.1058 280.34 53.1204 262.027C55.1343 243.714 60.7018 224.96 73.9235 211.441C84.3849 200.745 94.8463 190.049 105.308 179.352C108.124 176.473 111.093 173.494 114.987 172.143C118.882 170.793 123.974 171.652 125.977 175.086C128.446 172.182 131.335 169.052 135.255 168.663C139.175 168.275 143.266 172.815 140.75 175.682C145.26 171.81 145.545 164.99 143.338 159.621Z" fill="white"/>
<path fill-rule="evenodd" clip-rule="evenodd" d="M226.741 205.198C248.024 225.481 265.409 249.409 277.795 275.47C285.656 292.012 291.495 309.337 297.315 326.617C299.593 333.378 301.898 340.461 300.629 347.455C298.053 361.658 281.756 370.024 266.618 371.705C247.771 373.798 229.34 367.516 214.381 356.476C206.392 379.967 197.206 406.711 206.29 429.845C207.113 431.941 209.26 434.312 208.345 436.339C207.098 439.102 202.194 441.357 199.263 442.627C198.492 442.961 200.552 436.05 200.462 425.907C200.309 408.645 192.654 348.676 210.674 352.637C254.685 362.314 287.868 360.813 288.564 350.491C292.096 298.088 224.533 195.459 226.741 205.198Z" fill="#E7EAEE"/>
<path fill-rule="evenodd" clip-rule="evenodd" d="M130.686 148.214V148.214L130.685 148.213L130.685 148.212L130.684 148.212V148.211H130.683L130.683 148.21V148.209V148.209H130.682V148.208H130.681C129.874 147.22 129.068 146.232 128.288 145.233C118.612 132.842 112.612 117.914 111.142 102.575C110.357 94.3866 113.337 54.4197 129.092 45.0439C121.313 42.7797 113.337 40.4187 106.956 35.6416C100.576 30.8643 96.0604 23.0541 97.7774 15.5327C100.376 4.14884 116.015 -0.738505 127.681 3.00316C139.347 6.74482 147.738 16.2107 155.503 25.2521C159.592 24.9265 161.988 21.6428 164.448 18.2707C166.455 15.5205 168.505 12.7116 171.551 11.4006C176.125 9.43201 181.442 11.4503 185.877 13.6865C198.78 20.1941 210.867 29.1177 217.689 41.3471C224.513 53.5771 225.104 69.5412 216.41 80.6595C219.576 77.2318 226.139 81.4946 225.764 86.0319C225.389 90.5693 221.149 93.8614 217.102 96.3253C216.887 96.4561 216.67 96.5875 216.452 96.7197C212.581 99.0657 208.447 101.572 206.933 105.636C202.907 116.441 196.511 126.452 188.268 134.849C186.928 136.214 185.534 137.543 184.141 138.872H184.141C180.299 142.537 176.456 146.203 173.714 150.639C169.979 156.682 168.731 164.803 173.088 170.462C178.882 164.633 188.867 162.993 196.401 166.635C203.934 170.277 208.374 178.891 206.767 186.744C217.264 187.596 226.694 195.458 228.902 205.197C250.186 225.48 267.57 249.408 279.956 275.469C287.818 292.012 293.656 309.335 299.477 326.616C301.754 333.377 304.059 340.46 302.79 347.454C300.214 361.656 283.917 370.023 268.78 371.704C249.932 373.798 230.293 368.6 215.334 357.56C207.344 381.051 199.368 406.71 208.451 429.844C209.256 431.892 209.062 434.054 208.2 436.043C202.285 423.892 201.201 410.022 202.784 396.724C204.379 383.318 208.549 370.322 212.699 357.414C213.387 355.274 209.791 354.709 207.446 354.405C203.283 353.866 200.263 350.512 197.659 347.394L187.073 334.717C180.241 326.535 172.364 317.753 161.466 316.169C158.444 315.73 155.385 315.89 152.322 316.05C150.457 316.147 148.589 316.245 146.727 316.207C139.494 316.061 132.325 313.81 126.436 309.837C125.023 308.885 123.59 307.692 123.301 306.075C123.018 304.496 124.527 302.644 126.13 303.046L126.244 303.079C126.227 303.073 126.209 303.068 126.192 303.063C126.172 303.057 126.151 303.052 126.13 303.046C121.028 301.591 116.169 299.375 111.788 296.505C110.981 295.977 110.158 295.39 109.742 294.548C108.843 292.731 110.33 290.505 112.291 289.738C114.252 288.971 116.473 289.251 118.573 289.543C116.068 289.062 113.486 288.551 111.387 287.172C109.289 285.792 107.785 283.303 108.435 280.967C109.084 278.63 112.491 277.184 114.411 278.778C113.573 276.419 115.389 273.806 117.766 272.736C120.142 271.665 122.895 271.75 125.524 271.887C136.551 272.462 147.547 273.575 158.453 275.218L156.856 254.008C156.791 253.143 156.712 252.237 156.216 251.507C155.58 250.573 154.405 250.127 153.303 249.741C131.103 241.966 108.265 235.82 85.0615 231.376L90.2594 323.44C90.4193 326.263 91.2508 329.844 94.2014 330.302C112.532 333.155 130.515 338.01 147.675 344.739C150.085 345.685 151.847 342.494 152.291 340.064L156.689 315.969C157.3 326.154 155.758 336.451 152.182 346.076C154.917 346.684 156.5 343.268 156.937 340.644L160.908 316.835C161.585 325.274 160.804 333.818 158.607 342.023C158.102 343.907 157.336 345.991 155.472 346.811C153.894 347.505 152.047 347.055 150.377 346.595L92.3107 330.586C91.3978 330.334 90.4453 330.061 89.768 329.43C88.7614 328.49 88.6238 327.022 88.546 325.686L83.7134 242.674C83.4 237.293 83.7112 231.899 84.0218 226.517L85.6149 198.957C76.2689 230.083 75.3862 263.076 79.3232 295.216C83.2609 327.356 91.9094 358.807 101.385 389.897C97.3984 383.45 94.486 376.41 92.7892 369.116C88.1547 375.387 83.2919 382.535 84.614 390.083C86.8347 402.758 85.4189 415.987 80.5567 427.985C79.4478 430.721 81.4416 433.877 84.1709 435.265C86.901 436.653 90.1383 436.722 93.2381 436.759L134.498 437.243C133.361 435.877 133.771 433.611 135.326 432.682C134.909 436.921 140.661 438.917 145.123 439.491C166.206 442.202 188.617 444.744 207.994 436.489C206.703 439.123 204.248 441.403 201.425 442.626C196.344 444.827 190.494 444.506 184.918 444.14L91.1557 437.996C84.6061 437.566 75.6514 433.923 77.97 428.117C83.147 415.149 84.6263 400.88 82.2111 387.209C80.368 396.417 77.1731 405.381 72.7455 413.766C74.5612 399.766 79.5264 386.139 87.2137 374.051C92.6854 365.447 89.5331 354.499 86.723 344.818C73.4156 298.981 71.3527 250.262 80.7419 203.566C60.7033 217.414 52.3372 241.987 49.9609 265.345C48.9666 275.11 48.8023 284.944 48.6387 294.771C48.4096 308.449 48.1812 322.115 45.717 335.57C44.5915 341.717 43.0035 347.792 41.4161 353.862C38.9087 363.452 36.4034 373.032 35.7304 382.868C34.6799 398.228 38.1435 413.508 41.5869 428.552C32.7194 411.613 32.3368 391.778 34.9544 373.042C36.1556 364.442 37.9454 355.928 39.7344 347.415C41.8441 337.378 43.9531 327.344 45.0973 317.176C46.1342 307.955 46.3719 298.678 46.609 289.402C46.8432 280.26 47.0766 271.117 48.0767 262.027C50.0906 243.714 55.6581 224.96 68.8798 211.441L100.264 179.352C103.08 176.473 106.049 173.494 109.944 172.143C113.839 170.793 118.93 171.652 120.933 175.086C123.402 172.182 126.292 169.052 130.211 168.663C134.132 168.275 138.222 172.815 135.706 175.682C140.216 171.81 140.501 164.99 138.294 159.621C136.564 155.412 133.621 151.807 130.686 148.214ZM207.994 436.489C208.067 436.342 208.135 436.193 208.2 436.043C208.248 436.141 208.296 436.24 208.345 436.338C208.296 436.359 208.246 436.381 208.196 436.402C208.129 436.432 208.062 436.46 207.994 436.489ZM300.648 339.685C301.71 348.05 296.966 356.459 289.927 361.626C282.888 366.794 273.876 369.064 264.985 369.642C246.266 370.857 227.133 364.79 212.974 353.149C223.843 342.618 224.45 324.117 214.293 312.969C223.031 309.126 231.967 305.229 241.547 304.233C251.127 303.237 261.641 305.641 267.868 312.596C268.933 313.784 269.854 315.08 270.774 316.375C271.903 317.966 273.032 319.555 274.425 320.941C273.218 313.401 267.001 307.103 259.558 304.16C252.115 301.218 243.649 301.284 235.773 302.939C227.899 304.594 220.481 307.751 213.127 310.886C211.728 311.483 210.682 309.58 210.454 308.146L209.137 299.836C208.594 296.411 208.652 291.928 212.065 290.67C214.629 289.725 213.957 286.027 212.26 283.98C211.976 283.636 211.671 283.292 211.364 282.943C209.836 281.213 208.232 279.395 208.637 277.264C212.938 254.625 217.263 231.895 224.918 210.061C225.155 209.385 225.443 208.651 226.095 208.294C226.976 207.811 228.09 208.229 228.977 208.702C236.148 212.533 240.433 219.377 244.709 226.207V226.207C246.218 228.617 247.726 231.025 249.359 233.299C251.879 236.807 254.766 240.054 257.654 243.302L257.655 243.303V243.304L257.656 243.304L257.656 243.305L257.657 243.306V243.306L257.658 243.307L257.659 243.308L257.659 243.309L257.66 243.309L257.661 243.31V243.311L257.661 243.311C259.804 245.721 261.946 248.13 263.939 250.648C276.239 266.182 282.273 284.866 288.32 303.59C291.078 312.132 293.839 320.681 297.199 328.943C297.335 329.278 297.473 329.614 297.61 329.949C298.91 333.12 300.22 336.316 300.648 339.685ZM204.278 290.794C206.033 290.778 207.87 290.743 209.407 289.941C210.944 289.14 212.03 287.304 211.319 285.787C210.644 284.347 208.699 283.828 207.047 284.032C206.09 284.151 205.175 284.446 204.259 284.743H204.259H204.258L204.257 284.743H204.257C203.592 284.958 202.927 285.173 202.245 285.32C198.844 286.056 195.372 285.087 191.92 284.123C188.182 283.079 184.466 282.042 180.886 283.18C183.202 279.556 183.049 275.073 182.904 270.815C182.896 270.592 182.888 270.37 182.881 270.148C182.146 247.532 187.454 224.763 198.177 204.534C194.22 207.21 191.378 211.324 190.38 215.828C190.261 216.362 190.167 216.905 190.071 217.447C189.829 218.841 189.586 220.235 188.935 221.497C186.298 226.613 178.851 226.992 172.855 226.48C167.943 226.061 162.794 225.451 158.792 222.724C156.784 221.356 155.169 219.52 153.562 217.693C151.422 215.262 149.299 212.849 146.289 211.583C141.297 209.483 135.962 211.233 130.564 213.003C125.688 214.603 120.76 216.219 115.987 215.029C113.298 214.359 111.438 217.48 110.631 219.996L107.114 230.959C105.473 224.967 107.477 218.207 112.173 213.893C110.162 212.646 110.704 210.086 111.24 207.551C111.782 204.983 112.321 202.442 110.194 201.318C103.777 197.923 102.506 189.862 101.959 182.929C93.7929 185.779 89.1347 194.123 87.6986 202.239C86.852 207.024 86.8621 211.879 86.8722 216.74C86.8787 220.125 86.8852 223.513 86.6027 226.881C111.222 231.438 135.488 237.696 159.143 245.591C160.591 246.075 162.112 246.613 163.078 247.742C164.117 248.956 164.311 250.61 164.464 252.165C165.236 260.029 165.965 268.218 162.99 275.597L163.015 252.601C163.016 251.327 162.786 249.733 161.504 249.344C159.51 248.737 158.575 251.617 158.739 253.592L160.164 270.687C160.358 273.026 160.719 275.663 162.71 277.064L126.918 273.665C123.201 273.312 118.745 273.253 116.57 276.126C116.928 278.874 120.403 280.028 123.271 280.593L146.054 285.084C138.925 286.477 131.432 285.228 124.686 282.638C124.175 282.441 123.665 282.237 123.154 282.032L123.152 282.031C121.016 281.175 118.873 280.316 116.583 280.03C113.746 279.675 110.539 280.406 108.891 282.619C119.085 288.992 130.932 292.983 143.091 294.14C143.018 295.387 141.258 295.761 139.94 295.67C136.51 295.434 133.212 294.483 129.91 293.531H129.909C128.377 293.089 126.844 292.646 125.297 292.276C120.416 291.106 114.945 290.719 110.612 293.144C120.364 300.663 133.222 303.276 145.551 305.659L125.136 305.248C128.746 311.321 136.847 313.559 144.206 313.927C146.383 314.036 148.578 314.034 150.774 314.031C156.001 314.024 161.224 314.018 166.165 315.521C175.134 318.248 181.63 325.443 187.631 332.311L199.201 345.555C200.778 347.36 203.785 347.56 206.014 346.539C208.243 345.518 209.816 343.55 211.05 341.519C213.499 337.483 214.956 332.744 214.166 328.151C213.375 323.558 210.023 319.218 205.3 317.909C197.186 315.659 191.426 308.842 187.444 301.791C186.078 299.37 184.85 296.872 183.622 294.376C181.274 289.601 178.929 284.832 175.62 280.616C174.628 279.353 173.548 278.134 172.467 276.916C169.797 273.905 167.128 270.896 165.807 267.212C172.604 273.43 178.373 280.65 182.84 288.532C183.324 289.386 183.858 290.309 184.794 290.706C185.393 290.96 186.074 290.959 186.731 290.952L204.278 290.794ZM202.407 97.9812C204.05 97.7796 205.349 96.6155 206.523 95.5113L212.239 90.1367C201.681 114.869 186.604 138.781 163.749 154.416C159.109 157.59 153.592 160.514 147.954 159.561C145.001 159.062 142.352 157.531 140.003 155.766C135.11 152.092 131.24 147.333 127.93 142.323C118.586 128.179 113.397 111.556 113.476 94.8798C113.555 78.2038 118.949 61.5346 129.045 47.8592C129.393 47.3892 129.782 46.896 130.355 46.7087C130.936 46.5187 131.573 46.6869 132.162 46.8565C153.322 52.9374 174.281 59.6477 194.996 66.9732C198.275 68.1332 199.64 71.7816 200.236 75.0431C201.464 81.7609 201.137 88.7287 199.284 95.3178C198.858 96.8307 200.765 98.1835 202.407 97.9812ZM188.6 47.9791C191.096 48.0002 192.837 51.1561 191.426 53.1029C190.015 55.0498 186.274 54.6554 185.352 52.4626C184.317 50.0029 181.648 48.6678 179.132 47.4083C178.864 47.2748 178.599 47.1419 178.338 47.0084C169.878 42.7013 163.374 35.8609 156.903 29.0538C155.204 27.2681 153.509 25.4844 151.781 23.7496C148.498 20.4535 145.053 17.3003 141.465 14.3029C137.528 11.0158 133.351 7.87851 128.53 5.90601C123.711 3.93351 118.137 3.21473 113.177 4.84671C115.411 4.95379 117.162 7.36115 116.467 9.372C115.773 11.3828 112.857 12.3498 110.986 11.1898C109.115 10.0297 108.892 7.11599 110.565 5.71262C105.493 7.13234 101.23 10.9251 99.4245 15.6261C99.0686 16.5531 98.8034 17.5781 99.1291 18.515C99.3128 19.0433 99.6731 19.5124 100.03 19.9762C100.533 20.6313 101.028 21.2758 101.005 22.0609C100.822 28.3457 107.33 34.036 113.944 33.3729C115.239 33.243 115.761 34.4642 116.302 35.731C116.56 36.3357 116.823 36.9501 117.176 37.4337C117.807 38.2975 118.862 38.7784 119.872 39.215C130.136 43.6536 140.757 47.3551 151.613 50.2767C152.871 50.6153 154.593 50.7563 155.127 49.6269C155.843 48.1119 157.923 47.3252 159.547 47.9559C161.17 48.586 162.065 50.5281 161.448 52.0819C161.171 52.7773 162.079 53.342 162.818 53.5948L199.799 66.2354C199.117 63.6476 202.594 61.0762 205.087 62.3241C207.579 63.5727 207.281 67.7368 204.633 68.6564L218.15 75.0997L220.576 56.3481C220.69 55.4721 220.319 54.169 219.424 54.4197C217.766 54.8842 215.811 53.9973 215.156 52.4838C214.501 50.9709 215.239 49.0431 216.766 48.2754C217.941 47.6848 218.379 46.2285 218.119 44.9942C217.859 43.7599 217.055 42.6986 216.253 41.6945C207.572 30.8314 196.576 21.5832 183.965 15.0106C180.585 13.2491 176.488 11.6618 172.995 13.2139C170.973 14.1124 169.613 15.8806 168.283 17.6093C168.072 17.8843 167.861 18.1584 167.649 18.4278C164.989 21.7982 161.698 24.7223 157.976 27.0232L169.76 38.3567C168.785 36.3677 170.268 33.6879 172.552 33.311C174.837 32.934 177.192 34.9801 176.988 37.164C176.784 39.3472 174.085 40.9711 171.906 40.2211C176.827 43.9799 182.275 47.926 188.6 47.9791ZM203.6 201.49C205.391 201.614 207.209 200.598 207.957 199.054C208.705 197.511 208.332 195.545 207.063 194.344C205.477 192.843 207.313 190.041 209.544 189.823C211.776 189.606 213.804 190.953 215.593 192.233L224.214 198.404C225.26 199.152 226.432 200.27 225.975 201.432C216.128 226.467 209.655 252.686 206.762 279.255C206.528 281.408 204.332 282.994 202.078 283.38C199.825 283.766 197.522 283.226 195.304 282.689L187.372 280.77C186.833 280.639 186.268 280.496 185.868 280.132C185.295 279.61 185.207 278.786 185.16 278.036C183.548 252.451 189.115 226.492 201.139 203.52C201.654 202.538 202.444 201.41 203.6 201.49ZM186.129 185.443C183.982 183.912 184.474 180.174 186.952 179.188C180.819 179.688 175.224 182.273 169.624 184.859C164.221 187.354 158.814 189.851 152.914 190.484C156.459 192.758 158.133 197.116 157.653 201.141C157.172 205.165 154.788 208.83 151.689 211.627C154.342 216.43 158.723 220.361 163.936 222.614C165.773 223.407 167.878 224 169.791 223.388C170.209 223.255 170.654 223.076 171.107 222.894C172.759 222.232 174.509 221.531 175.338 222.832C176.893 225.272 180.862 224.712 183.436 223.232C185.195 222.221 186.831 220.851 187.555 219.03C188.279 217.208 187.851 214.881 186.158 213.775C184.752 212.854 184.279 210.869 185.133 209.468C185.987 208.068 188.041 207.458 189.587 208.147C190.938 208.748 192.203 207.249 193.01 206.062C194.908 203.266 197.705 201.024 200.933 199.71C199.642 197.914 199.823 195.294 201.352 193.672C197.401 190.943 194.232 187.213 192.265 182.978C191.941 185.501 188.274 186.973 186.129 185.443ZM133.814 175.671V175.671C133.765 175.972 133.716 176.273 133.678 176.573C133.5 177.967 133.659 179.589 134.841 180.439C139.351 175.271 142.002 168.679 142.263 161.984C142.315 160.646 144.46 160.839 145.797 161.28C149.743 162.58 154.174 161.931 158.002 160.346C161.83 158.762 165.171 156.307 168.466 153.878C167.502 159.948 168.342 166.266 170.866 171.922L157.836 181.173C157.321 181.538 156.838 182.377 157.429 182.621C162.366 181.107 166.558 178.029 170.664 175.015L171.049 174.733C175.278 171.63 179.705 168.517 184.887 167.248C190.069 165.979 196.236 166.98 199.538 170.963C201.166 172.926 201.945 175.383 202.69 177.776L204.997 185.187C205.497 186.793 205.989 188.563 205.269 190.093C204.548 191.623 202.015 192.377 201.004 191.002L196.28 184.576C194.029 181.514 191.476 178.243 187.675 177.25C183.528 176.167 179.253 178.125 175.397 179.929C168.641 183.09 161.724 185.944 154.678 188.477C152.511 189.256 150.109 188.495 147.758 187.752C145.082 186.905 142.473 186.08 140.358 187.571C139.572 188.124 138.463 187.822 137.558 187.468C131.333 185.037 125.757 181.138 121.476 176.222L130.439 170.718C131.685 169.953 133.418 171.052 133.841 172.398C134.173 173.455 133.993 174.566 133.814 175.671ZM140.404 208.506C136.325 205.353 134.354 199.949 135.51 195.089C135.804 193.854 134.447 192.898 133.348 192.173C132.251 191.447 131.165 190.033 132.012 189.053C132.468 188.525 131.846 187.785 131.276 187.367L120.308 179.329C118.993 178.365 117.636 177.355 116.876 175.954C115.503 173.422 111.839 172.28 109.142 173.544C105.313 175.338 104.78 180.204 104.759 184.244C104.754 185.196 105.037 186.46 106.043 186.514C108.613 186.651 109.83 190.424 107.778 191.894C105.767 193.334 107.202 196.455 109.201 197.908C109.637 198.225 110.104 198.529 110.573 198.834C112.255 199.928 113.966 201.042 114.404 202.859C114.731 204.211 114.249 205.645 113.777 207.045C113.188 208.796 112.617 210.495 113.665 211.918C114.949 213.661 117.688 213.492 119.895 213.1C126.803 211.876 133.65 210.342 140.404 208.506ZM189.143 292.99C194.114 292.611 199.118 292.621 204.088 293.018C204.504 293.051 204.945 293.095 205.28 293.332C205.795 293.698 205.887 294.38 205.945 294.986C206.42 299.965 207.42 304.899 208.926 309.69C208.692 310.278 208.028 310.421 207.337 310.569C206.886 310.665 206.425 310.765 206.064 310.991C204.899 311.723 205.239 313.475 206.104 314.514C206.41 314.881 206.765 315.216 207.118 315.551V315.551C207.765 316.163 208.41 316.772 208.745 317.565C198.084 314.408 190.313 305.382 186.16 295.577C185.909 294.982 185.666 294.32 185.895 293.718C186.124 293.115 187.064 292.76 187.495 293.254C187.665 293.448 187.708 293.712 187.746 293.962L188.471 298.861C188.566 299.501 189.674 299.508 190.051 298.968C190.426 298.428 190.288 297.717 190.135 297.086L189.143 292.99ZM154.585 196.601C153.153 192.699 149.295 189.693 144.971 189.108C143.388 188.894 141.604 189.046 140.472 190.112C137.981 192.456 136.997 196.03 137.582 199.306C138.166 202.582 140.2 205.538 142.882 207.685C144.886 209.289 147.713 210.503 150.093 209.453C150.802 209.14 151.406 208.649 151.946 208.113C154.958 205.122 156.017 200.502 154.585 196.601ZM202.103 93.7007C203.279 85.9631 204.373 77.6207 200.508 70.7101C200.24 70.2292 199.962 69.5964 200.348 69.1925L212.477 74.8735C213.439 75.3244 214.577 76.1964 214.13 77.1187C213.608 78.1963 213.508 79.3863 213.409 80.5784C213.368 81.0825 213.325 81.5859 213.252 82.0818C212.805 85.079 211.157 87.8241 209.067 90.117C206.978 92.4105 204.45 94.3035 201.939 96.1809C201.853 95.3546 201.978 94.5229 202.103 93.7007ZM214.316 315.901C212.924 314.049 211.064 312.235 208.673 312.009C207.75 311.922 206.509 312.807 207.179 313.413C212.971 318.648 216.849 326.139 216.132 333.684C215.415 341.228 209.395 348.428 201.475 349.577C203.818 352.207 208.286 352.412 211.462 350.735C214.636 349.058 216.678 345.935 217.965 342.719C221.479 333.943 220.066 323.551 214.316 315.901ZM90.0086 228.995C98.7948 230.297 107.367 232.632 115.912 234.961L139.197 241.309C146.284 243.241 153.451 245.205 159.842 248.686C156.811 248.582 153.863 247.763 150.963 246.924C145.833 245.442 140.721 243.877 135.607 242.311C119.02 237.231 102.42 232.148 85.1869 229.886C86.2878 228.64 88.3125 228.744 90.0086 228.995ZM217.322 82.7221C215.988 83.8549 215.351 85.5442 214.968 87.2002C214.855 87.6865 214.76 88.1777 214.665 88.6681L214.665 88.6688C214.435 89.8493 214.206 91.0298 213.739 92.1421C213.663 92.3247 213.58 92.5093 213.496 92.6946C213.076 93.6258 212.642 94.5876 212.955 95.5269C217.985 95.2218 222.535 91.3915 223.436 86.7036C223.739 85.1301 223.559 83.282 222.242 82.2793C220.845 81.2173 218.656 81.59 217.322 82.7221ZM191.572 21.1803C192.151 22.733 191.278 24.6388 189.684 25.3015C188.089 25.9641 186.013 25.2843 185.194 23.8315C184.293 22.2321 185.116 19.9841 186.872 19.2546C188.626 18.5251 190.935 19.471 191.572 21.1803ZM131.702 22.6458C131.802 21.234 130.864 19.8099 129.481 19.2711C127.719 18.5853 125.454 19.4972 124.758 21.1731C124.06 22.8489 125.061 24.9749 126.844 25.6072C128.938 26.3497 131.554 24.7555 131.702 22.6458ZM199.822 36.867C199.872 38.6531 201.606 40.2457 203.496 40.2409C205.5 40.2354 207.286 38.4133 207.14 36.523C207.002 34.7409 205.191 33.2275 203.303 33.3163C201.415 33.4052 199.773 35.0811 199.822 36.867ZM145.946 38.9412C144.576 40.5604 141.585 40.5644 140.209 38.9494C138.834 37.3336 139.477 34.5721 141.443 33.6522C143.409 32.7324 146.121 33.9236 146.646 35.9372C146.915 36.9685 146.649 38.1122 145.946 38.9412ZM134.833 65.9269C133.674 67.64 133.426 69.8757 134.186 71.7789C134.467 72.4846 134.886 73.1528 135.483 73.6535C137.394 75.2618 140.663 74.5826 142.273 72.7012C143.883 70.8205 144.104 68.1666 143.629 65.7893C143.44 64.8411 143.091 63.8295 142.236 63.3036C141.64 62.9378 140.891 62.8718 140.183 62.9201C138.037 63.0652 135.993 64.2144 134.833 65.9269ZM173.34 83.4584C172.708 82.8474 172.291 82.0607 172.032 81.2419C171.072 78.2072 172.424 74.6521 175.208 72.8892C176.466 72.0922 178.09 71.6488 179.515 72.1372C181.262 72.7353 182.222 74.537 182.553 76.2658C183.028 78.7392 182.458 81.5116 180.531 83.2445C178.604 84.9768 175.2 85.2547 173.34 83.4584ZM125.098 117.579C125.163 116.051 125.294 114.525 125.492 113.007C125.56 112.481 126.042 112.029 126.599 111.968C126.857 115.712 126.977 119.464 126.959 123.216C125.207 122.002 125.012 119.631 125.098 117.579ZM190.159 101.327C189.633 99.05 187.825 97.0766 185.517 96.2592C185.132 96.1223 185.149 95.5385 185.473 95.298C185.798 95.0576 186.26 95.0821 186.66 95.1748C188.854 95.6809 190.212 97.7169 191.215 99.6304C191.481 100.136 191.742 100.726 191.508 101.246C191.274 101.767 190.287 101.878 190.159 101.327ZM150.035 433.028C149.805 432.536 149.219 432.301 148.684 432.116C140.302 429.228 131.403 427.686 122.482 427.576C121.211 427.56 119.725 427.676 119.026 428.68C119.707 429.221 120.684 429.221 121.574 429.208C131.019 429.073 140.489 430.731 149.256 434.054C149.785 434.254 150.266 433.521 150.035 433.028ZM153.061 88.8132C152.433 89.1824 151.806 89.5516 151.254 90.0148C150.212 90.8874 149.46 92.2995 149.998 93.512C150.663 95.0106 152.798 95.2933 154.49 95.0051L154.559 94.9929L154.652 94.9765L154.702 94.9677C155.237 94.8723 155.784 94.7749 156.304 94.9098C156.894 95.0624 157.412 95.6495 157.21 96.1952C157.068 96.578 156.643 96.7919 156.243 96.9397C153.765 97.8559 150.673 97.5153 148.834 95.6965C146.996 93.8785 146.95 90.5489 149.05 89.0046L157.253 82.9707C157.17 84.816 156.186 86.5925 154.678 87.7669C154.174 88.1593 153.617 88.4862 153.061 88.8132ZM186.093 103.341C186.602 106.066 185.864 108.866 184.817 111.45C180.314 122.575 169.681 131.294 157.395 133.935C152.45 134.998 146.995 135.061 142.595 132.678C138.195 130.295 135.367 124.937 137.296 120.504C139.561 115.3 146.572 113.841 152.522 113.723C153.044 113.712 153.571 113.706 154.101 113.698C159.623 113.62 165.517 113.537 169.513 110.062C170.935 108.825 171.961 107.269 172.989 105.71C173.855 104.395 174.723 103.079 175.83 101.95C178.252 99.4819 182.994 98.3021 185.123 101.002C185.657 101.679 185.937 102.509 186.093 103.341ZM183.564 107.493C184.178 105.276 183.908 102.086 181.51 101.751C180.618 101.627 179.729 102.004 178.988 102.49C177.146 103.698 175.964 105.519 174.777 107.35C173.834 108.803 172.888 110.262 171.603 111.427C168.248 114.468 163.23 115.006 158.599 115.385L149.7 116.114C147.431 116.3 145.079 116.509 143.103 117.582C139.393 119.598 138.106 124.751 140.471 128.123C143.029 131.768 148.362 132.56 152.969 132.139C167.167 130.841 179.954 120.54 183.564 107.493ZM188.635 277.92C188.153 277.972 187.65 277.844 187.262 277.568C186.999 277.381 186.789 277.129 186.657 276.844C186.228 275.919 186.807 274.701 187.824 274.389C188.841 274.077 190.066 274.743 190.293 275.731C190.52 276.718 189.697 277.804 188.635 277.92ZM205.096 278.045C204.745 277.755 204.276 277.595 203.81 277.608C202.662 277.641 201.741 278.865 202.084 279.9C202.427 280.935 203.923 281.443 204.884 280.851C205.846 280.259 205.959 278.761 205.096 278.045ZM170.49 199.225C169.299 197.928 169.401 195.748 170.709 194.556C172.017 193.364 174.324 193.347 175.651 194.521C177.069 195.775 177.088 198.169 175.69 199.442C174.293 200.716 171.764 200.609 170.49 199.225ZM154.893 210.038C154.62 210.731 154.597 211.509 154.83 212.215C155.49 214.221 158.425 215.176 160.252 213.98C162.08 212.783 162.166 209.85 160.411 208.559C158.656 207.269 155.67 208.069 154.893 210.038ZM123.332 204.934C122.921 206.219 121.619 207.204 120.202 207.301C118.112 207.446 116.16 205.484 116.438 203.52C116.717 201.556 119.147 200.151 121.123 200.81C122.82 201.376 123.853 203.306 123.332 204.934Z" fill="#00160A"/>
</svg>
